<?xml version="1.0" standalone="no"?>
<!DOCTYPE svg PUBLIC "-//W3C//DTD SVG 1.1//EN" "http://www.w3.org/Graphics/SVG/1.1/DTD/svg11.dtd" >
<svg>
<metadata>
Created by FontForge 20090914 at Mon Apr 16 04:46:31 2012
 By www-data
Copyright (c) 2011 by vernon adams. All rights reserved.
</metadata>
<defs>
<font id="Bevan" horiz-adv-x="1683" >
  <font-face 
    font-family="Bevan"
    font-weight="400"
    font-stretch="normal"
    units-per-em="2048"
    panose-1="2 0 0 0 0 0 0 0 0 0"
    ascent="1638"
    descent="-410"
    x-height="1072"
    cap-height="1623"
    bbox="-156 -923.001 3755 2385"
    underline-thickness="102"
    underline-position="-205"
    unicode-range="U+0020-U+FB04"
  />
<missing-glyph horiz-adv-x="456" 
 />
    <glyph glyph-name=".notdef" horiz-adv-x="456" 
 />
    <glyph glyph-name="space" unicode=" " horiz-adv-x="480" 
 />
    <glyph glyph-name="exclam" unicode="!" horiz-adv-x="802" 
d="M610 558l-421 -2l-82 775v299h587v-299zM399 463c-79.333 0 -145.333 -22.5 -198 -67.5s-79 -105.833 -79 -182.5c0 -75.333 25.833 -135 77.5 -179s118.167 -66 199.5 -66c84.667 0 153.667 22 207 66s80 103.667 80 179c0 76.667 -27.5 137.5 -82.5 182.5
s-123.167 67.5 -204.5 67.5z" />
    <glyph glyph-name="quotedbl" unicode="&#x22;" horiz-adv-x="1147" 
d="M44 1624h480l-100 -679h-300zM631 1624h480l-100 -679h-300z" />
    <glyph glyph-name="numbersign" unicode="#" horiz-adv-x="1413" 
d="M409 1246l84 377h324l-87 -377h158l84 377h324l-87 -377h140l-63 -299h-145l-83 -362h144l-63 -299h-150l-65 -286h-313l63 286h-164l-65 -286h-313l63 286h-136l63 299h140l80 362h-136l63 299h140zM579 585h162l80 362h-159z" />
    <glyph glyph-name="dollar" unicode="$" horiz-adv-x="1358" 
d="M95 545l246.999 0.00292969c4.66699 -56.667 34.167 -112 88.5 -166s105.833 -81 154.5 -81v288c-44 12 -81.667 23 -113 33s-65.5 22.667 -102.5 38s-68.167 31.166 -93.5 47.499s-50.666 36.166 -75.999 59.499s-45.5 48.5 -60.5 75.5s-27.167 58.667 -36.5 95
s-14 75.833 -14 118.5c0 138 45.833 247.167 137.5 327.5s213.167 124.5 364.5 132.5v191h227v-210c34.667 -12 82.667 -32 144 -60l16 16l27 27h157c1.33301 0 4.33301 -0.666992 9 -2s7.33398 -2 8.00098 -2l2.5 -2.5l2.5 -2.5c0.666992 -0.666992 1 -1.33398 1 -2.00098
v-426l-6 -6l-121 -4c-0.666992 0 -9.16699 -0.333008 -25.5 -1s-26.833 -1 -31.5 -1c-7.33301 0 -19.666 0.666992 -36.999 2l-10 10c-15.333 64 -51 122 -107 174c-6.66699 7.33301 -13.334 11 -20.001 11c-7.33301 0 -11 -2 -11 -6v-228
c54.667 -14.667 103.5 -30.334 146.5 -47.001s85.5 -38.167 127.5 -64.5s77.167 -55.833 105.5 -88.5s51.5 -72.167 69.5 -118.5s27.667 -97.833 29 -154.5c2 -84.667 -18.333 -163.5 -61 -236.5s-101 -131.333 -175 -175s-154.667 -67.5 -242 -71.5v-201h-231v214
c-92.667 18.667 -176.334 45.334 -251.001 80.001l-44 -62h-195v479zM915.999 399.003c3.33301 28 -3.33203 55 -19.999 81s-43.334 41.667 -80.001 47v-220c24.667 0 47.5 9.66699 68.5 29s31.5 40.333 31.5 63zM475.001 1180c0 -29.333 10.501 -55 31.501 -77
s48.5 -36.667 82.5 -44v211c-28.667 1.33301 -54.834 -7.16699 -78.501 -25.5s-35.5 -39.833 -35.5 -64.5z" />
    <glyph glyph-name="percent" unicode="%" horiz-adv-x="2728" 
d="M1675 521c0 105.333 19.667 201.332 59 287.999s97 156.167 173 208.5s163.333 78.5 262 78.5c162 0 286 -49.333 372 -148s129 -229.667 129 -393c0 -75.333 -10 -146.666 -30 -213.999s-49 -128 -87 -182s-88 -97 -150 -129s-132 -48 -210 -48
c-164 0 -291.333 48.5 -382 145.5s-136 228.167 -136 393.5zM2175 754.999c-37.333 -2 -64 -22.6641 -80 -61.9971c-10.667 -28 -16 -79 -16 -153c0 -138.667 31 -208 93 -208c14.667 0 27.667 2.66699 39 8s20.333 13 27 23s12.334 20.5 17 31.5
c4.66699 11 7.83398 24.167 9.5 39.5c1.66699 15.333 2.83398 28.666 3.5 39.999c0.666992 11.333 1 24.333 1 39v27c0.666992 17.333 0.833984 30.833 0.5 40.5c-0.333008 9.66699 -1.16602 24.167 -2.5 43.5c-1.33301 19.333 -4.16602 35.166 -8.5 47.499
c-4.33301 12.333 -9.83301 25.333 -16.5 39s-15.667 24.167 -27 31.5s-24.666 11.666 -40 12.999zM938 0.00195312l341 1623h504l-342 -1623h-503zM56 1078c0 105.333 19.667 201.332 59 287.999s97 156.167 173 208.5s163.333 78.5 262 78.5c162 0 286 -49.333 372 -148
s129 -229.667 129 -393c0 -75.333 -10 -146.666 -30 -213.999s-49 -128 -87 -182s-88 -97 -150 -129s-132 -48 -210 -48c-164 0 -291.333 48.5 -382 145.5s-136 228.167 -136 393.5zM556 1312c-38 -1.33301 -64.6729 -21.9971 -80.0059 -61.9971
c-10.667 -28 -16 -79 -16 -153c0 -138.667 31 -208 93 -208c14.667 0 27.667 2.66699 39 8s20.333 13 27 23s12.334 20.5 17.001 31.5s7.83398 24.167 9.50098 39.5s2.83398 28.666 3.50098 39.999s1 24.333 1 39l1 26c0 18 -0.166992 31.833 -0.5 41.5
s-1.16602 24.167 -2.49902 43.5s-4.16602 35.166 -8.49902 47.499s-9.83301 25.333 -16.5 39s-15.667 24.167 -27 31.5s-24.666 11.666 -39.999 12.999z" />
    <glyph glyph-name="ampersand" unicode="&#x26;" horiz-adv-x="1728" 
d="M1117 0c-32.667 32.667 -90.3311 93.666 -172.998 182.999c-123.333 -136 -277 -206 -461 -210c-129.333 1.33301 -236.5 37.666 -321.5 108.999s-128.833 170.666 -131.5 297.999c2 102.667 28.833 188.667 80.5 258s129.5 126.333 233.5 171
c-77.333 84.667 -117 185.334 -119 302.001c0 64 12.833 121.833 38.5 173.5s60.5 94.167 104.5 127.5s95 58.833 153 76.5s119.667 26.5 185 26.5c51.333 0 102 -7.66699 152 -23s95.333 -37.166 136 -65.499s73.5 -65 98.5 -110s37.5 -94.167 37.5 -147.5
c0 -40.667 -2.66699 -75.167 -8 -103.5s-15.666 -55.166 -30.999 -80.499s-32 -47.333 -50 -66s-44.667 -43.667 -80 -75l179 -175l27 24c17.333 16 35 34.5 53 55.5s27 36.833 27 47.5c0 23.333 -9 35 -27 35h-47v295h483v-289c-46.667 -16 -82.334 -32.833 -107.001 -50.5
s-58.334 -48.5 -101.001 -92.5l-170 -176c3.33301 -1.33301 52.666 -51.333 147.999 -150h230v-368h-539zM487.003 486.999c0 -44 14.667 -80.333 44 -109s66 -43 110 -43c41.333 0 79.333 13.333 114 40l-207 214l-7 -5c-4 -2.66699 -9 -7.16699 -15 -13.5
s-11.833 -13.5 -17.5 -21.5s-10.667 -17.5 -15 -28.5s-6.5 -22.167 -6.5 -33.5zM678.003 1175c0 -20 6 -39.833 18 -59.5s24.333 -35.5 37 -47.5s29.667 -26.333 51 -43c32 22 55.333 41.833 70 59.5s22 40.167 22 67.5c0 34 -8.83301 62.667 -26.5 86s-43.5 35 -77.5 35
c-26 0 -48.167 -9.83301 -66.5 -29.5s-27.5 -42.5 -27.5 -68.5z" />
    <glyph glyph-name="quotesingle" unicode="'" horiz-adv-x="559" 
d="M44 1624h480l-100 -679h-300z" />
    <glyph glyph-name="parenleft" unicode="(" horiz-adv-x="966" 
d="M912 1321c-51.333 -1.33301 -96.999 -8.83203 -136.999 -22.499s-72.667 -33.334 -98 -59.001s-46.5 -53.334 -63.5 -83.001s-29.667 -64.667 -38 -105s-14 -78 -17 -113s-4.5 -74.5 -4.5 -118.5c0 -52 2.83301 -100.333 8.5 -145s16.334 -89.834 32.001 -135.501
s36.167 -84.5 61.5 -116.5s59.333 -58.167 102 -78.5s92 -30.5 148 -30.5v-331c-115.333 0 -220.5 15 -315.5 45s-175.5 71 -241.5 123s-121.833 113.5 -167.5 184.5s-79 147 -100 228s-31.5 166.167 -31.5 255.5c0 138 16 257.833 48 359.5s82.167 188.334 150.5 260.001
s157.666 125.334 267.999 161.001s242.166 53.5 395.499 53.5v-332z" />
    <glyph glyph-name="parenright" unicode=")" horiz-adv-x="966" 
d="M54 1653c153.333 0 285.167 -17.834 395.5 -53.501s199.666 -89.334 267.999 -161.001s118.5 -158.334 150.5 -260.001s48 -221.5 48 -359.5c0 -89.333 -10.5 -174.5 -31.5 -255.5s-54.333 -157 -100 -228s-101.5 -132.5 -167.5 -184.5s-146.5 -93 -241.5 -123
s-200.167 -45 -315.5 -45v331c56 0 105.333 10.167 148 30.5s76.667 46.5 102 78.5s45.833 70.833 61.5 116.5s26.334 90.834 32.001 135.501s8.5 93 8.5 145c0 44 -1.5 83.5 -4.5 118.5s-8.66699 72.667 -17 113s-21 75.333 -38 105s-38.167 57.334 -63.5 83.001
s-58 45.334 -98 59.001s-85.667 21.167 -137 22.5v332z" />
    <glyph glyph-name="asterisk" unicode="*" horiz-adv-x="1347" 
d="M98 1328c23.333 36.667 56.1621 59.3311 98.4951 67.998s89.166 -2 140.499 -32c22 -14.667 46.333 -34.834 73 -60.501s47.667 -47 63 -64s39.166 -44.833 71.499 -83.5l58.5 -70l-26 87.5c-14 47.667 -24 82.834 -30 105.501s-12.333 52 -19 88s-10 67.333 -10 94
c0 56 16 100 48 132s69.667 48 113 48s81 -16 113 -48s48 -76 48 -132c0 -21.333 -1.66699 -44.333 -5 -69s-8.66602 -51.5 -15.999 -80.5s-13.833 -53.5 -19.5 -73.5l-24 -81.5l-21.5 -70.5l60 70.5l70 82c16.667 19 38.167 41 64.5 66s50.5 44.833 72.5 59.5
c51.333 30 98.166 40.667 140.499 32s75.166 -31.334 98.499 -68.001c15.333 -22.667 24.166 -47.667 26.499 -75s-3.83398 -55.333 -18.501 -84s-37.667 -53.334 -69 -74.001c-32 -21.333 -70.833 -40.666 -116.5 -57.999s-100.167 -35.333 -163.5 -54
s-104.666 -31.334 -123.999 -38.001c22 -8 63.833 -21 125.5 -39s115.5 -35.833 161.5 -53.5s85 -36.834 117 -57.501c31.333 -20.667 54.333 -45.334 69 -74.001s20.834 -56.667 18.501 -84s-11.166 -52.333 -26.499 -75c-23.333 -36.667 -56.166 -59.334 -98.499 -68.001
s-89.166 2 -140.499 32c-22 14.667 -46.333 34.667 -73 60s-47.834 46.833 -63.501 64.5l-71 83l-59.5 70.5l26.5 -87.5c15 -49.667 25.333 -85.167 31 -106.5s11.834 -50.166 18.501 -86.499s10 -67.833 10 -94.5c0 -56 -16 -100 -48 -132s-69.667 -48 -113 -48
s-81 16 -113 48s-48 76 -48 132c0 26.667 3.33301 57.834 10 93.501s13 65.334 19 89.001s15.833 58.334 29.5 104.001l26.5 88.5l-58 -69.5l-73 -86c-13.333 -15 -33.666 -35.5 -60.999 -61.5s-52 -46.333 -74 -61c-51.333 -30 -98.166 -40.667 -140.499 -32
s-75.166 31.334 -98.499 68.001c-15.333 22.667 -24.166 47.667 -26.499 75s3.83398 55.333 18.501 84s37.667 53.334 69 74.001c32 20.667 71 39.834 117 57.501s99.833 35.667 161.5 54s103.167 31.166 124.5 38.499c-19.333 6.66699 -60.666 19.334 -123.999 38.001
s-117.666 36.667 -162.999 54s-84 36.666 -116 57.999c-31.333 20.667 -54.333 45.334 -69 74.001s-20.834 56.667 -18.501 84s11.166 52.333 26.499 75z" />
    <glyph glyph-name="plus" unicode="+" horiz-adv-x="910" 
d="M59 762h272v289h255v-289h265v-245h-265v-279h-255v279h-272v245z" />
    <glyph glyph-name="comma" unicode="," horiz-adv-x="716" 
d="M95 -223c30 0 56 2.16699 78 6.5s39.833 11.666 53.5 21.999s24.5 20.833 32.5 31.5s13.833 26 17.5 46s5.83398 37.5 6.50098 52.5s1 36.5 1 64.5h-189v366h510c16 -102.667 24 -195 24 -277c0 -185.333 -43.333 -321.166 -130 -407.499
s-221.334 -129.5 -404.001 -129.5v225z" />
    <glyph glyph-name="hyphen" unicode="-" horiz-adv-x="838" 
d="M742 836v-299h-647v299h647z" />
    <glyph glyph-name="period" unicode="." horiz-adv-x="678" 
d="M335 -27c-79.333 0 -145.333 22.5 -198 67.5s-79 105.833 -79 182.5c0 75.333 25.833 135 77.5 179s118.167 66 199.5 66c84.667 0 153.667 -22 207 -66s80 -103.667 80 -179c0 -76.667 -27.5 -137.5 -82.5 -182.5s-123.167 -67.5 -204.5 -67.5z" />
    <glyph glyph-name="slash" unicode="/" horiz-adv-x="954" 
d="M52 0l491 1623h364l-502 -1623h-353z" />
    <glyph glyph-name="zero" unicode="0" horiz-adv-x="1370" 
d="M68 695c0 94.667 14.499 182.834 43.499 264.501s69.833 152.334 122.5 212.001s117.834 106.667 195.501 141s163.167 51.833 256.5 52.5c92 -0.666992 176.833 -18.167 254.5 -52.5s142.834 -81.333 195.501 -141s93.5 -130.334 122.5 -212.001
s43.5 -169.834 43.5 -264.501c0 -144 -22.167 -269.333 -66.5 -376s-113.333 -191 -207 -253s-207.834 -92.667 -342.501 -92c-136 -0.666992 -250.833 30 -344.5 92s-162.667 146.333 -207 253s-66.5 232 -66.5 376zM684.999 349c29.333 0 53.5 10.3311 72.5 30.998
s32.5 49.334 40.5 86.001s13.167 69.834 15.5 99.501s3.5 64.167 3.5 103.5v28c0 18 0.166992 36.5 0.5 55.5s-0.5 38.333 -2.5 58s-4.33301 38.5 -7 56.5s-7.33398 35 -14.001 51s-14.667 30 -24 42s-21.166 21.333 -35.499 28s-30.833 10 -49.5 10
c-21.333 0 -40.166 -4.5 -56.499 -13.5s-29 -21.333 -38 -37s-16.5 -33.667 -22.5 -54s-9.66699 -41.666 -11 -63.999l-4 -67.5c-1.33301 -22.667 -1.33301 -44.334 0 -65.001v-28c0 -30.667 0.5 -57.667 1.5 -81s4.16699 -51 9.5 -83s12.333 -58.5 21 -79.5
s21.667 -39 39 -54s37.666 -22.5 60.999 -22.5z" />
    <glyph glyph-name="one" unicode="1" horiz-adv-x="924" 
d="M137 0l-1 325l90 -1v627l-164 -1v258l662 167l6 -1051h96v-324h-689z" />
    <glyph glyph-name="two" unicode="2" horiz-adv-x="1330" 
d="M1260 0v470.994h-173c0 -30 -5.66699 -54.833 -17 -74.5s-27.833 -34.5 -49.5 -44.5s-44 -17 -67 -21s-50.5 -6.33301 -82.5 -7h-161l128 96.5c27.333 21 66 53.833 116 98.5s88.667 84.667 116 120c70.667 90.667 106 187 106 289c0 70.667 -13.667 134.834 -41 192.501
s-64.833 105.334 -112.5 143.001s-102.834 67 -165.501 88s-130.334 32.833 -203.001 35.5c-54 2 -108.167 -2.5 -162.5 -13.5s-106.166 -28.667 -155.499 -53s-93.166 -53.833 -131.499 -88.5s-68.833 -76.334 -91.5 -125.001s-33.667 -101 -33 -157
c-2 -70.667 9.5 -137.667 34.5 -201s62.833 -117.666 113.5 -162.999l226 174c-4.66699 4.66699 -10.5 10.834 -17.5 18.501s-16.167 22.834 -27.5 45.501s-17 44.334 -17 65.001c0 41.333 11.667 75.333 35 102s56.666 40 99.999 40c35.333 0 66.333 -15.833 93 -47.5
s41.334 -73.167 44.001 -124.5c0 -42 -5.5 -80.5 -16.5 -115.5s-28.5 -68.167 -52.5 -99.5s-46.5 -57.333 -67.5 -78s-50.5 -47 -88.5 -79c-86 -73.333 -193.333 -134.666 -322 -183.999v-303h1143z" />
    <glyph glyph-name="three" unicode="3" horiz-adv-x="1274" 
d="M83 424l0.00195312 -345.998c59.333 -40 126.833 -66 202.5 -78s166.167 -18 271.5 -18c200 0 358.167 42.667 474.5 128s174.5 206.666 174.5 363.999c0 93.333 -34.5 177.333 -103.5 252s-151.5 116.334 -247.5 125.001c189.333 156 284 235 284 237v264h-1069v-453
l194 -1c14 53.333 26 87.333 36 102c19.333 27.333 53 41 101 41h220v-10l-342 -291v-158l1 -5c4 -3.33301 10.667 -5 20 -5c4 0 19.667 3.33301 47 10s54 10 80 10c30 0 58.667 -2.66699 86 -8s53.666 -14 78.999 -26s45.666 -29.5 60.999 -52.5s23 -50.167 23 -81.5
c0 -27.333 -7 -50.833 -21 -70.5s-32.5 -34.834 -55.5 -45.501s-46.667 -18.334 -71 -23.001s-49.5 -7 -75.5 -7c-126 0 -249.333 48.667 -370 146z" />
    <glyph glyph-name="four" unicode="4" horiz-adv-x="1281" 
d="M1000 288h122v-288h-705v288h127v132l-533 -1v269l551 654l439 -1v-666l227 2v-257h-228v-132zM544 677v234l-189 -233z" />
    <glyph glyph-name="five" unicode="5" horiz-adv-x="1167" 
d="M113 75c30.667 -30 82.666 -53.001 155.999 -69.001s143 -24 209 -24c68 0 132.5 6.33301 193.5 19s118 33 171 61s98.667 62.333 137 103s68.5 90.667 90.5 150s33 125.333 33 198c0 122.667 -45.833 224.667 -137.5 306s-204.167 122 -337.5 122
c-37.333 0 -73.5 -1.5 -108.5 -4.5s-60.833 -5.83301 -77.5 -8.5l-25 -4v139h611v297h-916v-794l12 -11c57.333 42.667 116.666 64 177.999 64c39.333 0 77.333 -5.33301 114 -16s68.834 -29.667 96.501 -57s41.5 -60.666 41.5 -99.999c0 -32 -8.66699 -59.667 -26 -83
s-39.166 -40.5 -65.499 -51.5s-51 -18.833 -74 -23.5s-44.167 -7 -63.5 -7c-22.667 0 -51.667 5.5 -87 16.5s-65 21.833 -89 32.5l-36 17v-272z" />
    <glyph glyph-name="six" unicode="6" horiz-adv-x="1355" 
d="M588 1345l-54.5029 -53l-65 -63l-68 -69l-72.5 -77.5c-19.333 -21.667 -42.166 -48.667 -68.499 -81s-48.166 -61.833 -65.499 -88.5s-35.5 -56.834 -54.5 -90.501s-34.167 -65.5 -45.5 -95.5s-20.666 -61.667 -27.999 -95s-11 -66 -11 -98
c0 -109.333 28.167 -206.333 84.5 -291s131.833 -149.334 226.5 -194.001s200 -67 316 -67c108 0 209.167 24 303.5 72s170.5 115.333 228.5 202s87.333 182.667 88 288c1.33301 140.667 -41.167 253.834 -127.5 339.501s-201.5 132.167 -345.5 139.5
c6.66699 18 34.167 53.167 82.5 105.5s95.833 101.333 142.5 147s70 68.834 70 69.501h-536zM570.997 550c0 25.333 0.333008 46 1 62s3.16699 35.333 7.5 58s10.333 40.667 18 54s19.167 25 34.5 35s34 15.333 56 16c20 0 37.167 -6.33301 51.5 -19
s24.666 -26.667 30.999 -42s11.333 -36 15 -62s5.66699 -45.167 6 -57.5s0.5 -29.166 0.5 -50.499c0 -144.667 -38.667 -217 -116 -217c-22.667 0 -41.5 8.16699 -56.5 24.5s-25.667 37.666 -32 63.999s-10.666 49.833 -12.999 70.5s-3.5 42 -3.5 64z" />
    <glyph glyph-name="seven" unicode="7" horiz-adv-x="1232" 
d="M63 878h218c0 56.667 10.333 94.5 31 113.5s54 28.5 100 28.5h241l-505 -1020h532l526 1067v270h-1143v-459z" />
    <glyph glyph-name="eight" unicode="8" horiz-adv-x="1322" 
d="M61 375c0 170 87.001 288.333 261.001 355c-58 22 -103.167 57.667 -135.5 107s-48.5 107 -48.5 173c0 57.333 12 108.333 36 153s54.167 80.167 90.5 106.5s78.833 47.833 127.5 64.5s94.667 28 138 34s87.333 9.33301 132 10c43.333 -0.666992 86.666 -4 129.999 -10
s89.333 -17.333 138 -34s91.167 -38.167 127.5 -64.5s66.5 -61.833 90.5 -106.5s36 -95.667 36 -153c0 -66 -16.167 -123.667 -48.5 -173s-77.5 -85 -135.5 -107c174 -66.667 261 -185 261 -355c0 -62 -13.333 -117 -40 -165s-60.167 -86 -100.5 -114s-88.333 -51 -144 -69
s-108.667 -30 -159 -36s-102.5 -9 -156.5 -9s-106.167 3 -156.5 9s-103.333 18 -159 36s-103.667 41 -144 69s-73.833 66 -100.5 114s-40 103 -40 165zM581.001 406c0 -110.667 26.667 -166 80 -166s80 55.333 80 166c0 114.667 -26 172 -78 172
c-54.667 0 -82 -57.333 -82 -172zM581.001 986c0 -108 27.3379 -161.333 82.0049 -160c52 -1.33301 78 52 78 160c0 18.667 -0.833008 34.5 -2.5 47.5s-4.83398 27 -9.50098 42s-12.834 26.333 -24.501 34s-25.5 11.834 -41.5 12.501
c-18.667 -0.666992 -33.834 -4.83398 -45.501 -12.501s-19.834 -19 -24.501 -34s-7.83398 -29 -9.50098 -42s-2.5 -28.833 -2.5 -47.5z" />
    <glyph glyph-name="nine" unicode="9" horiz-adv-x="1357" 
d="M235 0l537 -0.000976562l70.5 72l84.5 85.5l87 92.5c34 37.333 63.333 71.666 88 102.999s50.5 67.333 77.5 108s49 79 66 115s31 74.833 42 116.5s16.5 81.834 16.5 120.501c0 105.333 -26.5 200.333 -79.5 285s-126 150.834 -219 198.501s-196.833 71.5 -311.5 71.5
c-188 0 -341.833 -55.333 -461.5 -166s-179.5 -250.667 -179.5 -420c0 -130.667 46.333 -240.167 139 -328.5s208 -132.5 346 -132.5c-27.333 -34.667 -66.333 -78.667 -117 -132l-131 -135zM575 781.999c0 153.333 37 230 111 230c20 0 37 -8.66699 51 -26
s23.833 -39.5 29.5 -66.5s9.66699 -50.833 12 -71.5s3.5 -40 3.5 -58c0 -144.667 -32.667 -217 -98 -217c-72.667 0 -109 69.667 -109 209z" />
    <glyph glyph-name="colon" unicode=":" horiz-adv-x="724" 
d="M357 596c-79.333 0 -145.333 22.5 -198 67.5s-79 105.833 -79 182.5c0 75.333 25.833 135 77.5 179s118.167 66 199.5 66c84.667 0 153.667 -22 207 -66s80 -103.667 80 -179c0 -76.667 -27.5 -137.5 -82.5 -182.5s-123.167 -67.5 -204.5 -67.5zM357 -18
c-79.333 0 -145.333 22.5 -198 67.5s-79 105.833 -79 182.5c0 75.333 25.833 135 77.5 179s118.167 66 199.5 66c84.667 0 153.667 -22 207 -66s80 -103.667 80 -179c0 -76.667 -27.5 -137.5 -82.5 -182.5s-123.167 -67.5 -204.5 -67.5z" />
    <glyph glyph-name="semicolon" unicode=";" horiz-adv-x="720" 
d="M105 -448c182.667 0 317.334 43.167 404.001 129.5s130 222.166 130 407.499c0 82 -8 174.333 -24 277h-510v-366h189c0 -28 -0.333008 -49.5 -1 -64.5s-2.83398 -32.5 -6.50098 -52.5s-9.5 -35.333 -17.5 -46s-18.833 -21.167 -32.5 -31.5s-31.5 -17.666 -53.5 -21.999
s-48 -6.5 -78 -6.5v-225zM372 595c-79.333 0 -145.333 22.5 -198 67.5s-79 105.833 -79 182.5c0 75.333 25.833 135 77.5 179s118.167 66 199.5 66c84.667 0 153.667 -22 207 -66s80 -103.667 80 -179c0 -76.667 -27.5 -137.5 -82.5 -182.5s-123.167 -67.5 -204.5 -67.5z
" />
    <glyph glyph-name="less" unicode="&#x3c;" horiz-adv-x="909" 
d="M57 946l715 596v-465l-333 -316l333 -316v-465l-715 596v370z" />
    <glyph glyph-name="equal" unicode="=" horiz-adv-x="844" 
d="M746 392v-223h-647v223h647zM746 761v-223h-647v223h647z" />
    <glyph glyph-name="greater" unicode="&#x3e;" horiz-adv-x="909" 
d="M852 576l-715 -596v465l333 316l-333 316v465l715 -596v-370z" />
    <glyph glyph-name="question" unicode="?" horiz-adv-x="1311" 
d="M359 891c264 119.333 395.999 238.667 395.999 358c0 10.667 -1.16699 22.167 -3.5 34.5s-6.33301 26.5 -12 42.5s-15.5 29.167 -29.5 39.5s-31 15.5 -51 15.5c-80 0 -123.333 -54 -130 -162h-472c9.33301 150.667 70.5 274.667 183.5 372s255.167 146 426.5 146
c112.667 0 214.834 -20 306.501 -60s163.5 -95.5 215.5 -166.5s78 -150.5 78 -238.5c0 -45.333 -6.5 -88.333 -19.5 -129s-29.5 -76.5 -49.5 -107.5s-45.833 -60.833 -77.5 -89.5s-62.667 -53 -93 -73s-66 -39.833 -107 -59.5s-77 -35.667 -108 -48
s-66.833 -25.5 -107.5 -39.5v-187h-347zM537.999 -26.999c-79.333 0 -145.333 22.5 -198 67.5s-79 105.833 -79 182.5c0 75.333 25.833 135 77.5 179s118.167 66 199.5 66c84.667 0 153.667 -22 207 -66s80 -103.667 80 -179c0 -76.667 -27.5 -137.5 -82.5 -182.5
s-123.167 -67.5 -204.5 -67.5z" />
    <glyph glyph-name="at" unicode="@" horiz-adv-x="1899" 
d="M1399 398c16 0 30.3359 1.49805 43.0029 4.49805s26.667 10 42 21s28 26 38 45s18.333 46.333 25 82s10 77.834 10 126.501c0 133.333 -48.333 240 -145 320s-238.334 120 -425.001 120c-189.333 0 -335 -49.667 -437 -149s-153 -233 -153 -401
c0 -74 13.5 -142.833 40.5 -206.5s66.5 -119.667 118.5 -168s119.167 -86.333 201.5 -114s175.5 -41.5 279.5 -41.5c58 0 112.333 7.33301 163 22l52 -228c-73.333 -19.333 -145 -29 -215 -29c-149.333 0 -285 20.167 -407 60.5s-222.5 95.333 -301.5 165
s-139.833 150.667 -182.5 243s-64 191.166 -64 296.499c0 110.667 20.333 214.5 61 311.5s98.667 182.167 174 255.5s170.666 131.333 285.999 174s243.333 64 384 64c131.333 0 251.333 -18.167 360 -54.5s198.834 -86 270.501 -149s127 -136.667 166 -221
s58.5 -174.5 58.5 -270.5c0 -70 -10.833 -133.167 -32.5 -189.5s-55 -106 -100 -149s-104.833 -76.167 -179.5 -99.5s-162.334 -35 -263.001 -35h-150l-38 90c-23.333 -32.667 -55.166 -58.167 -95.499 -76.5s-79.5 -27.5 -117.5 -27.5
c-79.333 0 -146.833 36.5 -202.5 109.5s-83.5 169.167 -83.5 288.5c0 51.333 8 98.833 24 142.5s40.167 83.334 72.5 119.001s76.666 63.667 132.999 84s121.5 30.5 195.5 30.5c19.333 0 36.666 -0.333008 51.999 -1s37.5 -3.5 66.5 -8.5s54.5 -11.833 76.5 -20.5
s46.167 -22 72.5 -40s48 -39.167 65 -63.5s31.333 -56.166 43 -95.499s17.5 -83.333 17.5 -132zM923.003 581.998c0 -62 6.66602 -112.167 19.999 -150.5s31 -57.5 53 -57.5c36.667 0 64.334 11.667 83.001 35v262c0 55.333 -5.66699 93.5 -17 114.5s-31 31.5 -59 31.5
c-16.667 0 -30.5 -6.5 -41.5 -19.5s-19.167 -31.5 -24.5 -55.5s-9 -48.333 -11 -73s-3 -53.667 -3 -87z" />
    <glyph glyph-name="A" unicode="A" horiz-adv-x="1643" 
d="M1185 1623h-994.003v-353h212l-172 -679c-18 -70 -30.667 -113 -38 -129c-22 -50.667 -59 -82.334 -111 -95.001c-22.667 -5.33301 -48.667 -8 -78 -8v-359h678v359h-84c-14 0 -24.667 12 -32 36s-11 45.333 -11 64c0.666992 14 1.33398 24.667 2.00098 32
s3.33398 14.5 8.00098 21.5s11.334 10.5 20.001 10.5h275c44.667 0 67 -54.667 67 -164h-120l1 -359h826v359h-86c-10 0 -18.667 4.16699 -26 12.5s-12.833 17.833 -16.5 28.5s-8.16699 26.334 -13.5 47.001zM611.997 773l112 508l117 -508h-229z" />
    <glyph glyph-name="B" unicode="B" horiz-adv-x="1666" 
d="M89 0l942 0.00195312c86 0 163.5 7.66699 232.5 23s130.333 39.166 184 71.499s95.167 76 124.5 131s44 119.833 44 194.5c0 112.667 -27.333 205 -82 277s-132 122.333 -232 151v2c72.667 27.333 131.667 72.5 177 135.5s68 135.833 68 218.5
c0 66.667 -10 124.667 -30 174s-47.5 89.666 -82.5 120.999s-80 56.333 -135 75s-113.333 31.5 -175 38.5s-133.167 10.5 -214.5 10.5l-814 -1v-352h166l-1 -911h-172v-359zM863 700.002c19.333 0 36.6631 -0.833008 51.9961 -2.5s32.5 -6 51.5 -13s35 -16.5 48 -28.5
s24 -29 33 -51s13.5 -48 13.5 -78c0 -16.667 -1.16699 -32 -3.5 -46s-5.66602 -26.167 -9.99902 -36.5s-9.5 -19.833 -15.5 -28.5s-12.833 -15.834 -20.5 -21.501s-16.167 -10.667 -25.5 -15s-19.166 -7.66602 -29.499 -9.99902s-21.166 -4.33301 -32.499 -6
s-23.166 -2.83398 -35.499 -3.50098s-25 -1.16699 -38 -1.5s-26.167 -0.166016 -39.5 0.500977h-22v340c42 0.666992 66.667 1 74 1zM788.997 1270l126.001 0.000976562c37.333 0 69.666 -12 96.999 -36s41 -58.333 41 -103c0 -36.667 -5.5 -66.834 -16.5 -90.501
s-27.833 -41 -50.5 -52s-45.5 -18.333 -68.5 -22s-52.167 -5.5 -87.5 -5.5h-41v309z" />
    <glyph glyph-name="C" unicode="C" horiz-adv-x="1538" 
d="M1456 612l-300.998 -0.000976562c-2.66699 -49.333 -5.33398 -80.666 -8.00098 -93.999c-10 -53.333 -35.5 -95.833 -76.5 -127.5s-88.5 -47.5 -142.5 -47.5c-40.667 0 -76.334 7.33301 -107.001 22s-54.5 34.334 -71.5 59.001s-31.333 53 -43 85
s-18.834 65.333 -21.501 100s-5 69.5 -7 104.5s-2 67.5 0 97.5v44c0 31.333 0.333008 58 1 80s2.66699 49.333 6 82s8 60.5 14 83.5s15 47.167 27 72.5s26.167 46 42.5 62s37 29.167 62 39.5s53.167 15.5 84.5 15.5c42 0 79 -9.16699 111 -27.5s56.667 -42.5 74 -72.5
s30 -61.833 38 -95.5s11.667 -68.167 11 -103.5h298l-1 632h-311l-34 -71c-30 28.667 -67.5 50.834 -112.5 66.501s-85.167 25.167 -120.5 28.5s-77.666 5 -126.999 5c-94 0 -179.667 -16.333 -257 -49s-142 -76.334 -194 -131.001s-95.833 -118.834 -131.5 -192.501
s-61.5 -150.167 -77.5 -229.5s-24 -161.333 -24 -246c0 -168 28.5 -313.833 85.5 -437.5s143.667 -220.5 260 -290.5s257.166 -105 422.499 -105c69.333 0 138.5 8 207.5 24s127.833 35.167 176.5 57.5s92.334 44.833 131.001 67.5s67.667 42 87 58l29 24v410z" />
    <glyph glyph-name="D" unicode="D" horiz-adv-x="1801" 
d="M98 0l801.998 -0.000976562c134.667 0 256.334 22.333 365.001 67s197.334 104.834 266.001 180.501s121.334 162.167 158.001 259.5s55 200.333 55 309c0 264 -68.333 464.5 -205 601.5s-342.334 205.5 -617.001 205.5h-830v-352h169v-912h-163v-359zM807.998 358.999
l-0.000976562 912.001h47c49.333 0 92.333 -9.5 129 -28.5s65.334 -43 86.001 -72s37.167 -64.5 49.5 -106.5s20.5 -82.167 24.5 -120.5s6 -80.5 6 -126.5c0 -44.667 -2.5 -87 -7.5 -127s-14.5 -80.833 -28.5 -122.5s-32 -77.334 -54 -107.001s-51.5 -54 -88.5 -73
s-79.833 -28.5 -128.5 -28.5h-35z" />
    <glyph glyph-name="E" unicode="E" horiz-adv-x="1490" 
d="M1099 968l-76 302h-213v-282h205v-352h-205v-277h219l13 61l63 267h273v-687h-1279v359h158v911h-158v353h1268v-654z" />
    <glyph glyph-name="F" unicode="F" horiz-adv-x="1407" 
d="M1025 643h-202v-284h154v-359h-877v359h158v911h-158v353h1275v-664h-284l-64 311h-204v-271h202v-356z" />
    <glyph glyph-name="G" unicode="G" horiz-adv-x="1720" 
d="M1344 0l276.001 0.00195312v862h-625v-304l160 -1c5.33301 -19.333 8 -46.333 8 -81c0 -48.667 -19 -87.167 -57 -115.5s-82.333 -42.5 -133 -42.5c-210 0 -315 147 -315 441c0 42 1.33301 80.5 4 115.5s7.66699 73.667 15 116s18.5 79.666 33.5 111.999
s33.833 62.5 56.5 90.5s52 49.5 88 64.5s77.333 22.5 124 22.5c42 0 78.833 -6.16699 110.5 -18.5s57 -28 76 -47s35.167 -44.167 48.5 -75.5s23.166 -61.333 29.499 -90s11.833 -63.334 16.5 -104.001h288v678h-315l-44 -62c-85.333 60.667 -196.333 91 -333 91
c-127.333 0 -242.5 -22.667 -345.5 -68s-187.5 -107.333 -253.5 -186s-116.5 -169.667 -151.5 -273s-52.5 -214.333 -52.5 -333c0 -102.667 14.167 -198 42.5 -286s68.166 -164.5 119.499 -229.5s112.333 -120.5 183 -166.5s149 -80.667 235 -104s177.333 -35 274 -35
c166.667 0 298.334 43.333 395.001 130z" />
    <glyph glyph-name="H" unicode="H" horiz-adv-x="1908" 
d="M105 359h147v911h-147v353h809v-353h-95v-284h269v284h-88v353h798v-353h-141v-911h147v-359h-800v359h84v276h-269v-276h96l-1 -359h-809v359z" />
    <glyph glyph-name="I" unicode="I" horiz-adv-x="1076" 
d="M972 1270h-147v-911h141v-359h-862v359h147v911h-143v353h864v-353z" />
    <glyph glyph-name="J" unicode="J" horiz-adv-x="1314" 
d="M30 -13h270l37 92c59.333 -72.667 155.333 -109 288 -109c156 0 277.667 45.833 365 137.5s131 214.167 131 367.5v795h147v353h-854v-353h154v-698c0 -73.333 -9 -126.166 -27 -158.499s-46 -48.5 -84 -48.5c-16.667 0 -31.834 3.66699 -45.501 11s-24.667 16 -33 26
s-15.5 23.667 -21.5 41s-10.5 32.666 -13.5 45.999s-5.16699 30.666 -6.5 51.999s-2.16602 37.333 -2.49902 48s-0.5 25.334 -0.5 44.001h-304v-646z" />
    <glyph glyph-name="K" unicode="K" horiz-adv-x="1799" 
d="M105 1622l821 -0.000976562v-352h-127v-383l287 383v352l624 1v-353h-137l-319 -406v-14c52 0 98 -4 138 -12s76.167 -21 108.5 -39s57 -43.5 74 -76.5s25.5 -73.167 25.5 -120.5v-141c0 -23.333 6 -46.166 18 -68.499s28.333 -33.5 49 -33.5h90l6 -359h-348
c-224 -0 -336 102.333 -336 307v185c0 32 -10.667 64.667 -32 98s-47.333 50 -78 50h-170v-281h127l6 -324v-35h-827v359h147v911h-147v352z" />
    <glyph glyph-name="L" unicode="L" horiz-adv-x="1421" 
d="M818 359h191l87 350h286v-709h-1273l-1 359h143v911h-147v352h868v-352h-154v-911z" />
    <glyph glyph-name="M" unicode="M" horiz-adv-x="2408" 
d="M589 999l416.002 -999.001h281l342 977v-618h-123v-359h803v359h-154v911h147v353h-784l-276 -767l-310 767h-835l1 -353h167v-662v-50.5c0 -11 -0.5 -25.667 -1.5 -44s-2.5 -31.833 -4.5 -40.5s-4.83301 -19.667 -8.5 -33s-8.16699 -23.166 -13.5 -29.499
s-12.166 -13.5 -20.499 -21.5s-17.833 -13.667 -28.5 -17s-23.334 -6.33301 -38.001 -9s-31 -4 -49 -4v-359h651v359c-18 0 -34.333 1.16699 -49 3.5s-27.334 5 -38.001 8s-20 7.83301 -28 14.5l-20 17c-5.33301 4.66699 -9.83301 12.167 -13.5 22.5
s-6.33398 18.333 -8.00098 24s-3 15 -4 28s-1.5 22.5 -1.5 28.5v30v464z" />
    <glyph glyph-name="N" unicode="N" horiz-adv-x="1874" 
d="M1814 1622l-636.999 0.999023v-353c26 0.666992 48.667 -0.666016 68 -3.99902s34.5 -9.5 45.5 -18.5s19.833 -17.667 26.5 -26s11.167 -20 13.5 -35s3.66602 -26.5 3.99902 -34.5s0.5 -20 0.5 -36v-469l-496 976h-735v-351h157v-722c0 -25.333 -0.666992 -45.333 -2 -60
s-4.83301 -31.5 -10.5 -50.5s-14 -33.5 -25 -43.5s-27 -18.667 -48 -26s-46.833 -11 -77.5 -11v-359h637v359c-56.667 0 -97.167 11 -121.5 33s-36.5 60.333 -36.5 115v401l473 -908h606v1118c0 49.333 12.167 87 36.5 113s64.833 39 121.5 39v352z" />
    <glyph glyph-name="O" unicode="O" horiz-adv-x="1744" 
d="M1692 808c0 -156.667 -35.833 -299 -107.5 -427s-170.167 -228.333 -295.5 -301s-264.333 -109 -417 -109s-291.667 36.333 -417 109s-223.833 173 -295.5 301s-107.5 270.333 -107.5 427c0 172 35.833 322.5 107.5 451.5s169 226.833 292 293.5s263.833 100 422.5 100
c156 0 295.5 -33.333 418.5 -100s220.333 -164.5 292 -293.5s107.5 -279.5 107.5 -451.5zM872 319c26 0 49.3291 4.33105 69.9961 12.998s38.167 20.667 52.5 36s26.833 33.333 37.5 54s19 43.167 25 67.5s11 49.5 15 75.5s6.5 52.167 7.5 78.5s1.83301 52.166 2.5 77.499
s0.666992 49.333 0 72v30v35c-0.666992 24 -0.666992 49.333 0 76s-0.5 54.167 -3.5 82.5s-6.66699 55.833 -11 82.5s-11.833 52 -22.5 76s-23.167 45 -37.5 63s-33.166 32.167 -56.499 42.5s-49.666 15.5 -78.999 15.5c-26 0 -49.5 -4 -70.5 -12s-38.5 -19.167 -52.5 -33.5
s-26.5 -31 -37.5 -50s-19.333 -39.667 -25 -62s-10.667 -45.666 -15 -69.999s-6.83301 -48.666 -7.5 -72.999s-1.5 -48.166 -2.5 -71.499s-0.833008 -45.333 0.5 -66v-35v-30c0.666992 -20 0.666992 -41 0 -63s-0.166992 -44.833 1.5 -68.5s3.5 -47.167 5.5 -70.5
s5.5 -46.333 10.5 -69s10.833 -44 17.5 -64s15.334 -38.5 26.001 -55.5s22.834 -31.667 36.501 -44s30.167 -22 49.5 -29s40.333 -10.5 63 -10.5z" />
    <glyph glyph-name="P" unicode="P" horiz-adv-x="1651" 
d="M99 0l861 -0.00488281v359h-146v210c52.667 -6.66699 102.667 -10 150 -10c102 0 192.5 9.66699 271.5 29s148.333 50 208 92s105 98.833 136 170.5s45.833 156.834 44.5 255.501c-0.666992 56.667 -6.16699 108.334 -16.5 155.001s-24.5 86.834 -42.5 120.501
s-39.667 63.834 -65 90.501s-53.333 48.334 -84 65.001s-63.834 31 -99.501 43s-73.167 20.5 -112.5 25.5s-79.833 9.33301 -121.5 13s-84.167 5.16699 -127.5 4.5s-86.666 -0.666992 -129.999 0h-24.5h-21.5h-24h-651v-353h151v-911h-156v-359zM814 1270h84
c52 0 95.667 -14 131 -42s53 -72 53 -132c0 -134 -75.667 -201 -227 -201h-41v375z" />
    <glyph glyph-name="Q" unicode="Q" horiz-adv-x="1765" 
d="M893 -30c26.667 0 65.333 2.66992 116 8.00293l251 22h484v359h-163c80.667 135.333 121 284.666 121 447.999c0 129.333 -20.5 247.333 -61.5 354s-97.667 195.667 -170 267s-158.333 126.5 -258 165.5s-208.167 58.5 -325.5 58.5c-164 0 -309.5 -35.333 -436.5 -106
s-225 -169.5 -294 -296.5s-103.5 -271.833 -103.5 -434.5c0 -166.667 34.333 -313.834 103 -441.501s166.667 -226.834 294 -297.501s275 -106 443 -106zM669.999 777.003l0.000976562 118.502c0 37.667 1.33301 73.334 4 107.001s6.5 64.5 11.5 92.5s12.5 53.167 22.5 75.5
s22.667 41.166 38 56.499s34.333 27.166 57 35.499s49 12.5 79 12.5c34 0 63.5 -6.16699 88.5 -18.5s44.833 -31.833 59.5 -58.5s26.5 -52.167 35.5 -76.5s15.333 -57.5 19 -99.5s5.83398 -75 6.50098 -99s1 -57.667 1 -101v-47c2 -28.667 2.16699 -59.334 0.5 -92.001
s-3.5 -65.167 -5.5 -97.5s-7.5 -63.5 -16.5 -93.5s-20.333 -56.333 -34 -79s-32.834 -40.834 -57.501 -54.501s-53.334 -20.5 -86.001 -20.5c-26 0 -49.333 3 -70 9s-38.5 15.333 -53.5 28s-28 26.334 -39 41.001s-20 33.5 -27 56.5s-12.833 44.667 -17.5 65
s-8 45.5 -10 75.5s-3.5 56.333 -4.5 79s-1.5 51 -1.5 85z" />
    <glyph glyph-name="R" unicode="R" horiz-adv-x="1765" 
d="M912 359h-120.998v335h98c40 0 72.667 -5.66699 98 -17s44.166 -28.833 56.499 -52.5s20.666 -48.667 24.999 -75s6.5 -59.166 6.5 -98.499v-195c0 -27.333 2.66699 -52.5 8 -75.5s12 -42.833 20 -59.5s19.167 -31.5 33.5 -44.5s28 -23.667 41 -32s30 -15.5 51 -21.5
s39.167 -10.5 54.5 -13.5s35.5 -5.16699 60.5 -6.5s45 -2.16602 60 -2.49902s35.5 -0.5 61.5 -0.5h262v359c-37.333 0 -67.166 2.16699 -89.499 6.5s-38.833 11.666 -49.5 21.999s-17.5 21.166 -20.5 32.499s-4.5 26.666 -4.5 45.999v93c0 61.333 -21.333 112.333 -64 153
s-113.667 72.334 -213 95.001c114.667 21.333 203.167 63 265.5 125s93.5 141.333 93.5 238c0 82 -12.333 152.5 -37 211.5s-60.834 106 -108.501 141s-103 60.5 -166 76.5s-135.5 24 -217.5 24h-1015v-353h155v-911h-154v-360c364 0.666992 634 1 810 1v359zM785.002 920
l0.000976562 350.001h121c59.333 0 105.833 -15.833 139.5 -47.5s50.5 -73.834 50.5 -126.501c0 -33.333 -7 -62 -21 -86s-33.333 -42.333 -58 -55s-50.834 -21.667 -78.501 -27s-58.5 -8 -92.5 -8h-61z" />
    <glyph glyph-name="S" unicode="S" horiz-adv-x="1329" 
d="M874 1623c-18.667 -32 -29.333 -51.999 -32 -59.999c-79.333 60 -183.333 90 -312 90c-148.667 0 -261.834 -47 -339.501 -141s-116.5 -220.333 -116.5 -379c0 -44 3.16699 -85 9.5 -123s14.833 -72.333 25.5 -103s24.667 -59.5 42 -86.5s35.666 -50.833 54.999 -71.5
s42.333 -40.334 69 -59.001s52.834 -34.834 78.501 -48.501s55.5 -27.167 89.5 -40.5s66 -24.833 96 -34.5s64.667 -20.167 104 -31.5c24.667 -6.66699 45.334 -13.667 62.001 -21s32.334 -19.166 47.001 -35.499s22 -35.833 22 -58.5c0 -27.333 -10.833 -48.5 -32.5 -63.5
s-47.167 -22.5 -76.5 -22.5c-48.667 0 -95.334 18.5 -140.001 55.5s-75.667 79.833 -93 128.5h-322v-518h323l36 92c52 -44 101.833 -75.167 149.5 -93.5s107.5 -27.5 179.5 -27.5c70 0 135.5 15.167 196.5 45.5s112 70.5 153 120.5s73 107.333 96 172s33.833 131 32.5 199
c-1.33301 69.333 -10.833 132.166 -28.5 188.499s-40.834 103.333 -69.501 141s-61.334 71 -98.001 100s-75.167 52.333 -115.5 70s-80.666 33.5 -120.999 47.5s-78.666 26.167 -114.999 36.5s-68.5 20.833 -96.5 31.5s-50.167 23.334 -66.5 38.001s-24.5 32 -24.5 52
c0 30.667 8.33301 53.667 25 69s39.667 23 69 23c50 0 95.667 -20 137 -60s68 -86 80 -138h307v516h-285z" />
    <glyph glyph-name="T" unicode="T" horiz-adv-x="1535" 
d="M1215 965l-62 305h-106v-910h164v-360h-891v360h164v910h-100l-64 -305h-281v657h1457v-657h-281z" />
    <glyph glyph-name="U" unicode="U" 
d="M1485 1270h154.001v352h-654v-352h164v-734c0 -58.667 -17.333 -105 -52 -139s-82.667 -51 -144 -51c-34.667 0 -64.834 7.33301 -90.501 22s-45.334 34.5 -59.001 59.5s-23.667 51.833 -30 80.5s-9.5 59.334 -9.5 92.001v670h148v352h-869v-352h161v-566
c0 -58.667 2.5 -113 7.5 -163s14 -100.333 27 -151s29.833 -96.334 50.5 -137.001s47.334 -79 80.001 -115s70.5 -66 113.5 -90s94.167 -42.833 153.5 -56.5s125.333 -20.5 198 -20.5c114 0 220.333 22.667 319 68s178.667 110.5 240 195.5s92 180.167 92 285.5v750z" />
    <glyph glyph-name="V" unicode="V" horiz-adv-x="1668" 
d="M743 1270h116.001v352h-865v-352h166l361 -1270h584l354 1032l16.5 49l15 45c3 8.66699 7.66699 21 14 37s11.833 27.167 16.5 33.5l19 25.5c8 10.667 16.167 18 24.5 22s18.5 8.5 30.5 13.5s25.333 8.33301 40 10s31 2.5 49 2.5v352h-694v-352
c49.333 0 86.166 -7.83301 110.499 -23.5s36.833 -37.5 37.5 -65.5s-5 -61.333 -17 -100l-176 -564z" />
    <glyph glyph-name="W" unicode="W" horiz-adv-x="2460" 
d="M-4 1623l-1 -353.001h144l349 -1270h537l202 706l193 -706h543l321 1148c13.333 47.333 34.166 79.5 62.5 96.5c28.333 17 70.5 25.5 126.5 25.5v353h-651v-353c49.333 0 82 -4.16699 98 -12.5s20 -27.166 12 -56.499l-135 -498l-253 920h-409l-260 -951l-159 598h141
v353h-861z" />
    <glyph glyph-name="X" unicode="X" horiz-adv-x="1863" 
d="M1798 1623l-736.999 0.000976562v-353c15.333 0 33.5 -4.16699 54.5 -12.5s31.5 -18.833 31.5 -31.5c0 -10.667 -7.5 -29.5 -22.5 -56.5s-30.167 -51.5 -45.5 -73.5l-22 -32l-162 206h82v353h-878v-353h131l371 -408l-287 -369
c-40.667 -56.667 -80.167 -93.167 -118.5 -109.5s-100.833 -24.5 -187.5 -24.5v-359h828l-6 359h-84c-17.333 0 -32.333 5.66699 -45 17s-19 26 -19 44c0 9.33301 2.16699 20.5 6.5 33.5s9.16602 22.833 14.499 29.5l110 151l243 -275h-126v-359h899v359h-122l-429 470
l258 351c25.333 35.333 60 59.166 104 71.499s96.667 18.5 158 18.5v353z" />
    <glyph glyph-name="Y" unicode="Y" horiz-adv-x="1559" 
d="M1564 1622h-637v-352h22.5h21.5h18c7.33301 0 12.833 -0.5 16.5 -1.5l13 -3.5c5 -1.33301 8.66699 -3.33301 11 -6l7.5 -9c2.66699 -3.33301 4.5 -7.5 5.5 -12.5s1.5 -10.5 1.5 -16.5c0 -36.667 -38 -112.667 -114 -228c-14 20 -44.5 66.167 -91.5 138.5
s-77.833 118.5 -92.5 138.5h91v352h-852v-352h112l421 -598v-313h-155v-359h869v359h-157v365l204 371c16 30 27.833 51.5 35.5 64.5s18.167 28.5 31.5 46.5s26 30.5 38 37.5s26.833 13.167 44.5 18.5s38.167 8 61.5 8h74v352z" />
    <glyph glyph-name="Z" unicode="Z" horiz-adv-x="1607" 
d="M1495 1293l-677 -934h309l107 346h282l-1 -705h-1409l-1 350l679 920h-315l-80 -332h-288v684h1394v-329z" />
    <glyph glyph-name="bracketleft" unicode="[" horiz-adv-x="910" 
d="M145 0v1623h714v-301h-197v-1011h193l-1 -311h-709z" />
    <glyph glyph-name="backslash" unicode="\" horiz-adv-x="1031" 
d="M400 0l-342 1623h574l341 -1623h-573z" />
    <glyph glyph-name="bracketright" unicode="]" horiz-adv-x="909" 
d="M55 0l-1 311h193v1011h-197v301h714v-1623h-709z" />
    <glyph glyph-name="asciicircum" unicode="^" horiz-adv-x="1707" 
d="M1088 1624l496 -715h-465l-216 333l-216 -333h-465l496 715h370z" />
    <glyph glyph-name="underscore" unicode="_" horiz-adv-x="1165" 
d="M1179 -1v-223h-1193v223h1193z" />
    <glyph glyph-name="grave" unicode="`" horiz-adv-x="1016" 
d="M281 1708l474 -437l-104 -141l-554 313z" />
    <glyph glyph-name="a" unicode="a" horiz-adv-x="1294" 
d="M30 308c0 -99.333 37.833 -178.501 113.5 -237.501s167.5 -88.5 275.5 -88.5c54.667 0 111 12 169 36s103.667 57.667 137 101l50 -119h472v305h-76v445c0 46 -8.5 87.5 -25.5 124.5s-38 67.167 -63 90.5s-56.333 43.5 -94 60.5s-72.667 29.667 -105 38
s-69.333 14.833 -111 19.5s-73.5 7.33398 -95.5 8.00098s-46.667 1 -74 1c-71.333 0 -147.333 -5.83301 -228 -17.5s-143.334 -23.167 -188.001 -34.5l-67 -18v-314h175c48 63.333 119.667 95 215 95c140.667 0 211 -55.333 211 -166v-45
c-73.333 25.333 -158.666 38 -255.999 38c-55.333 0 -108.5 -6.83301 -159.5 -20.5s-97.167 -33.5 -138.5 -59.5s-74.5 -60 -99.5 -102s-37.5 -88.667 -37.5 -140zM520 325.999c0 28.667 10.332 54.5 30.999 77.5s45.334 34.5 74.001 34.5c14.667 0 30.167 -1.66699 46.5 -5
s29.166 -7 38.499 -11l14 -5v-147c-2.66699 -3.33301 -6.66699 -7.5 -12 -12.5s-17.333 -11.833 -36 -20.5s-38.667 -13 -60 -13c-29.333 0 -52.666 9.5 -69.999 28.5s-26 43.5 -26 73.5z" />
    <glyph glyph-name="b" unicode="b" horiz-adv-x="1401" 
d="M599 1631l-566 0.00390625v-306h84v-1325h450l40 102c65.333 -46.667 110.333 -76 135 -88c44 -21.333 91 -32 141 -32c62 0 119.167 10.333 171.5 31s96.833 48.667 133.5 84s67.834 76.666 93.501 123.999s44.5 97.666 56.5 150.999s18 108.666 18 165.999
c0 54 -5.83301 107.167 -17.5 159.5s-29.667 102.333 -54 150s-54 89.667 -89 126s-77.5 65.166 -127.5 86.499s-104.667 32 -164 32c-98.667 0 -200.334 -42.333 -305.001 -127v666zM603 662.004l5.5 10.501c2.33301 4.33301 7.83301 12 16.5 23s17.667 20.667 27 29
s21.833 16 37.5 23s31.834 10.5 48.501 10.5c26 0 48.5 -5.66699 67.5 -17s33.833 -25 44.5 -41s19.167 -35.5 25.5 -58.5s10.333 -44 12 -63s2.5 -38.833 2.5 -59.5c0 -61.333 -14.333 -108.5 -43 -141.5s-65 -49.5 -109 -49.5c-24 0 -47.333 5.66699 -70 17
s-39.334 22.666 -50.001 33.999l-15 17v266z" />
    <glyph glyph-name="c" unicode="c" horiz-adv-x="1110" 
d="M43 546c0 -118.667 24.499 -221.169 73.499 -307.502s114.667 -150.666 197 -192.999s176.166 -63.5 281.499 -63.5c84 0 167.333 12.167 250 36.5s147 59.5 193 105.5v301h-240c-0.666992 -3.33301 -1.5 -8 -2.5 -14s-4.33301 -16.5 -10 -31.5
s-12.667 -28.167 -21 -39.5s-20.666 -21.666 -36.999 -30.999s-35.166 -14 -56.499 -14c-28.667 0 -53.5 6.66699 -74.5 20s-37.167 31 -48.5 53s-19.5 45 -24.5 69s-7.5 49.333 -7.5 76c0 90 15.333 156.667 46 200s67 65 109 65c34 0 63 -14 87 -42s36 -64 36 -108h242
v444h-175l-41 -77c-80.667 64.667 -166.667 97 -258 97c-78 0 -150 -14.833 -216 -44.5s-120.833 -69.5 -164.5 -119.5s-77.667 -108 -102 -174s-36.5 -135.333 -36.5 -208z" />
    <glyph glyph-name="d" unicode="d" horiz-adv-x="1442" 
d="M1370 305l-77.0029 -0.000976562l-1 1335h-585v-305h90v-375c-45.333 46 -91.166 79.167 -137.499 99.5s-100.166 30.5 -161.499 30.5c-68.667 0 -132.167 -15.667 -190.5 -47s-106.5 -72.666 -144.5 -123.999s-67.5 -109 -88.5 -173s-31.5 -129.333 -31.5 -196
c0 -70 9.66699 -138 29 -204s47.333 -126.5 84 -181.5s85.334 -99.333 146.001 -133s128.667 -50.5 204 -50.5c60 0.666992 115.667 14 167 40s94 61.667 128 107v-128h569v305zM800.997 414.999l-5.5 -10.501c-2.33301 -4.33301 -7.83301 -12 -16.5 -23
s-17.667 -20.667 -27 -29s-21.833 -16 -37.5 -23s-31.834 -10.5 -48.501 -10.5c-26 0 -48.5 5.66699 -67.5 17s-33.833 25 -44.5 41s-19.167 35.5 -25.5 58.5s-10.333 44 -12 63s-2.5 38.833 -2.5 59.5c0 61.333 14.333 108.5 43 141.5s65 49.5 109 49.5
c24 0 47.333 -5.66699 70 -17s39.334 -22.666 50.001 -33.999l15 -17v-266z" />
    <glyph glyph-name="e" unicode="e" horiz-adv-x="1224" 
d="M611 -18c106.667 0 202.502 11.001 287.502 33.001s171.5 59.333 259.5 112v224h-307c-1.33301 -39.333 -13 -70.666 -35 -93.999s-57 -35 -105 -35c-54.667 0 -97.834 22.167 -129.501 66.5s-47.5 100.166 -47.5 167.499h602c12.667 -5.33301 20.5 -6.83301 23.5 -4.5
s7.5 13.166 13.5 32.499c3.33301 24.667 5 48.334 5 71.001c0 100 -20.833 190 -62.5 270s-104.834 144.5 -189.501 193.5s-184.334 73.5 -299.001 73.5c-120 0 -224.833 -24.833 -314.5 -74.5s-157.5 -117.334 -203.5 -203.001s-69 -183.5 -69 -293.5
c0 -98 24.333 -188 73 -270s116.834 -147.333 204.501 -196s185.5 -73 293.5 -73zM536.002 656.001c0 40.667 9 77.167 27 109.5s45 48.5 81 48.5c24.667 0 45 -5.83301 61 -17.5s27 -28.334 33 -50.001s9.83301 -41.167 11.5 -58.5s2.16699 -37.666 1.5 -60.999h-215v29z
" />
    <glyph glyph-name="f" unicode="f" horiz-adv-x="875" 
d="M175 1207c1.33301 -88 2.00098 -132.999 2.00098 -134.999h-83v-311h84v-456h-84v-305h680v305h-110v456h172v311h-179c-4 72 2.83301 122.167 20.5 150.5s47.5 42.5 89.5 42.5c25.333 0 57.333 -4.33301 96 -13v311c-9.33301 3.33301 -22.833 7.66602 -40.5 12.999
s-53.334 12.333 -107.001 21s-107.167 13 -160.5 13c-253.333 0 -380 -134.333 -380 -403z" />
    <glyph glyph-name="g" unicode="g" horiz-adv-x="1414" 
d="M564 -389c462.667 0 694 174.666 694 523.999v626h87v311h-453l-33 -75c-115.333 62 -223.666 93 -324.999 93c-92.667 0 -176.834 -26.167 -252.501 -78.5s-134 -119.666 -175 -201.999s-61.5 -169.5 -61.5 -261.5c0 -68.667 10.5 -134 31.5 -196
s51.167 -117.167 90.5 -165.5s89.666 -86.833 150.999 -115.5s129.333 -43 204 -43c51.333 0 102.333 7.83301 153 23.5s95.334 37.5 134.001 65.5c0 -42.667 -5.66699 -77.667 -17 -105s-29.5 -48.166 -54.5 -62.499s-52.667 -24 -83 -29s-68.5 -7.5 -114.5 -7.5
c-118.667 0 -240 22.667 -364 68v-309c8.66699 -4.66699 22.167 -10.334 40.5 -17.001s61 -15.667 128 -27s140.167 -17 219.5 -17zM528 531.999c0 40.667 3.83301 77.1689 11.5 109.502s22.167 60.166 43.5 83.499s48.666 35 81.999 35c32 0 59.333 -12.833 82 -38.5
s38.5 -55.667 47.5 -90s13.5 -70.5 13.5 -108.5c0 -24.667 -2.5 -49.334 -7.5 -74.001s-12.5 -48.5 -22.5 -71.5s-24.167 -41.833 -42.5 -56.5s-39.166 -22 -62.499 -22c-35.333 0 -64.333 12.333 -87 37s-38 53.5 -46 86.5s-12 69.5 -12 109.5z" />
    <glyph glyph-name="h" unicode="h" horiz-adv-x="1451" 
d="M71 0l652.999 -0.000976562v305h-80v321c0 78.667 33.667 118 101 118c54.667 0 82.334 -41.667 83.001 -125v-619h576v305h-86v397c0 126 -31.333 222.167 -94 288.5s-150.667 99.5 -264 99.5c-23.333 0 -45.833 -2 -67.5 -6s-40 -8.16699 -55 -12.5
s-31.667 -12.166 -50 -23.499s-31.833 -20 -40.5 -26s-21.667 -17.5 -39 -34.5s-28.5 -28.167 -33.5 -33.5l-34.5 -38v724h-573v-308h84v-1027h-79z" />
    <glyph glyph-name="i" unicode="i" horiz-adv-x="814" 
d="M661 1072h-570v-311h89v-456h-82v-305h647v305h-84v767zM380 1135c-79.333 0 -145.333 22.5 -198 67.5s-79 105.833 -79 182.5c0 75.333 25.833 135 77.5 179s118.167 66 199.5 66c84.667 0 153.667 -22 207 -66s80 -103.667 80 -179
c0 -76.667 -27.5 -137.5 -82.5 -182.5s-123.167 -67.5 -204.5 -67.5z" />
    <glyph glyph-name="j" unicode="j" horiz-adv-x="772" 
d="M49 -72l2.00098 -325.997c115.333 0 212.166 10.667 290.499 32s140.5 54.666 186.5 99.999s78.667 99.666 98 162.999s29 140.666 29 231.999v943h-589v-312h90v-769c0 -24.667 -11.833 -42 -35.5 -52s-47.5 -13.667 -71.5 -11zM371.001 1135
c-79.333 0 -145.333 22.5 -198 67.5s-79 105.833 -79 182.5c0 75.333 25.833 135 77.5 179s118.167 66 199.5 66c84.667 0 153.667 -22 207 -66s80 -103.667 80 -179c0 -76.667 -27.5 -137.5 -82.5 -182.5s-123.167 -67.5 -204.5 -67.5z" />
    <glyph glyph-name="k" unicode="k" horiz-adv-x="1413" 
d="M646 438v-438h-577v305h83v1025h-84v304h578v-1047l201 174h-95v311h584v-311h-151l-143 -117v-26l227 -313h115v-305h-453z" />
    <glyph glyph-name="l" unicode="l" horiz-adv-x="794" 
d="M644 305h78v-305h-647v305h74v1012h-84v313h579v-1325z" />
    <glyph glyph-name="m" unicode="m" horiz-adv-x="2073" 
d="M830 0l0.00390625 638.001c0 66.667 -37.333 100 -112 100c-23.333 0 -42 -6.83301 -56 -20.5s-24.833 -30.5 -32.5 -50.5s-12.834 -41.5 -15.501 -64.5s-4 -43.5 -4 -61.5v-238h80v-303h-595v299h73v462h-74v311h516v-170c22.667 31.333 48.5 58.833 77.5 82.5
s59.5 43.5 91.5 59.5s64.667 28 98 36s66 12 98 12c56 0 107.5 -17.333 154.5 -52s84.833 -84.334 113.5 -149.001c90 134 206.333 201 349 201c46.667 0 91.167 -6.66699 133.5 -20s79.5 -34.5 111.5 -63.5s57.5 -66.5 76.5 -112.5s28.5 -101.667 28.5 -167v-424h74v-305
h-529v635c-3.33301 32 -13.333 58 -30 78s-40 30 -70 30c-21.333 0 -39.333 -4.16699 -54 -12.5s-26.834 -20 -36.501 -35s-16.834 -32.5 -21.501 -52.5s-7.33398 -41.333 -8.00098 -64v-274h85v-305h-522z" />
    <glyph glyph-name="n" unicode="n" horiz-adv-x="1483" 
d="M661 1072h-562.998v-311h76v-456h-83v-305h658v305h-88v319c0 31.333 9.5 58 28.5 80s44.167 33 75.5 33c24 0 45 -10.333 63 -31s27 -47 27 -79v-627h574v305h-80v375c0 274.667 -110 412 -330 412c-78.667 0 -148.834 -15.167 -210.501 -45.5
s-110.834 -73.833 -147.501 -130.5v156z" />
    <glyph glyph-name="o" unicode="o" horiz-adv-x="1290" 
d="M43 547c0 173.333 53.668 307.333 161.001 402s254 142 440 142c187.333 0 334.666 -47.333 441.999 -142s161 -228.667 161 -402c0 -116.667 -25.5 -218 -76.5 -304s-121.667 -151 -212 -195s-194.833 -66 -313.5 -66s-223.167 22 -313.5 66s-161 109 -212 195
s-76.5 187.333 -76.5 304zM508.001 545c0 -167.333 45.665 -251 136.998 -251s137 83.667 137 251c0 34 -1.5 62.833 -4.5 86.5s-8.83301 47.834 -17.5 72.501s-22.667 43.334 -42 56.001s-43.666 19 -72.999 19s-53.666 -6.33301 -72.999 -19s-33.333 -31.334 -42 -56.001
s-14.5 -48.834 -17.5 -72.501s-4.5 -52.5 -4.5 -86.5z" />
    <glyph glyph-name="p" unicode="p" horiz-adv-x="1438" 
d="M740 -397l0.00195312 301h-111v215c27.333 -22 47.666 -37.833 60.999 -47.5s34.5 -23 63.5 -40s58.667 -29.333 89 -37s62.833 -11.5 97.5 -11.5c72.667 0 138.5 15.833 197.5 47.5s106.667 74 143 127s64.166 112.333 83.499 178s29 134.167 29 205.5
c0 72 -10 141 -30 207s-48.5 124.667 -85.5 176s-84.5 92.333 -142.5 123s-122.333 46 -193 46c-62 0 -115.5 -10.833 -160.5 -32.5s-88.833 -56.5 -131.5 -104.5h-10v116h-564v-311h74v-855h-84v-303h674zM629.002 417l0.00292969 228.001c0.666992 2.66699 1.66699 6 3 10
s5.33301 11.5 12 22.5s14.5 20.667 23.5 29s21.667 15.833 38 22.5s34.833 10 55.5 10c108.667 0 163 -64.667 163 -194c0 -29.333 -2.5 -56.833 -7.5 -82.5s-13.333 -50.5 -25 -74.5s-28.834 -43 -51.501 -57s-50 -21 -82 -21c-21.333 0 -40.333 3.66699 -57 11
s-29.334 16.333 -38.001 27s-15.834 21.167 -21.501 31.5s-9.16699 19.166 -10.5 26.499z" />
    <glyph glyph-name="q" unicode="q" horiz-adv-x="1438" 
d="M715 -397l-0.000976562 301h111v224l-47 -39.5c-9.33301 -7.66699 -26 -19.834 -50 -36.501s-45 -28.834 -63 -36.501s-40.667 -15 -68 -22s-55 -10.5 -83 -10.5c-61.333 0 -117.333 11 -168 33s-93.334 51.833 -128.001 89.5s-64 81.834 -88 132.501
s-41.5 103.834 -52.5 159.501s-16.5 113.5 -16.5 173.5c0 68 10.833 133.333 32.5 196s51.834 118.167 90.501 166.5s87.334 86.833 146.001 115.5s122.667 43 192 43c64.667 0 119.5 -8.33301 164.5 -25s90.833 -44 137.5 -82h10l64 87h480v-311h-74v-855h84v-304z
M825.999 526c4 20.667 4.16602 44.999 0.499023 72.999s-9.16699 54.5 -16.5 79.5s-21.166 46.167 -41.499 63.5s-45.166 26 -74.499 26c-95.333 0 -143 -71.333 -143 -214c0 -38.667 3.66699 -73.667 11 -105s22.5 -59.166 45.5 -83.499s52.833 -36.5 89.5 -36.5
c29.333 0 54.166 11 74.499 33s34.5 47.333 42.5 76s12 58 12 88z" />
    <glyph glyph-name="r" unicode="r" horiz-adv-x="1000" 
d="M94 1072h543v-163l4 -4c32.667 56 79.667 99.667 141 131s125 47 191 47v-416l-106 7c-73.333 0 -131 -21.167 -173 -63.5s-63 -103.833 -63 -184.5v-121h137v-305h-674v305h79v456h-79v311z" />
    <glyph glyph-name="s" unicode="s" horiz-adv-x="1055" 
d="M976 761l-0.00292969 320h-168l-27 -48c-6.66699 4.66699 -16.667 10.167 -30 16.5s-45.333 15 -96 26s-106.667 16.5 -168 16.5c-80.667 0 -151.167 -11.667 -211.5 -35s-108.833 -61.5 -145.5 -114.5s-55 -118.5 -55 -196.5c0 -51.333 9.16699 -96.333 27.5 -135
s42 -69.334 71 -92.001s61 -42.167 96 -58.5s70.167 -30.166 105.5 -41.499s67.5 -22.333 96.5 -33s52.667 -24.167 71 -40.5s27.5 -35.833 27.5 -58.5c0 -25.333 -11.167 -44.666 -33.5 -57.999s-47.166 -20 -74.499 -20c-44 0 -81.333 18.167 -112 54.5
s-50 77.5 -58 123.5h-221l-7 -378h177l36 67c66.667 -62.667 169.334 -94 308.001 -94c135.333 0 237.666 35 306.999 105s104 172.667 104 308c0 150.667 -80.333 258.667 -241 324c-9.33301 3.33301 -29.666 9 -60.999 17s-58.666 15.667 -81.999 23
s-45 18.666 -65 33.999s-30 33 -30 53c0 23.333 9.16699 41.5 27.5 54.5s39.833 19.5 64.5 19.5c22.667 0 45.667 -6 69 -18s41.333 -27.333 54 -46c2.66699 -3.33301 7.66699 -13 15 -29l20 -45l8 -21h201z" />
    <glyph glyph-name="t" unicode="t" horiz-adv-x="873" 
d="M837 348c-42 -9.33301 -78 -14 -108 -14c-37.333 0 -63 10.833 -77 32.5s-21 45.5 -21 71.5l1 323h152v311h-152v334l-487 -105v-229h-103v-311h108l-1 -376c-1.33301 -268.667 125.334 -403 380.001 -403c53.333 0 105.666 5.5 156.999 16.5s89.333 22.167 114 33.5
l37 17v299z" />
    <glyph glyph-name="u" unicode="u" horiz-adv-x="1465" 
d="M821 156c-36.667 -56.667 -85.832 -99.834 -147.499 -129.501s-131.834 -44.5 -210.501 -44.5c-220 0 -330 134.333 -330 403v376h-80v311h574v-634c0 -35.333 9 -64.166 27 -86.499s39 -33.5 63 -33.5c31.333 0 56.5 11.5 75.5 34.5s28.5 51.5 28.5 85.5v323h-81v311
h575v-767h76v-305h-570v156z" />
    <glyph glyph-name="v" unicode="v" horiz-adv-x="1314" 
d="M762 1072l0.000976562 -310.999c40 0 69.167 -6.33301 87.5 -19s22.166 -33.334 11.499 -62.001l-131 -342l-169 423h91v311h-644v-311h74l320 -761h473l291 682c11.333 27.333 27 47.333 47 60s52 19 96 19v311h-547z" />
    <glyph glyph-name="w" unicode="w" horiz-adv-x="1929" 
d="M797 0l151.001 430l130 -430h475l153 483l16.5 57.5c7 25 12.667 44.333 17 58s10.5 30.5 18.5 50.5s16.333 35.5 25 46.5s19.5 22.167 32.5 33.5s28.333 19.5 46 24.5s37.5 7.5 59.5 7.5v311h-557v-311c8 0 14.833 -0.166992 20.5 -0.5s12.667 -0.666016 21 -0.999023
s15.166 -1.33301 20.499 -3s11.333 -3.66699 18 -6s11.667 -5.5 15 -9.5s6.33301 -8.66699 9 -14s4 -11.833 4 -19.5s-1.33301 -16.167 -4 -25.5l-85 -302c-12.667 33.333 -37.167 107.666 -73.5 222.999l-99.5 321l-45 148h-266l-210 -680l-113 369h114v311h-664v-311h69
l258 -761h444z" />
    <glyph glyph-name="x" unicode="x" horiz-adv-x="1199" 
d="M1166 0h-453l-189 277l-207 -277h-277v305h131l180 207l-182 249h-109v311h474l162 -251l185 251h254v-311h-110l-163 -181l193 -275h111v-305z" />
    <glyph glyph-name="y" unicode="y" horiz-adv-x="1377" 
d="M360 -377h690.999v295h-232l378 710c14 26.667 24.333 45.5 31 56.5s17 23.833 31 38.5s30 24.667 48 30s40 8 66 8v311h-580v-311c46.667 0 76.667 -3.33301 90 -10c24.667 -13.333 26.334 -43 5.00098 -89l-97 -208l-176 307h68v311h-680v-311h88l466 -730z" />
    <glyph glyph-name="z" unicode="z" horiz-adv-x="1214" 
d="M64 0h1085v451h-183c-6.66699 -24.667 -13.5 -45.167 -20.5 -61.5s-15.667 -30 -26 -41s-19.666 -19.333 -27.999 -25s-21.5 -10 -39.5 -13s-33.5 -4.66699 -46.5 -5s-33.5 -0.5 -61.5 -0.5h-101v11l469 479v277h-1022v-436h197c0 15.333 1.16699 29 3.5 41
s6.5 22.333 12.5 31s11.833 16.167 17.5 22.5s14.334 11.333 26.001 15l29.5 9c8 2.33301 20.333 3.83301 37 4.5s30 1.16699 40 1.5s25 0.5 45 0.5h60v-11l-494 -467v-283z" />
    <glyph glyph-name="braceleft" unicode="{" horiz-adv-x="873" 
d="M169 1128c0 78.667 13.167 152.164 39.5 220.497s65.166 129.333 116.499 183s119 95.834 203 126.501s179.667 46 287 46v-331c-108 0 -162 -82 -162 -246c0 -127.333 -83.667 -222 -251 -284c167.333 -61.333 251 -155.666 251 -282.999c0 -164 54 -246 162 -246v-331
c-107.333 0 -203 15.333 -287 46s-151.667 72.834 -203 126.501s-90.166 114.667 -116.499 183s-39.5 141.833 -39.5 220.5c0 21.333 -1.83301 40 -5.5 56s-10.667 32.5 -21 49.5s-27.166 30.5 -50.499 40.5s-52.666 15.667 -87.999 17v243
c35.333 1.33301 64.666 7 87.999 17s40.166 23.5 50.499 40.5s17.333 33.5 21 49.5s5.5 34.667 5.5 56z" />
    <glyph glyph-name="bar" unicode="|" horiz-adv-x="685" 
d="M540 1623v-1623h-395v1623h395z" />
    <glyph glyph-name="braceright" unicode="}" horiz-adv-x="872" 
d="M704 1128c0 -21.333 1.83301 -39.9971 5.5 -55.9971s10.667 -32.5 21 -49.5s27.166 -30.5 50.499 -40.5s52.666 -15.667 87.999 -17v-243c-35.333 -1.33301 -64.666 -7 -87.999 -17s-40.166 -23.5 -50.499 -40.5s-17.333 -33.5 -21 -49.5s-5.5 -34.667 -5.5 -56
c0 -78.667 -13.167 -152.167 -39.5 -220.5s-65.166 -129.333 -116.499 -183s-119 -95.834 -203 -126.501s-179.667 -46 -287 -46v331c108 0 162 82 162 246c0 127.333 83.667 221.666 251 282.999c-167.333 62 -251 156.667 -251 284c0 164 -54 246 -162 246v331
c107.333 0 203 -15.333 287 -46s151.667 -72.834 203 -126.501s90.166 -114.667 116.499 -183s39.5 -141.833 39.5 -220.5z" />
    <glyph glyph-name="asciitilde" unicode="~" horiz-adv-x="1289" 
d="M914 629c-36.667 0 -74.832 7.00293 -114.499 21.0029s-76.834 30.833 -111.501 50.5l-101.5 59.5c-33 20 -67 37 -102 51s-67.167 21 -96.5 21c-18 0 -39.667 -11.333 -65 -34s-74.333 -77.334 -147 -164.001l-131 86c16 24.667 34.167 58 54.5 100
s38.833 78.5 55.5 109.5s36.334 62.333 59.001 94s49.5 56 80.5 73s65.833 25.5 104.5 25.5c36.667 0 74.834 -6.83301 114.501 -20.5s76.834 -30.334 111.501 -50.001l102.5 -58.5c33.667 -19.333 68.167 -35.833 103.5 -49.5s67.666 -20.5 96.999 -20.5
c16.667 0 38.5 11.667 65.5 35s74.833 76.333 143.5 159l129 -85c-16 -24 -34.167 -56.833 -54.5 -98.5l-55 -110c-16.333 -31.667 -35.833 -63.334 -58.5 -95.001s-49.334 -56.167 -80.001 -73.5s-65.334 -26 -104.001 -26z" />
    <glyph glyph-name="uni00A0" unicode="&#xa0;" horiz-adv-x="480" 
 />
    <glyph glyph-name="exclamdown" unicode="&#xa1;" horiz-adv-x="804" 
d="M611 1072l-421 2l-82 -775v-299h587v299zM400 1158c-79.333 0 -145.333 22.5 -198 67.5s-79 105.833 -79 182.5c0 75.333 25.833 135 77.5 179s118.167 66 199.5 66c84.667 0 153.667 -22 207 -66s80 -103.667 80 -179c0 -76.667 -27.5 -137.5 -82.5 -182.5
s-123.167 -67.5 -204.5 -67.5z" />
    <glyph glyph-name="cent" unicode="&#xa2;" horiz-adv-x="1149" 
d="M733 1362l0.00195312 -304.999c33.333 -15.333 66.666 -36 99.999 -62l41 77h175v-444h-242c0 32.667 -6.83301 61.167 -20.5 85.5s-31.5 41.833 -53.5 52.5v-461c12.667 5.33301 24 13.333 34 24s17.667 21 23 31s9.66602 20.667 12.999 32s5.5 19 6.5 23
s1.5 7.33301 1.5 10h240v-301c-68.667 -68.667 -174.667 -113 -318 -133v-252h-112v243h-13c-105.333 0 -199.166 21.167 -281.499 63.5s-148 106.666 -197 192.999s-73.5 188.833 -73.5 307.5c0 72.667 12.167 142 36.5 208s58.333 124 102 174s98.5 89.833 164.5 119.5
s138 44.5 216 44.5c15.333 0 30.666 -1 45.999 -3v273h112zM529.002 513.001c0 -44.667 7.33301 -86 22 -124s38 -64.667 70 -80v450c-61.333 -38.667 -92 -120.667 -92 -246z" />
    <glyph glyph-name="sterling" unicode="&#xa3;" horiz-adv-x="1285" 
d="M745 365l31.001 -8.99902c21.333 -5.33301 56.666 -10.833 105.999 -16.5s102.333 -8.5 159 -8.5c50.667 0 109 3 175 9v-311c-91.333 -31.333 -182 -47 -272 -47c-169.333 0 -254 57 -254 171c-69.333 -114.667 -183.333 -172 -342 -172c-74.667 0 -169 16 -283 48v311
c38.667 -8.66699 70.667 -13 96 -13c41.333 0 70 13.833 86 41.5s24 78.167 24 151.5v240h-124v233h124v214c0 57.333 11.833 109.166 35.5 155.499s54.667 84.5 93 114.5s83.666 55.167 135.999 75.5s105.833 34.833 160.5 43.5s111 13 169 13
c123.333 0 229 -15.333 317 -46v-311c-81.333 8.66699 -150.666 13 -207.999 13c-74 0 -130.667 -11.167 -170 -33.5s-59 -60.5 -59 -114.5v-124h253v-233h-253v-241v-154z" />
    <glyph glyph-name="currency" unicode="&#xa4;" horiz-adv-x="1292" 
d="M70 1097c0 140 38.333 257.668 115 353.001l-67 68l103 103l71 -72c102 70 219.333 105 352 105c136.667 0 256 -36.667 358 -110l77 77l103 -103l-74 -74c73.333 -94.667 110 -210.334 110 -347.001c0 -142 -39 -260.667 -117 -356l81 -81l-103 -103l-86 86
c-100.667 -68.667 -217 -103 -349 -103c-129.333 0 -243.333 32.667 -342 98l-81 -81l-103 103l74 74c-81.333 96.667 -122 217.667 -122 363zM991 1269c-21.333 52 -50.167 93.835 -86.5 125.502s-76.833 56 -121.5 73s-91 25.5 -139 25.5s-94.333 -8.5 -139 -25.5
s-85.167 -41.333 -121.5 -73s-65.333 -73.334 -87 -125.001s-32.5 -109.167 -32.5 -172.5s10.833 -120.833 32.5 -172.5s50.667 -93.334 87 -125.001s76.833 -56 121.5 -73s91 -25.5 139 -25.5s94.333 8.5 139 25.5s85.167 41.333 121.5 73s65.333 73.334 87 125.001
s32.5 109.167 32.5 172.5s-11 120.666 -33 171.999z" />
    <glyph glyph-name="yen" unicode="&#xa5;" horiz-adv-x="1708" 
d="M171 936l-0.00195312 -174h359l63 -90v-42h-422v-174h422v-85h-155v-371h869v371h-157v85h414v174h-414v132h414v174h-311l101 159l36 65c7.33301 12.667 17.833 28.167 31.5 46.5s26.334 31 38.001 38s26.334 13.333 44.001 19s38.167 8.5 61.5 8.5h74v350h-637v-350
c50 0 80 -2 90 -6c18 -6 27 -21 27 -45c0 -36.667 -38 -112.667 -114 -228l-91.5 141c-47 73.333 -77.833 120 -92.5 140h91v348h-852v-348h112l236 -338h-237z" />
    <glyph glyph-name="brokenbar" unicode="&#xa6;" horiz-adv-x="687" 
d="M541 721v-721h-395v721h395zM541 1623v-721h-395v721h395z" />
    <glyph glyph-name="section" unicode="&#xa7;" horiz-adv-x="1080" 
d="M76 837c0 56.667 18.665 108.666 55.998 155.999s86.666 82 147.999 104c-110 79.333 -165 165.666 -165 258.999c0 78.667 33.833 145.334 101.5 200.001s150.834 82 249.501 82c34.667 0 67.667 -2.33301 99 -7s56.166 -10 74.499 -16s35.333 -12.667 51 -20
s25.667 -12.5 30 -15.5s7.5 -5.5 9.5 -7.5l27 51h168v-323h-201l-43 95c-11.333 21.333 -26.5 38.5 -45.5 51.5s-38.167 19.5 -57.5 19.5c-21.333 0 -40.5 -7.83301 -57.5 -23.5s-25.5 -37.5 -25.5 -65.5c0 -18.667 9.5 -37.667 28.5 -57s43.833 -38 74.5 -56l101 -57
c36.667 -20 73.334 -42 110.001 -66s70.334 -49.5 101.001 -76.5s55.5 -58.667 74.5 -95s28.5 -74.5 28.5 -114.5c0 -69.333 -18.667 -131.666 -56 -186.999s-89.333 -93 -156 -113c107.333 -65.333 161 -151.666 161 -258.999c0 -80.667 -34.333 -153.167 -103 -217.5
s-153 -96.5 -253 -96.5c-63.333 0 -118.5 5.5 -165.5 16.5s-87.833 34.167 -122.5 69.5l-36 -67h-170v378h221c8 -45.333 28.333 -85 61 -119s72.334 -51 119.001 -51c22.667 0 43 6.66699 61 20s27 32.666 27 57.999c0 24 -9.66699 47.833 -29 71.5
s-44.5 45.834 -75.5 66.501s-65.167 41.667 -102.5 63s-74.5 44.166 -111.5 68.499s-71 49.833 -102 76.5s-56.167 57.667 -75.5 93s-29 72.333 -29 111zM496.998 987.999c-68 -33.333 -102.001 -69.999 -102.001 -109.999c0 -32 22.833 -64.333 68.5 -97
s103.834 -63.334 174.501 -92.001c57.333 36.667 86 80.667 86 132c0 32.667 -22.167 64 -66.5 94s-97.833 54.333 -160.5 73z" />
    <glyph glyph-name="dieresis" unicode="&#xa8;" horiz-adv-x="1707" 
d="M720 1342c0 -72 -22.167 -128.333 -66.5 -169s-96.833 -61 -157.5 -61c-62 0 -115.5 20.5 -160.5 61.5s-67.5 98.167 -67.5 171.5c0 71.333 22.333 127 67 167s97.667 60 159 60s114.333 -20.167 159 -60.5s67 -96.833 67 -169.5zM1337 1342
c0 -72 -22.167 -128.333 -66.5 -169s-96.833 -61 -157.5 -61c-62 0 -115.5 20.5 -160.5 61.5s-67.5 98.167 -67.5 171.5c0 71.333 22.333 127 67 167s97.667 60 159 60s114.333 -20.167 159 -60.5s67 -96.833 67 -169.5z" />
    <glyph glyph-name="copyright" unicode="&#xa9;" horiz-adv-x="1806" 
d="M129 1106c44.667 100 104.5 186.167 179.5 258.5s164.333 130 268 173s212.5 64.5 326.5 64.5s222.833 -21.5 326.5 -64.5s193 -100.667 268 -173s134.667 -158.5 179 -258.5s66.5 -204.667 66.5 -314s-22.167 -214 -66.5 -314s-104 -186.167 -179 -258.5
s-164.333 -130 -268 -173s-212.5 -64.5 -326.5 -64.5s-222.833 21.5 -326.5 64.5s-193 100.667 -268 173s-134.667 158.5 -179 258.5s-66.5 204.667 -66.5 314s22 214 66 314zM903 1448c-90 0 -176 -17.335 -258 -52.002s-152.833 -81.334 -212.5 -140.001
s-107.167 -128.5 -142.5 -209.5s-53 -165.833 -53 -254.5s17.667 -173.5 53 -254.5s82.833 -150.833 142.5 -209.5s130.5 -105.334 212.5 -140.001s168 -52 258 -52c120 0 231.167 29.333 333.5 88s183.333 138.334 243 239.001s89.5 210.334 89.5 329.001
s-29.833 228.334 -89.5 329.001s-140.667 180.334 -243 239.001s-213.5 88 -333.5 88zM1275 397.998l-18.001 -15.0049c-12 -10 -30.333 -22.167 -55 -36.5s-52.334 -28.666 -83.001 -42.999s-68 -26.5 -112 -36.5s-88 -15 -132 -15c-157.333 0 -277.833 47.333 -361.5 142
s-125.5 223.334 -125.5 386.001c0 53.333 5 105.333 15 156s26.333 99.334 49 146.001s50.5 87.334 83.5 122.001s74.167 62.334 123.5 83.001s103.666 31 162.999 31c108 0 184 -21.333 228 -64l22 45h197v-401h-189c0.666992 30.667 -3.33301 59.667 -12 87
s-24.667 51.333 -48 72s-52.666 31 -87.999 31c-23.333 0 -43.666 -4 -60.999 -12s-31.333 -19.833 -42 -35.5s-19.334 -31.667 -26.001 -48s-11.5 -36.333 -14.5 -60s-4.83301 -43.834 -5.5 -60.501s-1 -36.667 -1 -60c0 -4.66699 -0.166992 -16.5 -0.5 -35.5
s-0.333008 -32.667 0 -41s0.833008 -22.166 1.5 -41.499s2 -34.166 4 -44.499s4.83301 -23.833 8.5 -40.5s8.16699 -29.834 13.5 -39.501s12 -20.334 20 -32.001s17.167 -20.667 27.5 -27s22.5 -11.666 36.5 -15.999s29.667 -6.5 47 -6.5
c34.667 0 64.834 9.83301 90.501 29.5s41.834 46.5 48.501 80.5c2 8.66699 3.66699 28.667 5 60h191v-260z" />
    <glyph glyph-name="ordfeminine" unicode="&#xaa;" horiz-adv-x="999" 
d="M37 1046c0 38 9.16504 72.4961 27.498 103.496s42.833 56.167 73.5 75.5s64.834 34 102.501 44s76.834 15 117.501 15c72 0 135 -9.33301 189 -28v33c0 81.333 -52 122 -156 122c-70 0 -122.667 -23.333 -158 -70h-130v232l50 13
c32.667 8.66699 78.834 17.334 138.501 26.001s115.834 13 168.501 13c20 0 38.167 -0.333008 54.5 -1s39.833 -2.66699 70.5 -6s58 -8.16602 82 -14.499s49.833 -15.666 77.5 -27.999s50.667 -27.166 69 -44.499s33.833 -39.666 46.5 -66.999s19 -58 19 -92v-328h56v-225
h-348l-37 88c-24.667 -32 -58.334 -56.833 -101.001 -74.5s-84.334 -26.5 -125.001 -26.5c-79.333 0 -147 21.667 -203 65s-84 101.666 -84 174.999zM398.998 1060c0 -22.667 6.33301 -41 19 -55s29.667 -21 51 -21c16 0 30.833 3.16699 44.5 9.5s22.5 11.5 26.5 15.5l9 9
v109l-10 4c-7.33301 2.66699 -17 5.16699 -29 7.5s-23.333 3.5 -34 3.5c-21.333 0 -39.5 -8.5 -54.5 -25.5s-22.5 -35.833 -22.5 -56.5z" />
    <glyph glyph-name="guillemotleft" unicode="&#xab;" horiz-adv-x="1306" 
d="M643 669l426 404l191 -224l-315 -315l315 -315l-191 -224l-426 404v270zM33 669l426 404l191 -224l-315 -315l315 -315l-191 -224l-426 404v270z" />
    <glyph glyph-name="logicalnot" unicode="&#xac;" horiz-adv-x="1195" 
d="M78 1092h1011v-550h-231v219h-779z" />
    <glyph glyph-name="uni00AD" unicode="&#xad;" horiz-adv-x="774" 
d="M717 836v-299h-647v299h647z" />
    <glyph glyph-name="registered" unicode="&#xae;" horiz-adv-x="1806" 
d="M129 1106c44.667 100 104.5 186.167 179.5 258.5s164.333 130 268 173s212.5 64.5 326.5 64.5s222.833 -21.5 326.5 -64.5s193 -100.667 268 -173s134.667 -158.5 179 -258.5s66.5 -204.667 66.5 -314s-22.167 -214 -66.5 -314s-104 -186.167 -179 -258.5
s-164.333 -130 -268 -173s-212.5 -64.5 -326.5 -64.5s-222.833 21.5 -326.5 64.5s-193 100.667 -268 173s-134.667 158.5 -179 258.5s-66.5 204.667 -66.5 314s22 214 66 314zM903 1448c-90 0 -176 -17.335 -258 -52.002s-152.833 -81.334 -212.5 -140.001
s-107.167 -128.5 -142.5 -209.5s-53 -165.833 -53 -254.5s17.667 -173.5 53 -254.5s82.833 -150.833 142.5 -209.5s130.5 -105.334 212.5 -140.001s168 -52 258 -52c120 0 231.167 29.333 333.5 88s183.333 138.334 243 239.001s89.5 210.334 89.5 329.001
s-29.833 228.334 -89.5 329.001s-140.667 180.334 -243 239.001s-213.5 88 -333.5 88zM923 362.998c-98 0 -247.998 -0.333008 -449.998 -1v203h85v496h-86v204h564c94.667 0 167.5 -19.667 218.5 -59s76.5 -103.333 76.5 -192c0 -54 -17.333 -98.333 -52 -133
s-84 -57.667 -148 -69c54.667 -12.667 94 -30.334 118 -53.001s36 -51 36 -85v-52c0 -22 5.5 -37.5 16.5 -46.5s35.833 -13.5 74.5 -13.5v-199h-146c-26.667 0 -47.334 0.333008 -62.001 1s-33.334 3.5 -56.001 8.5s-40 12.167 -52 21.5s-22.667 23.333 -32 42
s-14 41.667 -14 69v109c0 44.667 -6.83301 78.334 -20.5 101.001s-41.5 34 -83.5 34h-54v-181h67v-205zM886.002 874.998c92.667 0 139.001 32.334 139.001 97.001c0 29.333 -9.33301 53.166 -28 71.499s-44.334 27.5 -77.001 27.5h-68v-196h34z" />
    <glyph glyph-name="glyph113" unicode="&#xaf;" horiz-adv-x="774" 
d="M717 1433v-269h-647v269h647z" />
    <glyph glyph-name="degree" unicode="&#xb0;" horiz-adv-x="781" 
d="M385 1092c64.667 0 115.499 20.1689 152.499 60.502s55.5 88.166 55.5 143.499c0 54 -18.333 100.667 -55 140s-87.667 59 -153 59c-63.333 0 -112.666 -19.667 -147.999 -59s-53 -86 -53 -140c0 -54.667 18 -102.334 54 -143.001s85 -61 147 -61zM384.999 951.002
c-56 0 -106.83 9.83105 -152.497 29.498s-82.834 46 -111.501 79s-50.667 69.833 -66 110.5s-23 83 -23 127c0 42.667 7.5 83.834 22.5 123.501s36.667 75.5 65 107.5s65.5 57.5 111.5 76.5s97.333 28.5 154 28.5c59.333 0 112.666 -9.5 159.999 -28.5
s85.666 -44.5 114.999 -76.5s51.833 -67.667 67.5 -107s23.5 -80.666 23.5 -123.999c0 -44 -8 -86.333 -24 -127s-38.833 -77.5 -68.5 -110.5s-68.167 -59.333 -115.5 -79s-100 -29.5 -158 -29.5z" />
    <glyph glyph-name="plusminus" unicode="&#xb1;" horiz-adv-x="849" 
d="M746 223v-224h-647v224h647zM69 762h232v269h255v-269h225v-245h-225v-239h-255v239h-232v245z" />
    <glyph glyph-name="uni00B2" unicode="&#xb2;" horiz-adv-x="864" 
d="M108 286l-0.000976562 181.999c77.333 30.667 142 67.667 194 111c30.667 26 53.834 47.167 69.501 63.5s30.5 39 44.5 68s21 59.833 21 92.5c-2 30.667 -11 55.667 -27 75s-34.333 29 -55 29c-26 0 -46.167 -8.16699 -60.5 -24.5s-21.5 -36.833 -21.5 -61.5
c0 -28 12.667 -53.667 38 -77l-137 -105c-61.333 54.667 -91 127.667 -89 219c0 55.333 17.833 104 53.5 146s79.5 72.5 131.5 91.5s105.667 27.5 161 25.5c90.667 -3.33301 165.667 -29.166 225 -77.499s89 -114.5 89 -198.5c0 -62 -21.333 -120 -64 -174
c-34 -44 -106 -107.333 -216 -190h97c40.667 1.33301 72.5 8 95.5 20s34.5 35 34.5 69h104v-284h-688z" />
    <glyph glyph-name="uni00B3" unicode="&#xb3;" horiz-adv-x="824" 
d="M87 529c70.667 -57.333 143 -86 217 -86c34 0 64.333 6.83301 91 20.5s40 35.5 40 65.5c0 34.667 -14.667 59.667 -44 75s-63.333 23 -102 23c-15.333 0 -31 -1.83301 -47 -5.5s-25.333 -5.5 -28 -5.5l-11 2l-1 3v93l200 170v6h-128c-14.667 0 -26.667 -1.5 -36 -4.5
s-16.833 -9.33301 -22.5 -19s-9.66699 -17.667 -12 -24s-5.83301 -18.5 -10.5 -36.5l-113 1v265h626v-154c0 -1.33301 -55.667 -47.666 -167 -138.999c56.667 -5.33301 105.167 -29.833 145.5 -73.5s60.5 -92.834 60.5 -147.501c0 -92 -34 -163 -102 -213
s-160.667 -75 -278 -75c-62 0 -115 3.5 -159 10.5s-83.667 22.167 -119 45.5v203v0z" />
    <glyph glyph-name="acute" unicode="&#xb4;" horiz-adv-x="1016" 
d="M851 1443l-554 -313l-104 141l474 437z" />
    <glyph glyph-name="uni00B5" unicode="&#xb5;" horiz-adv-x="1468" 
d="M827 156c-36.667 -56.667 -85.832 -99.834 -147.499 -129.501s-131.834 -44.5 -210.501 -44.5c-220 0 -330 134.333 -330 403v376h-80v311h574v-634c0 -35.333 9 -64.166 27 -86.499s39 -33.5 63 -33.5c31.333 0 56.5 11.5 75.5 34.5s28.5 51.5 28.5 85.5v323h-81v311
h575v-767h76v-305h-570v156z" />
    <glyph glyph-name="paragraph" unicode="&#xb6;" horiz-adv-x="1555" 
d="M626 739c-88.667 0 -166.83 7.33301 -234.497 22s-127.5 38.334 -179.5 71.001s-91.333 77 -118 133s-39.334 123 -38.001 201c0.666992 50 6.16699 95.667 16.5 137s24.666 76.833 42.999 106.5s40.166 56.334 65.499 80.001s53.5 42.667 84.5 57s64.333 27 100 38
s73.167 18.667 112.5 23s80 8.16602 122 11.499s84.667 4.66602 128 3.99902s87 -0.666992 131 0h66h501v-355h-151v-905h156v-363h-409v1270h-125v-1270h-417v363h146v376z" />
    <glyph glyph-name="periodcentered" unicode="&#xb7;" horiz-adv-x="682" 
d="M337 514c-79.333 0 -145.333 22.5 -198 67.5s-79 105.833 -79 182.5c0 75.333 25.833 135 77.5 179s118.167 66 199.5 66c84.667 0 153.667 -22 207 -66s80 -103.667 80 -179c0 -76.667 -27.5 -137.5 -82.5 -182.5s-123.167 -67.5 -204.5 -67.5z" />
    <glyph glyph-name="cedilla" unicode="&#xb8;" horiz-adv-x="502" 
d="M147 0l179.999 -0.00292969v-119c88.667 -51.333 133 -106.666 133 -165.999c0 -54.667 -36.167 -101.667 -108.5 -141s-159.166 -59 -260.499 -59h-21v113c64.667 0.666992 112 10.334 142 29.001s45 42.667 45 72c0 26.667 -10.667 54.334 -32 83.001
s-47.333 51.667 -78 69v119z" />
    <glyph glyph-name="uni00B9" unicode="&#xb9;" horiz-adv-x="615" 
d="M117 286l-1 190h53v367l-96 -1v151l387 98l4 -615h56v-190h-403z" />
    <glyph glyph-name="ordmasculine" unicode="&#xba;" horiz-adv-x="1032" 
d="M70 688c0 128.667 39.833 228 119.5 298s188.5 105 326.5 105c138.667 0 247.667 -35 327 -105s119 -169.333 119 -298c0 -130 -40.833 -232.167 -122.5 -306.5s-189.5 -111.5 -323.5 -111.5s-241.833 37.167 -323.5 111.5s-122.5 176.5 -122.5 306.5zM415 686
c0 -123.333 33.665 -185 100.998 -185c68 0 102 61.667 102 185c0 25.333 -1.16699 46.833 -3.5 64.5s-6.66602 35.667 -12.999 54s-16.666 32.166 -30.999 41.499s-32.5 14 -54.5 14s-40 -4.66699 -54 -14s-24.333 -23.166 -31 -41.499s-11 -36.333 -13 -54
s-3 -39.167 -3 -64.5z" />
    <glyph glyph-name="guillemotright" unicode="&#xbb;" horiz-adv-x="1306" 
d="M663 399l-426 -404l-191 224l315 315l-315 315l191 224l426 -404v-270zM1273 399l-426 -404l-191 224l315 315l-315 315l191 224l426 -404v-270z" />
    <glyph glyph-name="onequarter" unicode="&#xbc;" horiz-adv-x="1721" 
d="M111 818l-1 190h53v367l-96 -1v151l387 98l4 -615h56v-190h-403zM348 0l491 1623h364l-502 -1623h-353zM1536 170h72v-169h-414v169h74v77h-313v158l324 384l258 -1v-391l133 1v-151h-134v-77zM1268 398v138l-111 -137z" />
    <glyph glyph-name="onehalf" unicode="&#xbd;" horiz-adv-x="1784" 
d="M107 818l-1 190h53v367l-96 -1v151l387 98l4 -615h56v-190h-403zM352 0l491 1623h364l-502 -1623h-353zM1042 -1l-0.000976562 181.999c77.333 30.667 142 67.667 194 111c30.667 26 53.834 47.167 69.501 63.5s30.5 39 44.5 68s21 59.833 21 92.5
c-2 30.667 -11 55.667 -27 75s-34.333 29 -55 29c-26 0 -46.167 -8.16699 -60.5 -24.5s-21.5 -36.833 -21.5 -61.5c0 -28 12.667 -53.667 38 -77l-137 -105c-61.333 54.667 -91 127.667 -89 219c0 55.333 17.833 104 53.5 146s79.5 72.5 131.5 91.5s105.667 27.5 161 25.5
c90.667 -3.33301 165.667 -29.166 225 -77.499s89 -114.5 89 -198.5c0 -62 -21.333 -120 -64 -174c-34 -44 -106 -107.333 -216 -190h97c40.667 1.33301 72.5 8 95.5 20s34.5 35 34.5 69h104v-284h-688z" />
    <glyph glyph-name="threequarters" unicode="&#xbe;" horiz-adv-x="1827" 
d="M83 1081c70.667 -57.333 143 -86 217 -86c34 0 64.333 6.83301 91 20.5s40 35.5 40 65.5c0 34.667 -14.667 59.667 -44 75s-63.333 23 -102 23c-15.333 0 -31 -1.83301 -47 -5.5s-25.333 -5.5 -28 -5.5c-5.33301 0 -9 0.666992 -11 2l-1 3v93l200 170v6h-128
c-14.667 0 -26.667 -1.5 -36 -4.5s-16.833 -9.33301 -22.5 -19s-9.66699 -17.667 -12 -24s-5.83301 -18.5 -10.5 -36.5l-113 1v265h626v-154c0 -1.33301 -55.667 -47.666 -167 -138.999c56.667 -5.33301 105.167 -29.833 145.5 -73.5s60.5 -92.834 60.5 -147.501
c0 -92 -34 -163 -102 -213s-160.667 -75 -278 -75c-62 0 -115 3.5 -159 10.5s-83.667 22.167 -119 45.5v203zM502 0l491 1623h364l-502 -1623h-353zM1642 168h72v-169h-414v169h74v77h-313v158l324 384l258 -1v-391l133 1v-151h-134v-77zM1374 396v138l-111 -137z" />
    <glyph glyph-name="questiondown" unicode="&#xbf;" horiz-adv-x="1312" 
d="M962 1180l-347.001 0.000976562v-187c-40.667 -14 -76.5 -27.167 -107.5 -39.5s-67 -28.333 -108 -48s-76.667 -39.5 -107 -59.5s-61.333 -44.333 -93 -73s-57.5 -58.5 -77.5 -89.5s-36.5 -66.833 -49.5 -107.5s-19.5 -83.667 -19.5 -129c0 -88 26 -167.5 78 -238.5
s123.833 -126.5 215.5 -166.5s193.834 -60 306.501 -60c171.333 0 313.5 48.667 426.5 146s174.167 221.333 183.5 372h-472c-6.66699 -108 -50 -162 -130 -162c-20 0 -37 5.16699 -51 15.5s-23.833 23.5 -29.5 39.5s-9.66699 30.167 -12 42.5s-3.5 23.833 -3.5 34.5
c0 119.333 132 238.666 396 357.999zM781.999 1746c79.333 0 145.333 -22.5 198 -67.5s79 -105.833 79 -182.5c0 -75.333 -25.833 -135 -77.5 -179s-118.167 -66 -199.5 -66c-84.667 0 -153.667 22 -207 66s-80 103.667 -80 179c0 76.667 27.5 137.5 82.5 182.5
s123.167 67.5 204.5 67.5z" />
    <glyph glyph-name="Agrave" unicode="&#xc0;" horiz-adv-x="1643" 
d="M1185 1623h-994.003v-353h212l-172 -679c-18 -70 -30.667 -113 -38 -129c-22 -50.667 -59 -82.334 -111 -95.001c-22.667 -5.33301 -48.667 -8 -78 -8v-359h678v359h-84c-14 0 -24.667 12 -32 36s-11 45.333 -11 64c0.666992 14 1.33398 24.667 2.00098 32
s3.33398 14.5 8.00098 21.5s11.334 10.5 20.001 10.5h275c44.667 0 67 -54.667 67 -164h-120l1 -359h826v359h-86c-10 0 -18.667 4.16699 -26 12.5s-12.833 17.833 -16.5 28.5s-8.16699 26.334 -13.5 47.001zM611.997 773l112 508l117 -508h-229zM647.997 2270l474 -437
l-104 -141l-554 313z" />
    <glyph glyph-name="Aacute" unicode="&#xc1;" horiz-adv-x="1643" 
d="M1492 447c5.33301 -20.667 9.83594 -36.334 13.5029 -47.001s9.16699 -20.167 16.5 -28.5s16 -12.5 26 -12.5h86v-359h-826l-1 359h120c0 109.333 -22.333 164 -67 164h-275c-8.66699 0 -15.334 -3.5 -20.001 -10.5s-7.33398 -14.167 -8.00098 -21.5
s-1.33398 -18 -2.00098 -32c0 -18.667 3.66699 -40 11 -64s18 -36 32 -36h84v-359h-678v359c29.333 0 55.333 2.66699 78 8c52 12.667 89 44.334 111 95.001c7.33301 16 20 59 38 129l172 679h-212v353h994zM841.003 773l-117 508l-112 -508h229zM1122 2005l-554 -313
l-104 141l474 437z" />
    <glyph glyph-name="Acircumflex" unicode="&#xc2;" horiz-adv-x="1643" 
d="M1492 447c5.33301 -20.667 9.83594 -36.334 13.5029 -47.001s9.16699 -20.167 16.5 -28.5s16 -12.5 26 -12.5h86v-359h-826l-1 359h120c0 109.333 -22.333 164 -67 164h-275c-8.66699 0 -15.334 -3.5 -20.001 -10.5s-7.33398 -14.167 -8.00098 -21.5
s-1.33398 -18 -2.00098 -32c0 -18.667 3.66699 -40 11 -64s18 -36 32 -36h84v-359h-678v359c29.333 0 55.333 2.66699 78 8c52 12.667 89 44.334 111 95.001c7.33301 16 20 59 38 129l172 679h-212v353h994zM841.003 773l-117 508l-112 -508h229zM828.003 2162l274 -376
l-154 -101l-255 245l-255 -245l-154 101l273 377z" />
    <glyph glyph-name="Atilde" unicode="&#xc3;" horiz-adv-x="1643" 
d="M1185 1623h-994.003v-353h212l-172 -679c-18 -70 -30.667 -113 -38 -129c-22 -50.667 -59 -82.334 -111 -95.001c-22.667 -5.33301 -48.667 -8 -78 -8v-359h678v359h-84c-14 0 -24.667 12 -32 36s-11 45.333 -11 64c0.666992 14 1.33398 24.667 2.00098 32
s3.33398 14.5 8.00098 21.5s11.334 10.5 20.001 10.5h275c44.667 0 67 -54.667 67 -164h-120l1 -359h826v359h-86c-10 0 -18.667 4.16699 -26 12.5s-12.833 17.833 -16.5 28.5s-8.16699 26.334 -13.5 47.001zM611.997 773l112 508l117 -508h-229zM966.997 2085
c29.333 0 56 -6.33301 80 -19s44.667 -30.5 62 -53.5s32.5 -45.833 45.5 -68.5s27.333 -49 43 -79s29.5 -53.667 41.5 -71l-113 -74c-48.667 46.667 -82.167 76.334 -100.5 89.001s-33.833 19 -46.5 19c-30 0 -65.667 -10 -107 -30l-128.5 -60.5
c-44.333 -20.333 -84.833 -30.5 -121.5 -30.5c-30 0 -57 6.16699 -81 18.5s-44.833 30 -62.5 53s-32.834 45.667 -45.501 68l-43 79c-16 30.333 -30 54.166 -42 71.499l114 75c50.667 -48.667 85.334 -79.5 104.001 -92.5s34 -19.5 46 -19.5c24 0 51.667 6.5 83 19.5
s60 27.333 86 43s56 30 90 43s66 19.5 96 19.5z" />
    <glyph glyph-name="Adieresis" unicode="&#xc4;" horiz-adv-x="1643" 
d="M1185 1623h-994.003v-353h212l-172 -679c-18 -70 -30.667 -113 -38 -129c-22 -50.667 -59 -82.334 -111 -95.001c-22.667 -5.33301 -48.667 -8 -78 -8v-359h678v359h-84c-14 0 -24.667 12 -32 36s-11 45.333 -11 64c0.666992 14 1.33398 24.667 2.00098 32
s3.33398 14.5 8.00098 21.5s11.334 10.5 20.001 10.5h275c44.667 0 67 -54.667 67 -164h-120l1 -359h826v359h-86c-10 0 -18.667 4.16699 -26 12.5s-12.833 17.833 -16.5 28.5s-8.16699 26.334 -13.5 47.001zM611.997 773l112 508l117 -508h-229zM710.997 1904
c0 -72 -22.167 -128.333 -66.5 -169s-96.833 -61 -157.5 -61c-62 0 -115.5 20.5 -160.5 61.5s-67.5 98.167 -67.5 171.5c0 71.333 22.333 127 67 167s97.667 60 159 60s114.333 -20.167 159 -60.5s67 -96.833 67 -169.5zM1328 1904c0 -72 -22.167 -128.333 -66.5 -169
s-96.833 -61 -157.5 -61c-62 0 -115.5 20.5 -160.5 61.5s-67.5 98.167 -67.5 171.5c0 71.333 22.333 127 67 167s97.667 60 159 60s114.333 -20.167 159 -60.5s67 -96.833 67 -169.5z" />
    <glyph glyph-name="Aring" unicode="&#xc5;" horiz-adv-x="1643" 
d="M1492 447c5.33301 -20.667 9.83594 -36.334 13.5029 -47.001s9.16699 -20.167 16.5 -28.5s16 -12.5 26 -12.5h86v-359h-826l-1 359h120c0 109.333 -22.333 164 -67 164h-275c-8.66699 0 -15.334 -3.5 -20.001 -10.5s-7.33398 -14.167 -8.00098 -21.5
s-1.33398 -18 -2.00098 -32c0 -18.667 3.66699 -40 11 -64s18 -36 32 -36h84v-359h-678v359c29.333 0 55.333 2.66699 78 8c52 12.667 89 44.334 111 95.001c7.33301 16 20 59 38 129l172 679h-212v353h994zM841.003 773l-117 508l-112 -508h229zM789.003 1802
c51.333 0 91.667 14.667 121 44s44 64 44 104c0 39.333 -14.5 73.333 -43.5 102s-69.5 43 -121.5 43c-50.667 0 -90.167 -14.333 -118.5 -43s-42.5 -62.667 -42.5 -102c0 -40 14.333 -74.667 43 -104s68 -44 118 -44zM789.004 1700c-84.667 0 -151 25 -199 75
s-72 108.667 -72 176c0 66 23.667 123.167 71 171.5s114 72.5 200 72.5c88.667 0 157.5 -24 206.5 -72s73.5 -105.333 73.5 -172c0 -67.333 -24.833 -126 -74.5 -176s-118.167 -75 -205.5 -75z" />
    <glyph glyph-name="AE" unicode="&#xc6;" horiz-adv-x="2138" 
d="M1747 969l-76.001 301.998h-213v-283h205v-352h-205v-286h219l13 70l63 267h273v-687h-1229l-1 376h120c21.333 109.333 9.33301 164 -36 164h-275c-8.66699 0 -16 -3.5 -22 -10.5s-10 -14.167 -12 -21.5s-4.66699 -18 -8 -32c-4 -11.333 -4.5 -30.833 -1.5 -58.5
s11.5 -41.5 25.5 -41.5h84v-376l-681 -1v355c20 0 38.333 1.33301 55 4s32 7.33398 46 14.001s26.333 12.834 37 18.501s21.334 14.834 32.001 27.501l25 30c6 7.33301 13.5 19.666 22.5 36.999s15.333 29.833 19 37.5s10 22 19 43l18.5 42.5l322 666h-212l71 349h1570v-653
zM907.999 770.998l1 521l-240 -521h239z" />
    <glyph glyph-name="Ccedilla" unicode="&#xc7;" horiz-adv-x="1542" 
d="M1458 202l-29.002 -23.999c-19.333 -16 -48.333 -35.333 -87 -58s-82.334 -45.167 -131.001 -67.5s-107.5 -41.5 -176.5 -57.5s-138.167 -24 -207.5 -24c-165.333 0 -306.166 35 -422.499 105s-203 166.833 -260 290.5s-85.5 269.5 -85.5 437.5
c0 84.667 8 166.667 24 246s41.833 155.833 77.5 229.5s79.5 137.834 131.5 192.501s116.667 98.334 194 131.001s163 49 257 49c49.333 0 91.666 -1.66699 126.999 -5s75.5 -12.833 120.5 -28.5s82.5 -37.834 112.5 -66.501l34 71h311l1 -632h-298
c0.666992 35.333 -3 69.833 -11 103.5s-20.667 65.5 -38 95.5s-42 54.167 -74 72.5s-69 27.5 -111 27.5c-31.333 0 -59.5 -5.16699 -84.5 -15.5s-45.667 -23.5 -62 -39.5s-30.5 -36.667 -42.5 -62s-21 -49.5 -27 -72.5s-10.667 -50.833 -14 -83.5s-5.33301 -60 -6 -82
s-1 -48.667 -1 -80v-44c-2 -30 -2 -62.5 0 -97.5s4.33301 -69.833 7 -104.5s9.83398 -68 21.501 -100s26 -60.333 43 -85s40.833 -44.334 71.5 -59.001s66.334 -22 107.001 -22c54 0 101.5 15.833 142.5 47.5s66.5 74.167 76.5 127.5
c2.66699 13.333 5.33398 44.666 8.00098 93.999h301v-410zM708.998 0.000976562l179.999 -0.00292969v-119c88.667 -51.333 133 -106.666 133 -165.999c0 -54.667 -36.167 -101.667 -108.5 -141s-159.166 -59 -260.499 -59h-21v113c64.667 0.666992 112 10.334 142 29.001
s45 42.667 45 72c0 26.667 -10.667 54.334 -32 83.001s-47.333 51.667 -78 69v119z" />
    <glyph glyph-name="Egrave" unicode="&#xc8;" horiz-adv-x="1490" 
d="M1367 969v654h-1268v-353h158v-911h-158v-359h1279v687h-273l-63 -267l-13 -61h-219v277h205v352h-205v282h213l76 -302zM591 2270l474 -437l-104 -141l-554 313z" />
    <glyph glyph-name="Eacute" unicode="&#xc9;" horiz-adv-x="1490" 
d="M1099 968l-76 302h-213v-282h205v-352h-205v-277h219l13 61l63 267h273v-687h-1279v359h158v911h-158v353h1268v-654zM1065 2005l-554 -313l-104 141l474 437z" />
    <glyph glyph-name="Ecircumflex" unicode="&#xca;" horiz-adv-x="1490" 
d="M1099 968l-76 302h-213v-282h205v-352h-205v-277h219l13 61l63 267h273v-687h-1279v359h158v911h-158v353h1268v-654zM871 2162l274 -376l-154 -101l-255 245l-255 -245l-154 101l273 377z" />
    <glyph glyph-name="Edieresis" unicode="&#xcb;" horiz-adv-x="1490" 
d="M1367 969v654h-1268v-353h158v-911h-158v-359h1279v687h-273l-63 -267l-13 -61h-219v277h205v352h-205v282h213l76 -302zM654 1904c0 -72 -22.167 -128.333 -66.5 -169s-96.833 -61 -157.5 -61c-62 0 -115.5 20.5 -160.5 61.5s-67.5 98.167 -67.5 171.5
c0 71.333 22.333 127 67 167s97.667 60 159 60s114.333 -20.167 159 -60.5s67 -96.833 67 -169.5zM1271 1904c0 -72 -22.167 -128.333 -66.5 -169s-96.833 -61 -157.5 -61c-62 0 -115.5 20.5 -160.5 61.5s-67.5 98.167 -67.5 171.5c0 71.333 22.333 127 67 167
s97.667 60 159 60s114.333 -20.167 159 -60.5s67 -96.833 67 -169.5z" />
    <glyph glyph-name="Igrave" unicode="&#xcc;" horiz-adv-x="1076" 
d="M972 1623h-864v-353h143v-911h-147v-359h862v359h-141v911h147v353zM395 2270l474 -437l-104 -141l-554 313z" />
    <glyph glyph-name="Iacute" unicode="&#xcd;" horiz-adv-x="1076" 
d="M972 1270h-147v-911h141v-359h-862v359h147v911h-143v353h864v-353zM869 2005l-554 -313l-104 141l474 437z" />
    <glyph glyph-name="Icircumflex" unicode="&#xce;" horiz-adv-x="1076" 
d="M972 1270h-147v-911h141v-359h-862v359h147v911h-143v353h864v-353zM675 2162l274 -376l-154 -101l-255 245l-255 -245l-154 101l273 377z" />
    <glyph glyph-name="Idieresis" unicode="&#xcf;" horiz-adv-x="1076" 
d="M972 1623h-864v-353h143v-911h-147v-359h862v359h-141v911h147v353zM458 1904c0 -72 -22.167 -128.333 -66.5 -169s-96.833 -61 -157.5 -61c-62 0 -115.5 20.5 -160.5 61.5s-67.5 98.167 -67.5 171.5c0 71.333 22.333 127 67 167s97.667 60 159 60
s114.333 -20.167 159 -60.5s67 -96.833 67 -169.5zM1075 1904c0 -72 -22.167 -128.333 -66.5 -169s-96.833 -61 -157.5 -61c-62 0 -115.5 20.5 -160.5 61.5s-67.5 98.167 -67.5 171.5c0 71.333 22.333 127 67 167s97.667 60 159 60s114.333 -20.167 159 -60.5
s67 -96.833 67 -169.5z" />
    <glyph glyph-name="Eth" unicode="&#xd0;" horiz-adv-x="1802" 
d="M262 952l0.00195312 319.001h-169v352h830c274.667 0 480.334 -68.5 617.001 -205.5s205 -337.5 205 -601.5c0 -108.667 -18.333 -211.667 -55 -309s-89.334 -183.833 -158.001 -259.5s-157.334 -135.834 -266.001 -180.501s-230.334 -67 -365.001 -67h-802v351h163v302
h-130v299h130zM844.002 351.001c48.667 0 91.501 9.83301 128.501 29.5s66.5 44.667 88.5 75s40 66.833 54 109.5s23.5 84.167 28.5 124.5s7.5 82.833 7.5 127.5c0 46 -2 88.167 -6 126.5s-12.167 78.5 -24.5 120.5s-28.833 77.5 -49.5 106.5s-49.334 53 -86.001 72
s-79.667 28.5 -129 28.5h-47v-99v-118.5v-101.5h86v-299h-85l3 -302h31z" />
    <glyph glyph-name="Ntilde" unicode="&#xd1;" horiz-adv-x="1873" 
d="M1814 1622l-636.999 0.999023v-353c26 0.666992 48.667 -0.666016 68 -3.99902s34.5 -9.5 45.5 -18.5s19.833 -17.667 26.5 -26s11.167 -20 13.5 -35s3.66602 -26.5 3.99902 -34.5s0.5 -20 0.5 -36v-469l-496 976h-735v-351h157v-722c0 -25.333 -0.666992 -45.333 -2 -60
s-4.83301 -31.5 -10.5 -50.5s-14 -33.5 -25 -43.5s-27 -18.667 -48 -26s-46.833 -11 -77.5 -11v-359h637v359c-56.667 0 -97.167 11 -121.5 33s-36.5 60.333 -36.5 115v401l473 -908h606v1118c0 49.333 12.167 87 36.5 113s64.833 39 121.5 39v352zM1082 2085
c29.333 0 56 -6.33301 80 -19s44.667 -30.5 62 -53.5s32.5 -45.833 45.5 -68.5s27.333 -49 43 -79s29.5 -53.667 41.5 -71l-113 -74c-48.667 46.667 -82.167 76.334 -100.5 89.001s-33.833 19 -46.5 19c-30 0 -65.667 -10 -107 -30l-128.5 -60.5
c-44.333 -20.333 -84.833 -30.5 -121.5 -30.5c-30 0 -57 6.16699 -81 18.5s-44.833 30 -62.5 53s-32.834 45.667 -45.501 68l-43 79c-16 30.333 -30 54.166 -42 71.499l114 75c50.667 -48.667 85.334 -79.5 104.001 -92.5s34 -19.5 46 -19.5c24 0 51.667 6.5 83 19.5
s60 27.333 86 43s56 30 90 43s66 19.5 96 19.5z" />
    <glyph glyph-name="Ograve" unicode="&#xd2;" horiz-adv-x="1744" 
d="M1692 808c0 -156.667 -35.833 -299 -107.5 -427s-170.167 -228.333 -295.5 -301s-264.333 -109 -417 -109s-291.667 36.333 -417 109s-223.833 173 -295.5 301s-107.5 270.333 -107.5 427c0 172 35.833 322.5 107.5 451.5s169 226.833 292 293.5s263.167 100 420.5 100
s297.5 -33.333 420.5 -100s220.333 -164.5 292 -293.5s107.5 -279.5 107.5 -451.5zM872 319c26 0 49.3291 4.33105 69.9961 12.998s38.167 20.667 52.5 36s26.833 33.333 37.5 54s19 43.167 25 67.5s11 49.5 15 75.5s6.5 52.167 7.5 78.5s1.83301 52.166 2.5 77.499
s0.666992 49.333 0 72v30v35c-0.666992 24 -0.666992 49.333 0 76s-0.5 54.167 -3.5 82.5s-6.66699 55.833 -11 82.5s-11.833 52 -22.5 76s-23.167 45 -37.5 63s-33.166 32.167 -56.499 42.5s-49.666 15.5 -78.999 15.5c-26 0 -49.5 -4 -70.5 -12s-38.5 -19.167 -52.5 -33.5
s-26.5 -31 -37.5 -50s-19.333 -39.667 -25 -62s-10.667 -45.666 -15 -69.999s-6.83301 -48.666 -7.5 -72.999s-1.5 -48.166 -2.5 -71.499s-0.833008 -45.333 0.5 -66v-35v-30c0.666992 -20 0.666992 -41 0 -63s-0.166992 -44.833 1.5 -68.5s3.5 -47.167 5.5 -70.5
s5.5 -46.333 10.5 -69s10.833 -44 17.5 -64s15.334 -38.5 26.001 -55.5s22.834 -31.667 36.501 -44s30.167 -22 49.5 -29s40.333 -10.5 63 -10.5zM724.996 2270l474 -437l-104 -141l-554 313z" />
    <glyph glyph-name="Oacute" unicode="&#xd3;" horiz-adv-x="1744" 
d="M1692 808c0 -156.667 -35.833 -299 -107.5 -427s-170.167 -228.333 -295.5 -301s-264.333 -109 -417 -109s-291.667 36.333 -417 109s-223.833 173 -295.5 301s-107.5 270.333 -107.5 427c0 172 35.833 322.5 107.5 451.5s169 226.833 292 293.5s263.167 100 420.5 100
s297.5 -33.333 420.5 -100s220.333 -164.5 292 -293.5s107.5 -279.5 107.5 -451.5zM872 319c26 0 49.3291 4.33105 69.9961 12.998s38.167 20.667 52.5 36s26.833 33.333 37.5 54s19 43.167 25 67.5s11 49.5 15 75.5s6.5 52.167 7.5 78.5s1.83301 52.166 2.5 77.499
s0.666992 49.333 0 72v30v35c-0.666992 24 -0.666992 49.333 0 76s-0.5 54.167 -3.5 82.5s-6.66699 55.833 -11 82.5s-11.833 52 -22.5 76s-23.167 45 -37.5 63s-33.166 32.167 -56.499 42.5s-49.666 15.5 -78.999 15.5c-26 0 -49.5 -4 -70.5 -12s-38.5 -19.167 -52.5 -33.5
s-26.5 -31 -37.5 -50s-19.333 -39.667 -25 -62s-10.667 -45.666 -15 -69.999s-6.83301 -48.666 -7.5 -72.999s-1.5 -48.166 -2.5 -71.499s-0.833008 -45.333 0.5 -66v-35v-30c0.666992 -20 0.666992 -41 0 -63s-0.166992 -44.833 1.5 -68.5s3.5 -47.167 5.5 -70.5
s5.5 -46.333 10.5 -69s10.833 -44 17.5 -64s15.334 -38.5 26.001 -55.5s22.834 -31.667 36.501 -44s30.167 -22 49.5 -29s40.333 -10.5 63 -10.5zM1199 2005l-554 -313l-104 141l474 437z" />
    <glyph glyph-name="Ocircumflex" unicode="&#xd4;" horiz-adv-x="1744" 
d="M1692 808c0 -156.667 -35.833 -299 -107.5 -427s-170.167 -228.333 -295.5 -301s-264.333 -109 -417 -109s-291.667 36.333 -417 109s-223.833 173 -295.5 301s-107.5 270.333 -107.5 427c0 172 35.833 322.5 107.5 451.5s169 226.833 292 293.5s263.167 100 420.5 100
s297.5 -33.333 420.5 -100s220.333 -164.5 292 -293.5s107.5 -279.5 107.5 -451.5zM872 319c26 0 49.3291 4.33105 69.9961 12.998s38.167 20.667 52.5 36s26.833 33.333 37.5 54s19 43.167 25 67.5s11 49.5 15 75.5s6.5 52.167 7.5 78.5s1.83301 52.166 2.5 77.499
s0.666992 49.333 0 72v30v35c-0.666992 24 -0.666992 49.333 0 76s-0.5 54.167 -3.5 82.5s-6.66699 55.833 -11 82.5s-11.833 52 -22.5 76s-23.167 45 -37.5 63s-33.166 32.167 -56.499 42.5s-49.666 15.5 -78.999 15.5c-26 0 -49.5 -4 -70.5 -12s-38.5 -19.167 -52.5 -33.5
s-26.5 -31 -37.5 -50s-19.333 -39.667 -25 -62s-10.667 -45.666 -15 -69.999s-6.83301 -48.666 -7.5 -72.999s-1.5 -48.166 -2.5 -71.499s-0.833008 -45.333 0.5 -66v-35v-30c0.666992 -20 0.666992 -41 0 -63s-0.166992 -44.833 1.5 -68.5s3.5 -47.167 5.5 -70.5
s5.5 -46.333 10.5 -69s10.833 -44 17.5 -64s15.334 -38.5 26.001 -55.5s22.834 -31.667 36.501 -44s30.167 -22 49.5 -29s40.333 -10.5 63 -10.5zM1005 2162l274 -376l-154 -101l-255 245l-255 -245l-154 101l273 377z" />
    <glyph glyph-name="Otilde" unicode="&#xd5;" horiz-adv-x="1744" 
d="M1692 808c0 -156.667 -35.833 -299 -107.5 -427s-170.167 -228.333 -295.5 -301s-264.333 -109 -417 -109s-291.667 36.333 -417 109s-223.833 173 -295.5 301s-107.5 270.333 -107.5 427c0 172 35.833 322.5 107.5 451.5s169 226.833 292 293.5s263.167 100 420.5 100
s297.5 -33.333 420.5 -100s220.333 -164.5 292 -293.5s107.5 -279.5 107.5 -451.5zM872 319c26 0 49.3291 4.33105 69.9961 12.998s38.167 20.667 52.5 36s26.833 33.333 37.5 54s19 43.167 25 67.5s11 49.5 15 75.5s6.5 52.167 7.5 78.5s1.83301 52.166 2.5 77.499
s0.666992 49.333 0 72v30v35c-0.666992 24 -0.666992 49.333 0 76s-0.5 54.167 -3.5 82.5s-6.66699 55.833 -11 82.5s-11.833 52 -22.5 76s-23.167 45 -37.5 63s-33.166 32.167 -56.499 42.5s-49.666 15.5 -78.999 15.5c-26 0 -49.5 -4 -70.5 -12s-38.5 -19.167 -52.5 -33.5
s-26.5 -31 -37.5 -50s-19.333 -39.667 -25 -62s-10.667 -45.666 -15 -69.999s-6.83301 -48.666 -7.5 -72.999s-1.5 -48.166 -2.5 -71.499s-0.833008 -45.333 0.5 -66v-35v-30c0.666992 -20 0.666992 -41 0 -63s-0.166992 -44.833 1.5 -68.5s3.5 -47.167 5.5 -70.5
s5.5 -46.333 10.5 -69s10.833 -44 17.5 -64s15.334 -38.5 26.001 -55.5s22.834 -31.667 36.501 -44s30.167 -22 49.5 -29s40.333 -10.5 63 -10.5zM1044 2085c29.333 0 56 -6.33301 80 -19s44.667 -30.5 62 -53.5s32.5 -45.833 45.5 -68.5s27.333 -49 43 -79
s29.5 -53.667 41.5 -71l-113 -74c-48.667 46.667 -82.167 76.334 -100.5 89.001s-33.833 19 -46.5 19c-30 0 -65.667 -10 -107 -30l-128.5 -60.5c-44.333 -20.333 -84.833 -30.5 -121.5 -30.5c-30 0 -57 6.16699 -81 18.5s-44.833 30 -62.5 53s-32.834 45.667 -45.501 68
l-43 79c-16 30.333 -30 54.166 -42 71.499l114 75c50.667 -48.667 85.334 -79.5 104.001 -92.5s34 -19.5 46 -19.5c24 0 51.667 6.5 83 19.5s60 27.333 86 43s56 30 90 43s66 19.5 96 19.5z" />
    <glyph glyph-name="Odieresis" unicode="&#xd6;" horiz-adv-x="1744" 
d="M1692 808c0 -156.667 -35.833 -299 -107.5 -427s-170.167 -228.333 -295.5 -301s-264.333 -109 -417 -109s-291.667 36.333 -417 109s-223.833 173 -295.5 301s-107.5 270.333 -107.5 427c0 172 35.833 322.5 107.5 451.5s169 226.833 292 293.5s263.167 100 420.5 100
s297.5 -33.333 420.5 -100s220.333 -164.5 292 -293.5s107.5 -279.5 107.5 -451.5zM872 319c26 0 49.3291 4.33105 69.9961 12.998s38.167 20.667 52.5 36s26.833 33.333 37.5 54s19 43.167 25 67.5s11 49.5 15 75.5s6.5 52.167 7.5 78.5s1.83301 52.166 2.5 77.499
s0.666992 49.333 0 72v30v35c-0.666992 24 -0.666992 49.333 0 76s-0.5 54.167 -3.5 82.5s-6.66699 55.833 -11 82.5s-11.833 52 -22.5 76s-23.167 45 -37.5 63s-33.166 32.167 -56.499 42.5s-49.666 15.5 -78.999 15.5c-26 0 -49.5 -4 -70.5 -12s-38.5 -19.167 -52.5 -33.5
s-26.5 -31 -37.5 -50s-19.333 -39.667 -25 -62s-10.667 -45.666 -15 -69.999s-6.83301 -48.666 -7.5 -72.999s-1.5 -48.166 -2.5 -71.499s-0.833008 -45.333 0.5 -66v-35v-30c0.666992 -20 0.666992 -41 0 -63s-0.166992 -44.833 1.5 -68.5s3.5 -47.167 5.5 -70.5
s5.5 -46.333 10.5 -69s10.833 -44 17.5 -64s15.334 -38.5 26.001 -55.5s22.834 -31.667 36.501 -44s30.167 -22 49.5 -29s40.333 -10.5 63 -10.5zM787.996 1904c0 -72 -22.167 -128.333 -66.5 -169s-96.833 -61 -157.5 -61c-62 0 -115.5 20.5 -160.5 61.5
s-67.5 98.167 -67.5 171.5c0 71.333 22.333 127 67 167s97.667 60 159 60s114.333 -20.167 159 -60.5s67 -96.833 67 -169.5zM1405 1904c0 -72 -22.167 -128.333 -66.5 -169s-96.833 -61 -157.5 -61c-62 0 -115.5 20.5 -160.5 61.5s-67.5 98.167 -67.5 171.5
c0 71.333 22.333 127 67 167s97.667 60 159 60s114.333 -20.167 159 -60.5s67 -96.833 67 -169.5z" />
    <glyph glyph-name="multiply" unicode="&#xd7;" horiz-adv-x="902" 
d="M451 467l-192 -193l-173 173l192 193l-204 204l180 180l197 -204l197 204l180 -180l-204 -204l192 -193l-173 -173z" />
    <glyph glyph-name="Oslash" unicode="&#xd8;" horiz-adv-x="1742" 
d="M567 -155l38.001 166.998c-166 54.667 -299.833 153.834 -401.5 297.501s-152.5 309.834 -152.5 498.501c0 172 35.833 322.5 107.5 451.5s169 226.833 292 293.5s263.167 100 420.5 100c32 0 69 -2.33301 111 -7l37 158l153 -30l-36 -158
c169.333 -50 304.166 -145.5 404.499 -286.5s150.5 -314.833 150.5 -521.5c0 -156.667 -35.833 -299 -107.5 -427s-170.167 -228.333 -295.5 -301s-264.333 -109 -417 -109c-35.333 0 -70 2 -104 6l-38 -171zM871.001 1296c-26 0 -49.5 -4.00488 -70.5 -12.0049
s-38.5 -19.167 -52.5 -33.5s-26.5 -31 -37.5 -50s-19.333 -39.667 -25 -62s-10.667 -45.666 -15 -69.999s-6.83301 -48.666 -7.5 -72.999s-1.5 -48.166 -2.5 -71.499s-0.833008 -45.333 0.5 -66v-35v-47v-58c0 -8 0.333008 -26 1 -54s2 -49 4 -63l7.5 -54.5
c3 -22.333 7 -42.166 12 -59.499s10.833 -33.666 17.5 -48.999l198 856c-13.333 1.33301 -23.333 2 -30 2zM871.001 318.993c26 0 49.333 4.33105 70 12.998s38.167 20.667 52.5 36s26.833 33.333 37.5 54s19 43.167 25 67.5s11 49.5 15 75.5s6.5 52.167 7.5 78.5
s1.83301 52.166 2.5 77.499s0.666992 49.333 0 72v30c0 4.66699 0.166992 19.334 0.5 44.001s0.333008 42.334 0 53.001s-0.833008 27.834 -1.5 51.501s-2 43 -4 58s-4.5 32.5 -7.5 52.5s-7 38.5 -12 55.5s-10.833 32.833 -17.5 47.5l-194 -865
c5.33301 -0.666992 14 -1 26 -1z" />
    <glyph glyph-name="Ugrave" unicode="&#xd9;" 
d="M1485 1270h154.001v352h-654v-352h164v-734c0 -58.667 -17.333 -105 -52 -139s-82.667 -51 -144 -51c-34.667 0 -64.834 7.33301 -90.501 22s-45.334 34.5 -59.001 59.5s-23.667 51.833 -30 80.5s-9.5 59.334 -9.5 92.001v670h148v352h-869v-352h161v-566
c0 -58.667 2.5 -113 7.5 -163s14 -100.333 27 -151s29.833 -96.334 50.5 -137.001s47.334 -79 80.001 -115s70.5 -66 113.5 -90s94.167 -42.833 153.5 -56.5s125.333 -20.5 198 -20.5c114 0 220.333 22.667 319 68s178.667 110.5 240 195.5s92 180.167 92 285.5v750z
M696.001 2270l474 -437l-104 -141l-554 313z" />
    <glyph glyph-name="Uacute" unicode="&#xda;" 
d="M1485 520c0 -105.333 -30.668 -200.5 -92.001 -285.5s-141.333 -150.167 -240 -195.5s-205 -68 -319 -68c-72.667 0 -138.667 6.83301 -198 20.5s-110.5 32.5 -153.5 56.5s-80.833 54 -113.5 90s-59.334 74.333 -80.001 115s-37.5 86.334 -50.5 137.001s-22 101 -27 151
s-7.5 104.333 -7.5 163v566h-161v352h869v-352h-148v-670c0 -32.667 3.16699 -63.334 9.5 -92.001s16.333 -55.5 30 -80.5s33.334 -44.833 59.001 -59.5s55.834 -22 90.501 -22c61.333 0 109.333 17 144 51s52 80.333 52 139v734h-164v352h654v-352h-154v-750zM1170 2005
l-554 -313l-104 141l474 437z" />
    <glyph glyph-name="Ucircumflex" unicode="&#xdb;" 
d="M1485 520c0 -105.333 -30.668 -200.5 -92.001 -285.5s-141.333 -150.167 -240 -195.5s-205 -68 -319 -68c-72.667 0 -138.667 6.83301 -198 20.5s-110.5 32.5 -153.5 56.5s-80.833 54 -113.5 90s-59.334 74.333 -80.001 115s-37.5 86.334 -50.5 137.001s-22 101 -27 151
s-7.5 104.333 -7.5 163v566h-161v352h869v-352h-148v-670c0 -32.667 3.16699 -63.334 9.5 -92.001s16.333 -55.5 30 -80.5s33.334 -44.833 59.001 -59.5s55.834 -22 90.501 -22c61.333 0 109.333 17 144 51s52 80.333 52 139v734h-164v352h654v-352h-154v-750zM975.999 2162
l274 -376l-154 -101l-255 245l-255 -245l-154 101l273 377z" />
    <glyph glyph-name="Udieresis" unicode="&#xdc;" 
d="M1485 1270h154.001v352h-654v-352h164v-734c0 -58.667 -17.333 -105 -52 -139s-82.667 -51 -144 -51c-34.667 0 -64.834 7.33301 -90.501 22s-45.334 34.5 -59.001 59.5s-23.667 51.833 -30 80.5s-9.5 59.334 -9.5 92.001v670h148v352h-869v-352h161v-566
c0 -58.667 2.5 -113 7.5 -163s14 -100.333 27 -151s29.833 -96.334 50.5 -137.001s47.334 -79 80.001 -115s70.5 -66 113.5 -90s94.167 -42.833 153.5 -56.5s125.333 -20.5 198 -20.5c114 0 220.333 22.667 319 68s178.667 110.5 240 195.5s92 180.167 92 285.5v750z
M758.001 1904c0 -72 -22.167 -128.333 -66.5 -169s-96.833 -61 -157.5 -61c-62 0 -115.5 20.5 -160.5 61.5s-67.5 98.167 -67.5 171.5c0 71.333 22.333 127 67 167s97.667 60 159 60s114.333 -20.167 159 -60.5s67 -96.833 67 -169.5zM1375 1904
c0 -72 -22.167 -128.333 -66.5 -169s-96.833 -61 -157.5 -61c-62 0 -115.5 20.5 -160.5 61.5s-67.5 98.167 -67.5 171.5c0 71.333 22.333 127 67 167s97.667 60 159 60s114.333 -20.167 159 -60.5s67 -96.833 67 -169.5z" />
    <glyph glyph-name="Yacute" unicode="&#xdd;" horiz-adv-x="1559" 
d="M1564 1270h-74c-23.333 0 -43.833 -2.66699 -61.5 -8s-32.5 -11.5 -44.5 -18.5s-24.667 -19.5 -38 -37.5s-23.833 -33.5 -31.5 -46.5s-19.5 -34.5 -35.5 -64.5l-204 -371v-365h157v-359h-869v359h155v313l-421 598h-112v352h852v-352h-91
c14.667 -20 45.5 -66.167 92.5 -138.5s77.5 -118.5 91.5 -138.5c76 115.333 114 191.333 114 228c0 6 -0.5 11.5 -1.5 16.5s-2.83301 9.16699 -5.5 12.5l-7.5 9c-2.33301 2.66699 -6 4.66699 -11 6l-13 3.5c-3.66699 1 -9.16699 1.5 -16.5 1.5h-18h-21.5h-22.5v352h637v-352
zM1106 2005l-554 -313l-104 141l474 437z" />
    <glyph glyph-name="Thorn" unicode="&#xde;" horiz-adv-x="1638" 
d="M90 363l156.001 0.00195312v1125h-151v355h710l-1 -300c49.333 0 93.333 -0.333008 132 -1s81.667 -2.83398 129 -6.50098s89.166 -8.83398 125.499 -15.501s74.333 -16 114 -28s74 -26.167 103 -42.5s57.167 -36.666 84.5 -60.999s49.5 -51.666 66.5 -81.999
s30.667 -65.833 41 -106.5s15.5 -85.334 15.5 -134.001c0 -89.333 -15.667 -166.833 -47 -232.5s-76.5 -118.334 -135.5 -158.001s-128 -69 -207 -88s-169.167 -28.5 -270.5 -28.5c-47.333 0 -97.333 3.33301 -150 10v-206h146v-363h-861v363zM805.001 895.002h61
c73.333 0 129.5 12.5 168.5 37.5s58.5 66.167 58.5 123.5c0 50.667 -17.833 88.667 -53.5 114s-79.167 38 -130.5 38h-104v-313z" />
    <glyph glyph-name="germandbls" unicode="&#xdf;" horiz-adv-x="1633" 
d="M803 1623c86 0 164.5 -7.16504 235.5 -21.498s130.667 -33.666 179 -57.999s88.833 -53.166 121.5 -86.499s56.5 -68.5 71.5 -105.5s22.5 -75.5 22.5 -115.5c0 -64 -20 -126.333 -60 -187s-95.333 -111 -166 -151c127.333 -40.667 226.166 -104.334 296.499 -191.001
s105.5 -179.334 105.5 -278.001c0 -59.333 -13.167 -115.5 -39.5 -168.5s-64.666 -100.333 -114.999 -142s-116.166 -74.834 -197.499 -99.501s-173.333 -37 -276 -37l-1 367c96.667 54.667 145 116 145 184c0 61.333 -30.333 112.833 -91 154.5
s-149.334 62.5 -266.001 62.5l-3 151c58.667 0 109.167 24 151.5 72s63.5 98.333 63.5 151c0 45.333 -12 81.833 -36 109.5s-60.667 41.5 -110 41.5c-40.667 0 -74.334 -11.5 -101.001 -34.5s-40 -59.5 -40 -109.5l1 -782c84 0 134.333 0.333008 151 1v-350h-851v369h172
v723c0 80 9.83301 150.333 29.5 211s47.334 111.167 83.001 151.5s80.5 73.166 134.5 98.499s112.5 43.333 175.5 54s134.5 16 214.5 16z" />
    <glyph glyph-name="agrave" unicode="&#xe0;" horiz-adv-x="1294" 
d="M30 308c0 -99.333 37.833 -178.501 113.5 -237.501s167.5 -88.5 275.5 -88.5c54.667 0 111 12 169 36s103.667 57.667 137 101l50 -119h472v305h-76v445c0 46 -8.5 87.5 -25.5 124.5s-38 67.167 -63 90.5s-56.333 43.5 -94 60.5s-72.667 29.667 -105 38
s-69.333 14.833 -111 19.5s-73.5 7.33398 -95.5 8.00098s-46.667 1 -74 1c-71.333 0 -147.333 -5.83301 -228 -17.5s-143.334 -23.167 -188.001 -34.5l-67 -18v-314h175c48 63.333 119.667 95 215 95c140.667 0 211 -55.333 211 -166v-45
c-73.333 25.333 -158.666 38 -255.999 38c-55.333 0 -108.5 -6.83301 -159.5 -20.5s-97.167 -33.5 -138.5 -59.5s-74.5 -60 -99.5 -102s-37.5 -88.667 -37.5 -140zM520 325.999c0 28.667 10.332 54.5 30.999 77.5s45.334 34.5 74.001 34.5c14.667 0 30.167 -1.66699 46.5 -5
s29.166 -7 38.499 -11l14 -5v-147c-2.66699 -3.33301 -6.66699 -7.5 -12 -12.5s-17.333 -11.833 -36 -20.5s-38.667 -13 -60 -13c-29.333 0 -52.666 9.5 -69.999 28.5s-26 43.5 -26 73.5zM495.999 1708l474 -437l-104 -141l-554 313z" />
    <glyph glyph-name="aacute" unicode="&#xe1;" horiz-adv-x="1294" 
d="M30 308c0 51.333 12.5 98.001 37.5 140.001s58.167 76 99.5 102s87.5 45.833 138.5 59.5s104.167 20.5 159.5 20.5c97.333 0 182.666 -12.667 255.999 -38v45c0 110.667 -70.333 166 -211 166c-95.333 0 -167 -31.667 -215 -95h-175v314l67 18
c44.667 11.333 107.334 22.833 188.001 34.5s156.667 17.5 228 17.5c27.333 0 52 -0.333008 74 -1s53.833 -3.33398 95.5 -8.00098s78.667 -11.167 111 -19.5s67.333 -21 105 -38s69 -37.167 94 -60.5s46 -53.5 63 -90.5s25.5 -78.5 25.5 -124.5v-445h76v-305h-472l-50 119
c-33.333 -43.333 -79 -77 -137 -101s-114.333 -36 -169 -36c-108 0 -199.833 29.5 -275.5 88.5s-113.5 138.167 -113.5 237.5zM520 326.001c0 -30 8.66797 -54.5 26.001 -73.5s40.666 -28.5 69.999 -28.5c21.333 0 41.333 4.33301 60 13s30.667 15.5 36 20.5
s9.33301 9.16699 12 12.5v147l-14 5c-9.33301 4 -22.166 7.66699 -38.499 11s-31.833 5 -46.5 5c-28.667 0 -53.334 -11.5 -74.001 -34.5s-31 -48.833 -31 -77.5zM1092 1443l-554 -313l-104 141l474 437z" />
    <glyph glyph-name="acircumflex" unicode="&#xe2;" horiz-adv-x="1294" 
d="M30 308c0 51.333 12.5 98.001 37.5 140.001s58.167 76 99.5 102s87.5 45.833 138.5 59.5s104.167 20.5 159.5 20.5c97.333 0 182.666 -12.667 255.999 -38v45c0 110.667 -70.333 166 -211 166c-95.333 0 -167 -31.667 -215 -95h-175v314l67 18
c44.667 11.333 107.334 22.833 188.001 34.5s156.667 17.5 228 17.5c27.333 0 52 -0.333008 74 -1s53.833 -3.33398 95.5 -8.00098s78.667 -11.167 111 -19.5s67.333 -21 105 -38s69 -37.167 94 -60.5s46 -53.5 63 -90.5s25.5 -78.5 25.5 -124.5v-445h76v-305h-472l-50 119
c-33.333 -43.333 -79 -77 -137 -101s-114.333 -36 -169 -36c-108 0 -199.833 29.5 -275.5 88.5s-113.5 138.167 -113.5 237.5zM520 326.001c0 -30 8.66797 -54.5 26.001 -73.5s40.666 -28.5 69.999 -28.5c21.333 0 41.333 4.33301 60 13s30.667 15.5 36 20.5
s9.33301 9.16699 12 12.5v147l-14 5c-9.33301 4 -22.166 7.66699 -38.499 11s-31.833 5 -46.5 5c-28.667 0 -53.334 -11.5 -74.001 -34.5s-31 -48.833 -31 -77.5zM776.001 1600l274 -376l-154 -101l-255 245l-255 -245l-154 101l273 377z" />
    <glyph glyph-name="atilde" unicode="&#xe3;" horiz-adv-x="1294" 
d="M30 308c0 -99.333 37.833 -178.501 113.5 -237.501s167.5 -88.5 275.5 -88.5c54.667 0 111 12 169 36s103.667 57.667 137 101l50 -119h472v305h-76v445c0 46 -8.5 87.5 -25.5 124.5s-38 67.167 -63 90.5s-56.333 43.5 -94 60.5s-72.667 29.667 -105 38
s-69.333 14.833 -111 19.5s-73.5 7.33398 -95.5 8.00098s-46.667 1 -74 1c-71.333 0 -147.333 -5.83301 -228 -17.5s-143.334 -23.167 -188.001 -34.5l-67 -18v-314h175c48 63.333 119.667 95 215 95c140.667 0 211 -55.333 211 -166v-45
c-73.333 25.333 -158.666 38 -255.999 38c-55.333 0 -108.5 -6.83301 -159.5 -20.5s-97.167 -33.5 -138.5 -59.5s-74.5 -60 -99.5 -102s-37.5 -88.667 -37.5 -140zM520 325.999c0 28.667 10.332 54.5 30.999 77.5s45.334 34.5 74.001 34.5c14.667 0 30.167 -1.66699 46.5 -5
s29.166 -7 38.499 -11l14 -5v-147c-2.66699 -3.33301 -6.66699 -7.5 -12 -12.5s-17.333 -11.833 -36 -20.5s-38.667 -13 -60 -13c-29.333 0 -52.666 9.5 -69.999 28.5s-26 43.5 -26 73.5zM788.999 1523c29.333 0 56 -6.33301 80 -19s44.667 -30.5 62 -53.5
s32.5 -45.833 45.5 -68.5s27.333 -49 43 -79s29.5 -53.667 41.5 -71l-113 -74c-48.667 46.667 -82.167 76.334 -100.5 89.001s-33.833 19 -46.5 19c-30 0 -65.667 -10 -107 -30l-128.5 -60.5c-44.333 -20.333 -84.833 -30.5 -121.5 -30.5c-30 0 -57 6.16699 -81 18.5
s-44.833 30 -62.5 53s-32.834 45.667 -45.501 68l-43 79c-16 30.333 -30 54.166 -42 71.499l114 75c50.667 -48.667 85.334 -79.5 104.001 -92.5s34 -19.5 46 -19.5c24 0 51.667 6.5 83 19.5s60 27.333 86 43s56 30 90 43s66 19.5 96 19.5z" />
    <glyph glyph-name="adieresis" unicode="&#xe4;" horiz-adv-x="1294" 
d="M30 308c0 -99.333 37.833 -178.501 113.5 -237.501s167.5 -88.5 275.5 -88.5c54.667 0 111 12 169 36s103.667 57.667 137 101l50 -119h472v305h-76v445c0 46 -8.5 87.5 -25.5 124.5s-38 67.167 -63 90.5s-56.333 43.5 -94 60.5s-72.667 29.667 -105 38
s-69.333 14.833 -111 19.5s-73.5 7.33398 -95.5 8.00098s-46.667 1 -74 1c-71.333 0 -147.333 -5.83301 -228 -17.5s-143.334 -23.167 -188.001 -34.5l-67 -18v-314h175c48 63.333 119.667 95 215 95c140.667 0 211 -55.333 211 -166v-45
c-73.333 25.333 -158.666 38 -255.999 38c-55.333 0 -108.5 -6.83301 -159.5 -20.5s-97.167 -33.5 -138.5 -59.5s-74.5 -60 -99.5 -102s-37.5 -88.667 -37.5 -140zM520 325.999c0 28.667 10.332 54.5 30.999 77.5s45.334 34.5 74.001 34.5c14.667 0 30.167 -1.66699 46.5 -5
s29.166 -7 38.499 -11l14 -5v-147c-2.66699 -3.33301 -6.66699 -7.5 -12 -12.5s-17.333 -11.833 -36 -20.5s-38.667 -13 -60 -13c-29.333 0 -52.666 9.5 -69.999 28.5s-26 43.5 -26 73.5zM558.999 1342c0 -72 -22.167 -128.333 -66.5 -169s-96.833 -61 -157.5 -61
c-62 0 -115.5 20.5 -160.5 61.5s-67.5 98.167 -67.5 171.5c0 71.333 22.333 127 67 167s97.667 60 159 60s114.333 -20.167 159 -60.5s67 -96.833 67 -169.5zM1176 1342c0 -72 -22.167 -128.333 -66.5 -169s-96.833 -61 -157.5 -61c-62 0 -115.5 20.5 -160.5 61.5
s-67.5 98.167 -67.5 171.5c0 71.333 22.333 127 67 167s97.667 60 159 60s114.333 -20.167 159 -60.5s67 -96.833 67 -169.5z" />
    <glyph glyph-name="aring" unicode="&#xe5;" horiz-adv-x="1294" 
d="M30 308c0 51.333 12.5 98.001 37.5 140.001s58.167 76 99.5 102s87.5 45.833 138.5 59.5s104.167 20.5 159.5 20.5c97.333 0 182.666 -12.667 255.999 -38v45c0 110.667 -70.333 166 -211 166c-95.333 0 -167 -31.667 -215 -95h-175v314l67 18
c44.667 11.333 107.334 22.833 188.001 34.5s156.667 17.5 228 17.5c27.333 0 52 -0.333008 74 -1s53.833 -3.33398 95.5 -8.00098s78.667 -11.167 111 -19.5s67.333 -21 105 -38s69 -37.167 94 -60.5s46 -53.5 63 -90.5s25.5 -78.5 25.5 -124.5v-445h76v-305h-472l-50 119
c-33.333 -43.333 -79 -77 -137 -101s-114.333 -36 -169 -36c-108 0 -199.833 29.5 -275.5 88.5s-113.5 138.167 -113.5 237.5zM520 326.001c0 -30 8.66797 -54.5 26.001 -73.5s40.666 -28.5 69.999 -28.5c21.333 0 41.333 4.33301 60 13s30.667 15.5 36 20.5
s9.33301 9.16699 12 12.5v147l-14 5c-9.33301 4 -22.166 7.66699 -38.499 11s-31.833 5 -46.5 5c-28.667 0 -53.334 -11.5 -74.001 -34.5s-31 -48.833 -31 -77.5zM637.001 1240c51.333 0 91.667 14.667 121 44s44 64 44 104c0 39.333 -14.5 73.333 -43.5 102
s-69.5 43 -121.5 43c-50.667 0 -90.167 -14.333 -118.5 -43s-42.5 -62.667 -42.5 -102c0 -40 14.333 -74.667 43 -104s68 -44 118 -44zM637.002 1138c-84.667 0 -151 25 -199 75s-72 108.667 -72 176c0 66 23.667 123.167 71 171.5s114 72.5 200 72.5
c88.667 0 157.5 -24 206.5 -72s73.5 -105.333 73.5 -172c0 -67.333 -24.833 -126 -74.5 -176s-118.167 -75 -205.5 -75z" />
    <glyph glyph-name="ae" unicode="&#xe6;" horiz-adv-x="1911" 
d="M30 299c0 51.333 12.4971 97.999 37.4971 139.999s58.167 76 99.5 102s87.5 45.833 138.5 59.5s104.167 20.5 159.5 20.5c97.333 0 182.666 -12.667 255.999 -38v45c0 110.667 -70.333 166 -211 166c-95.333 0 -167 -31.667 -215 -95h-175v314l67 17
c44.667 12 107.334 23.833 188.001 35.5s156.667 17.5 228 17.5c45.333 0 89.333 -4.33301 132 -13s77 -18.5 103 -29.5s50.5 -23.5 73.5 -37.5s37.833 -23.667 44.5 -29s11.667 -9.66602 15 -12.999l14 13c8.66699 8.66699 23 19 43 31s42.833 24 68.5 36s58 22.333 97 31
s79.5 13 121.5 13c114.667 0 214.334 -24.5 299.001 -73.5s147.834 -113.5 189.501 -193.5s62.5 -170 62.5 -270c0 -22.667 -1.66699 -49 -5 -79c-6 -14 -10.5 -22.167 -13.5 -24.5s-10.833 -3.5 -23.5 -3.5h-602c0 -62 15.833 -115.167 47.5 -159.5
s74.834 -66.5 129.501 -66.5c48 0 83 11.667 105 35s33.667 59.333 35 108h307v-238c-88 -52.667 -174.5 -90 -259.5 -112s-180.833 -33 -287.5 -33c-126 0 -236.667 43.333 -332 130c-68.667 -50.667 -144.5 -85.667 -227.5 -105s-189.833 -28.333 -320.5 -27
c-70 0.666992 -134 13.5 -192 38.5s-105.333 62.5 -142 112.5s-55 108.333 -55 175zM519.997 316.999c0 -30 8.66797 -54.5 26.001 -73.5s40.666 -28.5 69.999 -28.5c21.333 0 41.333 4.33301 60 13s30.667 15.5 36 20.5s9.33301 9.16699 12 12.5v147l-14 5
c-9.33301 3.33301 -22.166 6.83301 -38.499 10.5s-31.833 5.5 -46.5 5.5c-28.667 0 -53.334 -11.5 -74.001 -34.5s-31 -48.833 -31 -77.5zM1224 619.999h215c0.666992 23.333 0.166992 43.666 -1.5 60.999s-5.5 36.833 -11.5 58.5s-17 38.334 -33 50.001
s-36.333 17.5 -61 17.5c-36 0 -63 -16.167 -81 -48.5s-27 -68.833 -27 -109.5v-29z" />
    <glyph glyph-name="ccedilla" unicode="&#xe7;" horiz-adv-x="1112" 
d="M44 546c0 72.667 12.168 142.002 36.501 208.002s58.333 124 102 174s98.5 89.833 164.5 119.5s138 44.5 216 44.5c91.333 0 177.333 -32.333 258 -97l41 77h175v-444h-242c0 44 -12 80 -36 108s-53 42 -87 42c-42 0 -78.333 -21.667 -109 -65s-46 -110 -46 -200
c0 -26.667 2.5 -52 7.5 -76s13.167 -47 24.5 -69s27.5 -39.667 48.5 -53s45.833 -20 74.5 -20c21.333 0 40.166 4.66699 56.499 14s28.666 19.666 36.999 30.999s15.333 24.5 21 39.5s9 25.5 10 31.5s1.83301 10.667 2.5 14h240v-301c-46 -46 -110.333 -81.167 -193 -105.5
s-166 -36.5 -250 -36.5c-105.333 0 -199.166 21.167 -281.499 63.5s-148 106.666 -197 192.999s-73.5 188.833 -73.5 307.5zM475.001 0.00195312l179.999 -0.00292969v-119c88.667 -51.333 133 -106.666 133 -165.999c0 -54.667 -36.167 -101.667 -108.5 -141
s-159.166 -59 -260.499 -59h-21v113c64.667 0.666992 112 10.334 142 29.001s45 42.667 45 72c0 26.667 -10.667 54.334 -32 83.001s-47.333 51.667 -78 69v119z" />
    <glyph glyph-name="egrave" unicode="&#xe8;" horiz-adv-x="1224" 
d="M611 -18c106.667 0 202.502 11.001 287.502 33.001s171.5 59.333 259.5 112v238h-307c-1.33301 -48.667 -13 -84.667 -35 -108s-57 -35 -105 -35c-54.667 0 -97.834 22.167 -129.501 66.5s-47.5 97.5 -47.5 159.5h602c12.667 0 20.5 1.16699 23.5 3.5s7.5 10.5 13.5 24.5
c3.33301 30 5 56.333 5 79c0 100 -20.833 190 -62.5 270s-104.834 144.5 -189.501 193.5s-184.334 73.5 -299.001 73.5c-120 0 -224.833 -24.833 -314.5 -74.5s-157.5 -117.334 -203.5 -203.001s-69 -183.5 -69 -293.5c0 -98 24.333 -188 73 -270
s116.834 -147.333 204.501 -196s185.5 -73 293.5 -73zM536.002 656.001c0 40.667 9 77.167 27 109.5s45 48.5 81 48.5c24.667 0 45 -5.83301 61 -17.5s27 -28.334 33 -50.001s9.83301 -41.167 11.5 -58.5s2.16699 -37.666 1.5 -60.999h-215v29zM460.002 1708l474 -437
l-104 -141l-554 313z" />
    <glyph glyph-name="eacute" unicode="&#xe9;" horiz-adv-x="1224" 
d="M611 -18c-108 0 -205.835 24.332 -293.502 72.999s-155.834 114 -204.501 196s-73 172 -73 270c0 110 23 207.833 69 293.5s113.833 153.334 203.5 203.001s194.5 74.5 314.5 74.5c114.667 0 214.334 -24.5 299.001 -73.5s147.834 -113.5 189.501 -193.5
s62.5 -170 62.5 -270c0 -22.667 -1.66699 -49 -5 -79c-6 -14 -10.5 -22.167 -13.5 -24.5s-10.833 -3.5 -23.5 -3.5h-602c0 -62 15.833 -115.167 47.5 -159.5s74.834 -66.5 129.501 -66.5c48 0 83 11.667 105 35s33.667 59.333 35 108h307v-238
c-88 -52.667 -174.5 -90 -259.5 -112s-180.833 -33 -287.5 -33zM535.998 626.999h215c0.666992 23.333 0.166992 43.666 -1.5 60.999s-5.5 36.833 -11.5 58.5s-17 38.334 -33 50.001s-36.333 17.5 -61 17.5c-36 0 -63 -16.167 -81 -48.5s-27 -68.833 -27 -109.5v-29z
M933.998 1443l-554 -313l-104 141l474 437z" />
    <glyph glyph-name="ecircumflex" unicode="&#xea;" horiz-adv-x="1224" 
d="M611 -18c-108 0 -205.835 24.332 -293.502 72.999s-155.834 114 -204.501 196s-73 172 -73 270c0 110 23 207.833 69 293.5s113.833 153.334 203.5 203.001s194.5 74.5 314.5 74.5c114.667 0 214.334 -24.5 299.001 -73.5s147.834 -113.5 189.501 -193.5
s62.5 -170 62.5 -270c0 -22.667 -1.66699 -49 -5 -79c-6 -14 -10.5 -22.167 -13.5 -24.5s-10.833 -3.5 -23.5 -3.5h-602c0 -62 15.833 -115.167 47.5 -159.5s74.834 -66.5 129.501 -66.5c48 0 83 11.667 105 35s33.667 59.333 35 108h307v-238
c-88 -52.667 -174.5 -90 -259.5 -112s-180.833 -33 -287.5 -33zM535.998 626.999h215c0.666992 23.333 0.166992 43.666 -1.5 60.999s-5.5 36.833 -11.5 58.5s-17 38.334 -33 50.001s-36.333 17.5 -61 17.5c-36 0 -63 -16.167 -81 -48.5s-27 -68.833 -27 -109.5v-29z
M739.998 1600l274 -376l-154 -101l-255 245l-255 -245l-154 101l273 377z" />
    <glyph glyph-name="edieresis" unicode="&#xeb;" horiz-adv-x="1224" 
d="M611 -18c106.667 0 202.502 11.001 287.502 33.001s171.5 59.333 259.5 112v238h-307c-1.33301 -48.667 -13 -84.667 -35 -108s-57 -35 -105 -35c-54.667 0 -97.834 22.167 -129.501 66.5s-47.5 97.5 -47.5 159.5h602c12.667 0 20.5 1.16699 23.5 3.5s7.5 10.5 13.5 24.5
c3.33301 30 5 56.333 5 79c0 100 -20.833 190 -62.5 270s-104.834 144.5 -189.501 193.5s-184.334 73.5 -299.001 73.5c-120 0 -224.833 -24.833 -314.5 -74.5s-157.5 -117.334 -203.5 -203.001s-69 -183.5 -69 -293.5c0 -98 24.333 -188 73 -270
s116.834 -147.333 204.501 -196s185.5 -73 293.5 -73zM536.002 656.001c0 40.667 9 77.167 27 109.5s45 48.5 81 48.5c24.667 0 45 -5.83301 61 -17.5s27 -28.334 33 -50.001s9.83301 -41.167 11.5 -58.5s2.16699 -37.666 1.5 -60.999h-215v29zM523.002 1342
c0 -72 -22.167 -128.333 -66.5 -169s-96.833 -61 -157.5 -61c-62 0 -115.5 20.5 -160.5 61.5s-67.5 98.167 -67.5 171.5c0 71.333 22.333 127 67 167s97.667 60 159 60s114.333 -20.167 159 -60.5s67 -96.833 67 -169.5zM1140 1342c0 -72 -22.167 -128.333 -66.5 -169
s-96.833 -61 -157.5 -61c-62 0 -115.5 20.5 -160.5 61.5s-67.5 98.167 -67.5 171.5c0 71.333 22.333 127 67 167s97.667 60 159 60s114.333 -20.167 159 -60.5s67 -96.833 67 -169.5z" />
    <glyph glyph-name="igrave" unicode="&#xec;" horiz-adv-x="814" 
d="M270 1708l474 -437l-104 -141l-554 313zM661 1072h-570v-325h89v-448h-82v-299h647v299h-84v773z" />
    <glyph glyph-name="iacute" unicode="&#xed;" horiz-adv-x="814" 
d="M744 1443l-554 -313l-104 141l474 437zM661 299h84v-299h-647v299h82v448h-89v325h570v-773z" />
    <glyph glyph-name="icircumflex" unicode="&#xee;" horiz-adv-x="813" 
d="M550 1600l274 -376l-154 -101l-255 245l-255 -245l-154 101l273 377zM661 299h84v-299h-647v299h82v448h-89v325h570v-773z" />
    <glyph glyph-name="idieresis" unicode="&#xef;" horiz-adv-x="815" 
d="M334 1342c0 -72 -22.167 -128.333 -66.5 -169s-96.833 -61 -157.5 -61c-62 0 -115.5 20.5 -160.5 61.5s-67.5 98.167 -67.5 171.5c0 71.333 22.333 127 67 167s97.667 60 159 60s114.333 -20.167 159 -60.5s67 -96.833 67 -169.5zM951 1342
c0 -72 -22.167 -128.333 -66.5 -169s-96.833 -61 -157.5 -61c-62 0 -115.5 20.5 -160.5 61.5s-67.5 98.167 -67.5 171.5c0 71.333 22.333 127 67 167s97.667 60 159 60s114.333 -20.167 159 -60.5s67 -96.833 67 -169.5zM662 1072h-570v-325h89v-448h-82v-299h647v299h-84
v773z" />
    <glyph glyph-name="eth" unicode="&#xf0;" horiz-adv-x="1337" 
d="M1206 1585l63.0049 -156.999l-157 -63c101.333 -148.667 158.333 -353.334 171 -614.001c0.666992 -13.333 1 -33.333 1 -60c0 -78 -7.5 -151.5 -22.5 -220.5s-39 -133.5 -72 -193.5s-73.833 -111.667 -122.5 -155s-108.834 -77.5 -180.501 -102.5
s-151.834 -37.5 -240.501 -37.5c-94.667 0 -181.334 16.167 -260.001 48.5s-142.834 75.166 -192.501 128.499s-88 112.833 -115 178.5s-40.5 133.167 -40.5 202.5c0 50.667 7.5 99.667 22.5 147s38.5 91.833 70.5 133.5s71.167 77.834 117.5 108.501s102.833 55 169.5 73
s139.667 27 219 27h33c-16 61.333 -32 108 -48 140l-251 -101l-63 157l180 72c-41.333 16 -90 24 -146 24c-52 0 -93.667 -3.66699 -125 -11v311c103.333 22 201.333 33 294 33c197.333 0 357.666 -51.667 480.999 -155zM557.005 568.001c0 -153.333 37 -230 111 -230
c20 0 37 8.66699 51 26s23.833 39.5 29.5 66.5s9.66699 50.833 12 71.5s3.5 40 3.5 58c0 144.667 -32.667 217 -98 217c-72.667 0 -109 -69.667 -109 -209z" />
    <glyph glyph-name="ntilde" unicode="&#xf1;" horiz-adv-x="1482" 
d="M661 1072h-562.998v-311h76v-456h-83v-305h658v305h-88v319c0 31.333 9.5 58 28.5 80s44.167 33 75.5 33c24 0 45 -10.333 63 -31s27 -47 27 -79v-627h574v305h-80v375c0 274.667 -110 412 -330 412c-78.667 0 -148.834 -15.167 -210.501 -45.5
s-110.834 -73.833 -147.501 -130.5v156zM889.002 1523c29.333 0 56 -6.33301 80 -19s44.667 -30.5 62 -53.5s32.5 -45.833 45.5 -68.5s27.333 -49 43 -79s29.5 -53.667 41.5 -71l-113 -74c-48.667 46.667 -82.167 76.334 -100.5 89.001s-33.833 19 -46.5 19
c-30 0 -65.667 -10 -107 -30l-128.5 -60.5c-44.333 -20.333 -84.833 -30.5 -121.5 -30.5c-30 0 -57 6.16699 -81 18.5s-44.833 30 -62.5 53s-32.834 45.667 -45.501 68l-43 79c-16 30.333 -30 54.166 -42 71.499l114 75c50.667 -48.667 85.334 -79.5 104.001 -92.5
s34 -19.5 46 -19.5c24 0 51.667 6.5 83 19.5s60 27.333 86 43s56 30 90 43s66 19.5 96 19.5z" />
    <glyph glyph-name="ograve" unicode="&#xf2;" horiz-adv-x="1290" 
d="M43 547c0 173.333 53.667 307.333 161 402s254.333 142 441 142s333.667 -47.333 441 -142s161 -228.667 161 -402c0 -116.667 -25.5 -218 -76.5 -304s-121.667 -151 -212 -195s-194.833 -66 -313.5 -66s-223.167 22 -313.5 66s-161 109 -212 195
s-76.5 187.333 -76.5 304zM508 545c0 -167.333 45.665 -251 136.998 -251s137 83.667 137 251c0 34 -1.5 62.833 -4.5 86.5s-8.83301 47.834 -17.5 72.501s-22.667 43.334 -42 56.001s-43.666 19 -72.999 19s-53.666 -6.33301 -72.999 -19s-33.333 -31.334 -42 -56.001
s-14.5 -48.834 -17.5 -72.501s-4.5 -52.5 -4.5 -86.5zM494.998 1708l474 -437l-104 -141l-554 313z" />
    <glyph glyph-name="oacute" unicode="&#xf3;" horiz-adv-x="1290" 
d="M43 547c0 173.333 53.667 307.333 161 402s254.333 142 441 142s333.667 -47.333 441 -142s161 -228.667 161 -402c0 -116.667 -25.5 -218 -76.5 -304s-121.667 -151 -212 -195s-194.833 -66 -313.5 -66s-223.167 22 -313.5 66s-161 109 -212 195
s-76.5 187.333 -76.5 304zM508 545c0 -167.333 45.665 -251 136.998 -251s137 83.667 137 251c0 34 -1.5 62.833 -4.5 86.5s-8.83301 47.834 -17.5 72.501s-22.667 43.334 -42 56.001s-43.666 19 -72.999 19s-53.666 -6.33301 -72.999 -19s-33.333 -31.334 -42 -56.001
s-14.5 -48.834 -17.5 -72.501s-4.5 -52.5 -4.5 -86.5zM968.998 1443l-554 -313l-104 141l474 437z" />
    <glyph glyph-name="ocircumflex" unicode="&#xf4;" horiz-adv-x="1290" 
d="M43 547c0 173.333 53.667 307.333 161 402s254.333 142 441 142s333.667 -47.333 441 -142s161 -228.667 161 -402c0 -116.667 -25.5 -218 -76.5 -304s-121.667 -151 -212 -195s-194.833 -66 -313.5 -66s-223.167 22 -313.5 66s-161 109 -212 195
s-76.5 187.333 -76.5 304zM508 545c0 -167.333 45.665 -251 136.998 -251s137 83.667 137 251c0 34 -1.5 62.833 -4.5 86.5s-8.83301 47.834 -17.5 72.501s-22.667 43.334 -42 56.001s-43.666 19 -72.999 19s-53.666 -6.33301 -72.999 -19s-33.333 -31.334 -42 -56.001
s-14.5 -48.834 -17.5 -72.501s-4.5 -52.5 -4.5 -86.5zM774.998 1600l274 -376l-154 -101l-255 245l-255 -245l-154 101l273 377z" />
    <glyph glyph-name="otilde" unicode="&#xf5;" horiz-adv-x="1290" 
d="M43 547c0 173.333 53.667 307.333 161 402s254.333 142 441 142s333.667 -47.333 441 -142s161 -228.667 161 -402c0 -116.667 -25.5 -218 -76.5 -304s-121.667 -151 -212 -195s-194.833 -66 -313.5 -66s-223.167 22 -313.5 66s-161 109 -212 195
s-76.5 187.333 -76.5 304zM508 545c0 -167.333 45.665 -251 136.998 -251s137 83.667 137 251c0 34 -1.5 62.833 -4.5 86.5s-8.83301 47.834 -17.5 72.501s-22.667 43.334 -42 56.001s-43.666 19 -72.999 19s-53.666 -6.33301 -72.999 -19s-33.333 -31.334 -42 -56.001
s-14.5 -48.834 -17.5 -72.501s-4.5 -52.5 -4.5 -86.5zM812.998 1523c29.333 0 56 -6.33301 80 -19s44.667 -30.5 62 -53.5s32.5 -45.833 45.5 -68.5s27.333 -49 43 -79s29.5 -53.667 41.5 -71l-113 -74c-48.667 46.667 -82.167 76.334 -100.5 89.001s-33.833 19 -46.5 19
c-30 0 -65.667 -10 -107 -30l-128.5 -60.5c-44.333 -20.333 -84.833 -30.5 -121.5 -30.5c-30 0 -57 6.16699 -81 18.5s-44.833 30 -62.5 53s-32.834 45.667 -45.501 68l-43 79c-16 30.333 -30 54.166 -42 71.499l114 75c50.667 -48.667 85.334 -79.5 104.001 -92.5
s34 -19.5 46 -19.5c24 0 51.667 6.5 83 19.5s60 27.333 86 43s56 30 90 43s66 19.5 96 19.5z" />
    <glyph glyph-name="odieresis" unicode="&#xf6;" horiz-adv-x="1290" 
d="M43 547c0 173.333 53.667 307.333 161 402s254.333 142 441 142s333.667 -47.333 441 -142s161 -228.667 161 -402c0 -116.667 -25.5 -218 -76.5 -304s-121.667 -151 -212 -195s-194.833 -66 -313.5 -66s-223.167 22 -313.5 66s-161 109 -212 195
s-76.5 187.333 -76.5 304zM508 545c0 -167.333 45.665 -251 136.998 -251s137 83.667 137 251c0 34 -1.5 62.833 -4.5 86.5s-8.83301 47.834 -17.5 72.501s-22.667 43.334 -42 56.001s-43.666 19 -72.999 19s-53.666 -6.33301 -72.999 -19s-33.333 -31.334 -42 -56.001
s-14.5 -48.834 -17.5 -72.501s-4.5 -52.5 -4.5 -86.5zM557.998 1342c0 -72 -22.167 -128.333 -66.5 -169s-96.833 -61 -157.5 -61c-62 0 -115.5 20.5 -160.5 61.5s-67.5 98.167 -67.5 171.5c0 71.333 22.333 127 67 167s97.667 60 159 60s114.333 -20.167 159 -60.5
s67 -96.833 67 -169.5zM1175 1342c0 -72 -22.167 -128.333 -66.5 -169s-96.833 -61 -157.5 -61c-62 0 -115.5 20.5 -160.5 61.5s-67.5 98.167 -67.5 171.5c0 71.333 22.333 127 67 167s97.667 60 159 60s114.333 -20.167 159 -60.5s67 -96.833 67 -169.5z" />
    <glyph glyph-name="divide" unicode="&#xf7;" horiz-adv-x="920" 
d="M68 761v-223h774v223h-774zM471 -18c-65.333 0 -119.666 18.5 -162.999 55.5s-65 87.167 -65 150.5c0 61.333 21.167 110.166 63.5 146.499s97.166 54.5 164.499 54.5c69.333 0 126 -18.167 170 -54.5s66 -85.166 66 -146.499c0 -63.333 -22.667 -113.5 -68 -150.5
s-101.333 -55.5 -168 -55.5zM471 886c-65.333 0 -119.666 18.5 -162.999 55.5s-65 87.167 -65 150.5c0 61.333 21.167 110.166 63.5 146.499s97.166 54.5 164.499 54.5c69.333 0 126 -18.167 170 -54.5s66 -85.166 66 -146.499c0 -63.333 -22.667 -113.5 -68 -150.5
s-101.333 -55.5 -168 -55.5z" />
    <glyph glyph-name="oslash" unicode="&#xf8;" horiz-adv-x="1288" 
d="M43 547c0 173.333 53.667 307.333 161 402s254.333 142 441 142s333.667 -47.333 441 -142s161 -228.667 161 -402c0 -116.667 -25.5 -218 -76.5 -304s-121.667 -151 -212 -195s-194.833 -66 -313.5 -66s-223.167 22 -313.5 66s-161 109 -212 195
s-76.5 187.333 -76.5 304zM508 545c0 -167.333 45.665 -251 136.998 -251s137 83.667 137 251c0 34 -1.5 62.833 -4.5 86.5s-8.83301 47.834 -17.5 72.501s-22.667 43.334 -42 56.001s-43.666 19 -72.999 19s-53.666 -6.33301 -72.999 -19s-33.333 -31.334 -42 -56.001
s-14.5 -48.834 -17.5 -72.501s-4.5 -52.5 -4.5 -86.5zM245.998 -54l701 1246l87 -50l-701 -1246z" />
    <glyph glyph-name="ugrave" unicode="&#xf9;" horiz-adv-x="1466" 
d="M822 0h569.998v305h-76v767h-575v-311h81v-323c0 -34 -9.5 -62.5 -28.5 -85.5s-44.167 -34.5 -75.5 -34.5c-24 0 -45 11.167 -63 33.5s-27 51.166 -27 86.499v634h-574v-311h80v-376c0 -268.667 110 -403 330 -403c78.667 0 148.834 14.833 210.501 44.5
s110.834 72.834 147.501 129.501v-156zM583.998 1708l474 -437l-104 -141l-554 313z" />
    <glyph glyph-name="uacute" unicode="&#xfa;" horiz-adv-x="1466" 
d="M822 156c-36.667 -56.667 -85.832 -99.834 -147.499 -129.501s-131.834 -44.5 -210.501 -44.5c-220 0 -330 134.333 -330 403v376h-80v311h574v-634c0 -35.333 9 -64.166 27 -86.499s39 -33.5 63 -33.5c31.333 0 56.5 11.5 75.5 34.5s28.5 51.5 28.5 85.5v323h-81v311
h575v-767h76v-305h-570v156zM1058 1443l-554 -313l-104 141l474 437z" />
    <glyph glyph-name="ucircumflex" unicode="&#xfb;" horiz-adv-x="1466" 
d="M822 156c-36.667 -56.667 -85.832 -99.834 -147.499 -129.501s-131.834 -44.5 -210.501 -44.5c-220 0 -330 134.333 -330 403v376h-80v311h574v-634c0 -35.333 9 -64.166 27 -86.499s39 -33.5 63 -33.5c31.333 0 56.5 11.5 75.5 34.5s28.5 51.5 28.5 85.5v323h-81v311
h575v-767h76v-305h-570v156zM864.002 1600l274 -376l-154 -101l-255 245l-255 -245l-154 101l273 377z" />
    <glyph glyph-name="udieresis" unicode="&#xfc;" horiz-adv-x="1466" 
d="M822 0h569.998v305h-76v767h-575v-311h81v-323c0 -34 -9.5 -62.5 -28.5 -85.5s-44.167 -34.5 -75.5 -34.5c-24 0 -45 11.167 -63 33.5s-27 51.166 -27 86.499v634h-574v-311h80v-376c0 -268.667 110 -403 330 -403c78.667 0 148.834 14.833 210.501 44.5
s110.834 72.834 147.501 129.501v-156zM646.998 1342c0 -72 -22.167 -128.333 -66.5 -169s-96.833 -61 -157.5 -61c-62 0 -115.5 20.5 -160.5 61.5s-67.5 98.167 -67.5 171.5c0 71.333 22.333 127 67 167s97.667 60 159 60s114.333 -20.167 159 -60.5s67 -96.833 67 -169.5z
M1264 1342c0 -72 -22.167 -128.333 -66.5 -169s-96.833 -61 -157.5 -61c-62 0 -115.5 20.5 -160.5 61.5s-67.5 98.167 -67.5 171.5c0 71.333 22.333 127 67 167s97.667 60 159 60s114.333 -20.167 159 -60.5s67 -96.833 67 -169.5z" />
    <glyph glyph-name="yacute" unicode="&#xfd;" horiz-adv-x="1377" 
d="M557 31l-465.999 730h-88v311h680v-311h-68l176 -307l97 208c21.333 46 19.666 75.667 -5.00098 89c-13.333 6.66699 -43.333 10 -90 10v311h580v-311c-26 0 -48 -2.66699 -66 -8s-34 -15.333 -48 -30s-24.333 -27.5 -31 -38.5s-17 -29.833 -31 -56.5l-378 -710h232v-295
h-691zM1016 1443l-554 -313l-104 141l474 437z" />
    <glyph glyph-name="thorn" unicode="&#xfe;" horiz-adv-x="1405" 
d="M33 -398v303.998h84v1235h-74v306h564v-491h10c42.667 44.667 86.667 77 132 97s98.666 30 159.999 30c70.667 0 135 -15 193 -45s105.5 -70.333 142.5 -121s65.5 -108.167 85.5 -172.5s30 -132.166 30 -203.499c0 -70 -9.66699 -137.333 -29 -202
s-47.166 -123.167 -83.499 -175.5s-84 -94.166 -143 -125.499s-124.833 -47 -197.5 -47c-68.667 0 -130.5 12.5 -185.5 37.5s-96.833 55.167 -125.5 90.5v-215h111v-301zM598 405.998c1.33301 -7.33301 4.83008 -16.167 10.4971 -26.5s12.834 -20.833 21.501 -31.5
s21.334 -19.667 38.001 -27s35.667 -11 57 -11c32 0 59.333 7 82 21s39.834 33 51.501 57s20 48.833 25 74.5s7.5 53.167 7.5 82.5c0 129.333 -54.333 194 -163 194c-20.667 0 -39.167 -3.33301 -55.5 -10s-29 -14.167 -38 -22.5s-16.833 -18 -23.5 -29
s-10.667 -18.5 -12 -22.5s-2.33301 -7.33301 -3 -10v-228z" />
    <glyph glyph-name="ydieresis" unicode="&#xff;" horiz-adv-x="1377" 
d="M360 -377h690.999v295h-232l378 710c14 26.667 24.333 45.5 31 56.5s17 23.833 31 38.5s30 24.667 48 30s40 8 66 8v311h-580v-311c46.667 0 76.667 -3.33301 90 -10c24.667 -13.333 26.334 -43 5.00098 -89l-97 -208l-176 307h68v311h-680v-311h88l466 -730z
M604.999 1342c0 -72 -22.167 -128.333 -66.5 -169s-96.833 -61 -157.5 -61c-62 0 -115.5 20.5 -160.5 61.5s-67.5 98.167 -67.5 171.5c0 71.333 22.333 127 67 167s97.667 60 159 60s114.333 -20.167 159 -60.5s67 -96.833 67 -169.5zM1222 1342
c0 -72 -22.167 -128.333 -66.5 -169s-96.833 -61 -157.5 -61c-62 0 -115.5 20.5 -160.5 61.5s-67.5 98.167 -67.5 171.5c0 71.333 22.333 127 67 167s97.667 60 159 60s114.333 -20.167 159 -60.5s67 -96.833 67 -169.5z" />
    <glyph glyph-name="Amacron" unicode="&#x100;" horiz-adv-x="1643" 
d="M1185 1623h-994.003v-353h212l-172 -679c-18 -70 -30.667 -113 -38 -129c-22 -50.667 -59 -82.334 -111 -95.001c-22.667 -5.33301 -48.667 -8 -78 -8v-359h678v359h-84c-14 0 -24.667 12 -32 36s-11 45.333 -11 64c0.666992 14 1.33398 24.667 2.00098 32
s3.33398 14.5 8.00098 21.5s11.334 10.5 20.001 10.5h275c44.667 0 67 -54.667 67 -164h-120l1 -359h826v359h-86c-10 0 -18.667 4.16699 -26 12.5s-12.833 17.833 -16.5 28.5s-8.16699 26.334 -13.5 47.001zM611.997 773l112 508l117 -508h-229zM1195 1734h-748v335h748
v-335z" />
    <glyph glyph-name="amacron" unicode="&#x101;" horiz-adv-x="1294" 
d="M30 308c0 -99.333 37.833 -178.501 113.5 -237.501s167.5 -88.5 275.5 -88.5c54.667 0 111 12 169 36s103.667 57.667 137 101l50 -119h472v305h-76v445c0 46 -8.5 87.5 -25.5 124.5s-38 67.167 -63 90.5s-56.333 43.5 -94 60.5s-72.667 29.667 -105 38
s-69.333 14.833 -111 19.5s-73.5 7.33398 -95.5 8.00098s-46.667 1 -74 1c-71.333 0 -147.333 -5.83301 -228 -17.5s-143.334 -23.167 -188.001 -34.5l-67 -18v-314h175c48 63.333 119.667 95 215 95c140.667 0 211 -55.333 211 -166v-45
c-73.333 25.333 -158.666 38 -255.999 38c-55.333 0 -108.5 -6.83301 -159.5 -20.5s-97.167 -33.5 -138.5 -59.5s-74.5 -60 -99.5 -102s-37.5 -88.667 -37.5 -140zM520 325.999c0 28.667 10.332 54.5 30.999 77.5s45.334 34.5 74.001 34.5c14.667 0 30.167 -1.66699 46.5 -5
s29.166 -7 38.499 -11l14 -5v-147c-2.66699 -3.33301 -6.66699 -7.5 -12 -12.5s-17.333 -11.833 -36 -20.5s-38.667 -13 -60 -13c-29.333 0 -52.666 9.5 -69.999 28.5s-26 43.5 -26 73.5zM1021 1183h-748v335h748v-335z" />
    <glyph glyph-name="Abreve" unicode="&#x102;" horiz-adv-x="1643" 
d="M1185 1623h-994.003v-353h212l-172 -679c-18 -70 -30.667 -113 -38 -129c-22 -50.667 -59 -82.334 -111 -95.001c-22.667 -5.33301 -48.667 -8 -78 -8v-359h678v359h-84c-14 0 -24.667 12 -32 36s-11 45.333 -11 64c0.666992 14 1.33398 24.667 2.00098 32
s3.33398 14.5 8.00098 21.5s11.334 10.5 20.001 10.5h275c44.667 0 67 -54.667 67 -164h-120l1 -359h826v359h-86c-10 0 -18.667 4.16699 -26 12.5s-12.833 17.833 -16.5 28.5s-8.16699 26.334 -13.5 47.001zM611.997 773l112 508l117 -508h-229zM820.997 1796
c-132.667 0 -233.167 33.333 -301.5 100s-102.5 159 -102.5 277h252c0 -50.667 15 -90.167 45 -118.5s65.667 -42.5 107 -42.5s77 14.167 107 42.5s45 67.833 45 118.5h252c0 -117.333 -34.5 -209.5 -103.5 -276.5s-169.167 -100.5 -300.5 -100.5z" />
    <glyph glyph-name="abreve" unicode="&#x103;" horiz-adv-x="1294" 
d="M30 308c0 -99.333 37.833 -178.501 113.5 -237.501s167.5 -88.5 275.5 -88.5c54.667 0 111 12 169 36s103.667 57.667 137 101l50 -119h472v305h-76v445c0 46 -8.5 87.5 -25.5 124.5s-38 67.167 -63 90.5s-56.333 43.5 -94 60.5s-72.667 29.667 -105 38
s-69.333 14.833 -111 19.5s-73.5 7.33398 -95.5 8.00098s-46.667 1 -74 1c-71.333 0 -147.333 -5.83301 -228 -17.5s-143.334 -23.167 -188.001 -34.5l-67 -18v-314h175c48 63.333 119.667 95 215 95c140.667 0 211 -55.333 211 -166v-45
c-73.333 25.333 -158.666 38 -255.999 38c-55.333 0 -108.5 -6.83301 -159.5 -20.5s-97.167 -33.5 -138.5 -59.5s-74.5 -60 -99.5 -102s-37.5 -88.667 -37.5 -140zM520 325.999c0 28.667 10.332 54.5 30.999 77.5s45.334 34.5 74.001 34.5c14.667 0 30.167 -1.66699 46.5 -5
s29.166 -7 38.499 -11l14 -5v-147c-2.66699 -3.33301 -6.66699 -7.5 -12 -12.5s-17.333 -11.833 -36 -20.5s-38.667 -13 -60 -13c-29.333 0 -52.666 9.5 -69.999 28.5s-26 43.5 -26 73.5zM648.999 1245c-132.667 0 -233.167 33.333 -301.5 100s-102.5 159 -102.5 277h252
c0 -50.667 15 -90.167 45 -118.5s65.667 -42.5 107 -42.5s77 14.167 107 42.5s45 67.833 45 118.5h252c0 -117.333 -34.5 -209.5 -103.5 -276.5s-169.167 -100.5 -300.5 -100.5z" />
    <glyph glyph-name="Aogonek" unicode="&#x104;" horiz-adv-x="1643" 
d="M1185 1623h-994.003v-353h212l-172 -679c-18 -70 -30.667 -113 -38 -129c-22 -50.667 -59 -82.334 -111 -95.001c-22.667 -5.33301 -48.667 -8 -78 -8v-359h678v359h-84c-14 0 -24.667 12 -32 36s-11 45.333 -11 64c0.666992 14 1.33398 24.667 2.00098 32
s3.33398 14.5 8.00098 21.5s11.334 10.5 20.001 10.5h275c44.667 0 67 -54.667 67 -164h-120l1 -359h826v359h-86c-10 0 -18.667 4.16699 -26 12.5s-12.833 17.833 -16.5 28.5s-8.16699 26.334 -13.5 47.001zM611.997 773l112 508l117 -508h-229zM1587 0
c-19.333 -40 -41.6689 -80.333 -67.002 -121s-43.833 -71.834 -55.5 -93.501s-17.5 -40.5 -17.5 -56.5c0 -29.333 15 -53.333 45 -72s77.333 -28.334 142 -29.001v-113h-21c-101.333 0 -188.166 19.667 -260.499 59s-108.5 86.333 -108.5 141
c0 10.667 1.66699 21.334 5 32.001s10.333 25.334 21 44.001s20.334 34.667 29.001 48l48.5 72l59.5 89h180z" />
    <glyph glyph-name="aogonek" unicode="&#x105;" horiz-adv-x="1294" 
d="M30 308c0 -99.333 37.833 -178.501 113.5 -237.501s167.5 -88.5 275.5 -88.5c54.667 0 111 12 169 36s103.667 57.667 137 101l50 -119h472v305h-76v445c0 46 -8.5 87.5 -25.5 124.5s-38 67.167 -63 90.5s-56.333 43.5 -94 60.5s-72.667 29.667 -105 38
s-69.333 14.833 -111 19.5s-73.5 7.33398 -95.5 8.00098s-46.667 1 -74 1c-71.333 0 -147.333 -5.83301 -228 -17.5s-143.334 -23.167 -188.001 -34.5l-67 -18v-314h175c48 63.333 119.667 95 215 95c140.667 0 211 -55.333 211 -166v-45
c-73.333 25.333 -158.666 38 -255.999 38c-55.333 0 -108.5 -6.83301 -159.5 -20.5s-97.167 -33.5 -138.5 -59.5s-74.5 -60 -99.5 -102s-37.5 -88.667 -37.5 -140zM520 325.999c0 28.667 10.332 54.5 30.999 77.5s45.334 34.5 74.001 34.5c14.667 0 30.167 -1.66699 46.5 -5
s29.166 -7 38.499 -11l14 -5v-147c-2.66699 -3.33301 -6.66699 -7.5 -12 -12.5s-17.333 -11.833 -36 -20.5s-38.667 -13 -60 -13c-29.333 0 -52.666 9.5 -69.999 28.5s-26 43.5 -26 73.5zM1200 -0.000976562c-19.333 -40 -41.6689 -80.333 -67.002 -121
s-43.833 -71.834 -55.5 -93.501s-17.5 -40.5 -17.5 -56.5c0 -29.333 15 -53.333 45 -72s77.333 -28.334 142 -29.001v-113h-21c-101.333 0 -188.166 19.667 -260.499 59s-108.5 86.333 -108.5 141c0 10.667 1.66699 21.334 5 32.001s10.333 25.334 21 44.001
s20.334 34.667 29.001 48l48.5 72l59.5 89h180z" />
    <glyph glyph-name="Cacute" unicode="&#x106;" horiz-adv-x="1538" 
d="M1456 612l-300.998 -0.000976562c-2.66699 -49.333 -5.33398 -80.666 -8.00098 -93.999c-10 -53.333 -35.5 -95.833 -76.5 -127.5s-88.5 -47.5 -142.5 -47.5c-40.667 0 -76.334 7.33301 -107.001 22s-54.5 34.334 -71.5 59.001s-31.333 53 -43 85
s-18.834 65.333 -21.501 100s-5 69.5 -7 104.5s-2 67.5 0 97.5v44c0 31.333 0.333008 58 1 80s2.66699 49.333 6 82s8 60.5 14 83.5s15 47.167 27 72.5s26.167 46 42.5 62s37 29.167 62 39.5s53.167 15.5 84.5 15.5c42 0 79 -9.16699 111 -27.5s56.667 -42.5 74 -72.5
s30 -61.833 38 -95.5s11.667 -68.167 11 -103.5h298l-1 632h-311l-34 -71c-30 28.667 -67.5 50.834 -112.5 66.501s-85.167 25.167 -120.5 28.5s-77.666 5 -126.999 5c-94 0 -179.667 -16.333 -257 -49s-142 -76.334 -194 -131.001s-95.833 -118.834 -131.5 -192.501
s-61.5 -150.167 -77.5 -229.5s-24 -161.333 -24 -246c0 -168 28.5 -313.833 85.5 -437.5s143.667 -220.5 260 -290.5s257.166 -105 422.499 -105c69.333 0 138.5 8 207.5 24s127.833 35.167 176.5 57.5s92.334 44.833 131.001 67.5s67.667 42 87 58l29 24v410zM1098 1994
l-554 -313l-104 141l474 437z" />
    <glyph glyph-name="cacute" unicode="&#x107;" horiz-adv-x="1110" 
d="M43 546c0 -118.667 24.499 -221.169 73.499 -307.502s114.667 -150.666 197 -192.999s176.166 -63.5 281.499 -63.5c84 0 167.333 12.167 250 36.5s147 59.5 193 105.5v301h-240c-0.666992 -3.33301 -1.5 -8 -2.5 -14s-4.33301 -16.5 -10 -31.5
s-12.667 -28.167 -21 -39.5s-20.666 -21.666 -36.999 -30.999s-35.166 -14 -56.499 -14c-28.667 0 -53.5 6.66699 -74.5 20s-37.167 31 -48.5 53s-19.5 45 -24.5 69s-7.5 49.333 -7.5 76c0 90 15.333 156.667 46 200s67 65 109 65c34 0 63 -14 87 -42s36 -64 36 -108h242
v444h-175l-41 -77c-80.667 64.667 -166.667 97 -258 97c-78 0 -150 -14.833 -216 -44.5s-120.833 -69.5 -164.5 -119.5s-77.667 -108 -102 -174s-36.5 -135.333 -36.5 -208zM883.999 1443l-554 -313l-104 141l474 437z" />
    <glyph glyph-name="Ccircumflex" unicode="&#x108;" horiz-adv-x="1538" 
d="M1456 612l-300.998 -0.000976562c-2.66699 -49.333 -5.33398 -80.666 -8.00098 -93.999c-10 -53.333 -35.5 -95.833 -76.5 -127.5s-88.5 -47.5 -142.5 -47.5c-40.667 0 -76.334 7.33301 -107.001 22s-54.5 34.334 -71.5 59.001s-31.333 53 -43 85
s-18.834 65.333 -21.501 100s-5 69.5 -7 104.5s-2 67.5 0 97.5v44c0 31.333 0.333008 58 1 80s2.66699 49.333 6 82s8 60.5 14 83.5s15 47.167 27 72.5s26.167 46 42.5 62s37 29.167 62 39.5s53.167 15.5 84.5 15.5c42 0 79 -9.16699 111 -27.5s56.667 -42.5 74 -72.5
s30 -61.833 38 -95.5s11.667 -68.167 11 -103.5h298l-1 632h-311l-34 -71c-30 28.667 -67.5 50.834 -112.5 66.501s-85.167 25.167 -120.5 28.5s-77.666 5 -126.999 5c-94 0 -179.667 -16.333 -257 -49s-142 -76.334 -194 -131.001s-95.833 -118.834 -131.5 -192.501
s-61.5 -150.167 -77.5 -229.5s-24 -161.333 -24 -246c0 -168 28.5 -313.833 85.5 -437.5s143.667 -220.5 260 -290.5s257.166 -105 422.499 -105c69.333 0 138.5 8 207.5 24s127.833 35.167 176.5 57.5s92.334 44.833 131.001 67.5s67.667 42 87 58l29 24v410zM904.002 2151
l274 -376l-154 -101l-255 245l-255 -245l-154 101l273 377z" />
    <glyph glyph-name="ccircumflex" unicode="&#x109;" horiz-adv-x="1110" 
d="M43 546c0 -118.667 24.499 -221.169 73.499 -307.502s114.667 -150.666 197 -192.999s176.166 -63.5 281.499 -63.5c84 0 167.333 12.167 250 36.5s147 59.5 193 105.5v301h-240c-0.666992 -3.33301 -1.5 -8 -2.5 -14s-4.33301 -16.5 -10 -31.5
s-12.667 -28.167 -21 -39.5s-20.666 -21.666 -36.999 -30.999s-35.166 -14 -56.499 -14c-28.667 0 -53.5 6.66699 -74.5 20s-37.167 31 -48.5 53s-19.5 45 -24.5 69s-7.5 49.333 -7.5 76c0 90 15.333 156.667 46 200s67 65 109 65c34 0 63 -14 87 -42s36 -64 36 -108h242
v444h-175l-41 -77c-80.667 64.667 -166.667 97 -258 97c-78 0 -150 -14.833 -216 -44.5s-120.833 -69.5 -164.5 -119.5s-77.667 -108 -102 -174s-36.5 -135.333 -36.5 -208zM689.999 1600l274 -376l-154 -101l-255 245l-255 -245l-154 101l273 377z" />
    <glyph glyph-name="Cdotaccent" unicode="&#x10a;" horiz-adv-x="1538" 
d="M1456 612l-300.998 -0.000976562c-2.66699 -49.333 -5.33398 -80.666 -8.00098 -93.999c-10 -53.333 -35.5 -95.833 -76.5 -127.5s-88.5 -47.5 -142.5 -47.5c-40.667 0 -76.334 7.33301 -107.001 22s-54.5 34.334 -71.5 59.001s-31.333 53 -43 85
s-18.834 65.333 -21.501 100s-5 69.5 -7 104.5s-2 67.5 0 97.5v44c0 31.333 0.333008 58 1 80s2.66699 49.333 6 82s8 60.5 14 83.5s15 47.167 27 72.5s26.167 46 42.5 62s37 29.167 62 39.5s53.167 15.5 84.5 15.5c42 0 79 -9.16699 111 -27.5s56.667 -42.5 74 -72.5
s30 -61.833 38 -95.5s11.667 -68.167 11 -103.5h298l-1 632h-311l-34 -71c-30 28.667 -67.5 50.834 -112.5 66.501s-85.167 25.167 -120.5 28.5s-77.666 5 -126.999 5c-94 0 -179.667 -16.333 -257 -49s-142 -76.334 -194 -131.001s-95.833 -118.834 -131.5 -192.501
s-61.5 -150.167 -77.5 -229.5s-24 -161.333 -24 -246c0 -168 28.5 -313.833 85.5 -437.5s143.667 -220.5 260 -290.5s257.166 -105 422.499 -105c69.333 0 138.5 8 207.5 24s127.833 35.167 176.5 57.5s92.334 44.833 131.001 67.5s67.667 42 87 58l29 24v410zM764.002 1696
c-79.333 0 -145.333 22.5 -198 67.5s-79 105.833 -79 182.5c0 75.333 25.833 135 77.5 179s118.167 66 199.5 66c84.667 0 153.667 -22 207 -66s80 -103.667 80 -179c0 -76.667 -27.5 -137.5 -82.5 -182.5s-123.167 -67.5 -204.5 -67.5z" />
    <glyph glyph-name="cdotaccent" unicode="&#x10b;" horiz-adv-x="1110" 
d="M43 546c0 -118.667 24.499 -221.169 73.499 -307.502s114.667 -150.666 197 -192.999s176.166 -63.5 281.499 -63.5c84 0 167.333 12.167 250 36.5s147 59.5 193 105.5v301h-240c-0.666992 -3.33301 -1.5 -8 -2.5 -14s-4.33301 -16.5 -10 -31.5
s-12.667 -28.167 -21 -39.5s-20.666 -21.666 -36.999 -30.999s-35.166 -14 -56.499 -14c-28.667 0 -53.5 6.66699 -74.5 20s-37.167 31 -48.5 53s-19.5 45 -24.5 69s-7.5 49.333 -7.5 76c0 90 15.333 156.667 46 200s67 65 109 65c34 0 63 -14 87 -42s36 -64 36 -108h242
v444h-175l-41 -77c-80.667 64.667 -166.667 97 -258 97c-78 0 -150 -14.833 -216 -44.5s-120.833 -69.5 -164.5 -119.5s-77.667 -108 -102 -174s-36.5 -135.333 -36.5 -208zM551.999 1145c-79.333 0 -145.333 22.5 -198 67.5s-79 105.833 -79 182.5
c0 75.333 25.833 135 77.5 179s118.167 66 199.5 66c84.667 0 153.667 -22 207 -66s80 -103.667 80 -179c0 -76.667 -27.5 -137.5 -82.5 -182.5s-123.167 -67.5 -204.5 -67.5z" />
    <glyph glyph-name="Ccaron" unicode="&#x10c;" horiz-adv-x="1538" 
d="M1456 612l-300.998 -0.000976562c-2.66699 -49.333 -5.33398 -80.666 -8.00098 -93.999c-10 -53.333 -35.5 -95.833 -76.5 -127.5s-88.5 -47.5 -142.5 -47.5c-40.667 0 -76.334 7.33301 -107.001 22s-54.5 34.334 -71.5 59.001s-31.333 53 -43 85
s-18.834 65.333 -21.501 100s-5 69.5 -7 104.5s-2 67.5 0 97.5v44c0 31.333 0.333008 58 1 80s2.66699 49.333 6 82s8 60.5 14 83.5s15 47.167 27 72.5s26.167 46 42.5 62s37 29.167 62 39.5s53.167 15.5 84.5 15.5c42 0 79 -9.16699 111 -27.5s56.667 -42.5 74 -72.5
s30 -61.833 38 -95.5s11.667 -68.167 11 -103.5h298l-1 632h-311l-34 -71c-30 28.667 -67.5 50.834 -112.5 66.501s-85.167 25.167 -120.5 28.5s-77.666 5 -126.999 5c-94 0 -179.667 -16.333 -257 -49s-142 -76.334 -194 -131.001s-95.833 -118.834 -131.5 -192.501
s-61.5 -150.167 -77.5 -229.5s-24 -161.333 -24 -246c0 -168 28.5 -313.833 85.5 -437.5s143.667 -220.5 260 -290.5s257.166 -105 422.499 -105c69.333 0 138.5 8 207.5 24s127.833 35.167 176.5 57.5s92.334 44.833 131.001 67.5s67.667 42 87 58l29 24v410zM633.002 1700
l-273 377l154 101l255 -245l255 245l154 -101l-274 -376z" />
    <glyph glyph-name="ccaron" unicode="&#x10d;" horiz-adv-x="1110" 
d="M43 546c0 -118.667 24.499 -221.169 73.499 -307.502s114.667 -150.666 197 -192.999s176.166 -63.5 281.499 -63.5c84 0 167.333 12.167 250 36.5s147 59.5 193 105.5v301h-240c-0.666992 -3.33301 -1.5 -8 -2.5 -14s-4.33301 -16.5 -10 -31.5
s-12.667 -28.167 -21 -39.5s-20.666 -21.666 -36.999 -30.999s-35.166 -14 -56.499 -14c-28.667 0 -53.5 6.66699 -74.5 20s-37.167 31 -48.5 53s-19.5 45 -24.5 69s-7.5 49.333 -7.5 76c0 90 15.333 156.667 46 200s67 65 109 65c34 0 63 -14 87 -42s36 -64 36 -108h242
v444h-175l-41 -77c-80.667 64.667 -166.667 97 -258 97c-78 0 -150 -14.833 -216 -44.5s-120.833 -69.5 -164.5 -119.5s-77.667 -108 -102 -174s-36.5 -135.333 -36.5 -208zM418.999 1149l-273 377l154 101l255 -245l255 245l154 -101l-274 -376z" />
    <glyph glyph-name="Dcaron" unicode="&#x10e;" horiz-adv-x="1801" 
d="M98 0l801.998 -0.000976562c134.667 0 256.334 22.333 365.001 67s197.334 104.834 266.001 180.501s121.334 162.167 158.001 259.5s55 200.333 55 309c0 264 -68.333 464.5 -205 601.5s-342.334 205.5 -617.001 205.5h-830v-352h169v-912h-163v-359zM807.998 358.999
l-0.000976562 912.001h47c49.333 0 92.333 -9.5 129 -28.5s65.334 -43 86.001 -72s37.167 -64.5 49.5 -106.5s20.5 -82.167 24.5 -120.5s6 -80.5 6 -126.5c0 -44.667 -2.5 -87 -7.5 -127s-14.5 -80.833 -28.5 -122.5s-32 -77.334 -54 -107.001s-51.5 -54 -88.5 -73
s-79.833 -28.5 -128.5 -28.5h-35zM763.997 1700l-273 377l154 101l255 -245l255 245l154 -101l-274 -376z" />
    <glyph glyph-name="dcaron" unicode="&#x10f;" horiz-adv-x="2109" 
d="M1370 305l-77.0029 -0.000976562l-1 1335h-585v-305h90v-375c-45.333 46 -91.166 79.167 -137.499 99.5s-100.166 30.5 -161.499 30.5c-68.667 0 -132.167 -15.667 -190.5 -47s-106.5 -72.666 -144.5 -123.999s-67.5 -109 -88.5 -173s-31.5 -129.333 -31.5 -196
c0 -70 9.66699 -138 29 -204s47.333 -126.5 84 -181.5s85.334 -99.333 146.001 -133s128.667 -50.5 204 -50.5c60 0.666992 115.667 14 167 40s94 61.667 128 107v-128h569v305zM800.997 414.999l-5.5 -10.501c-2.33301 -4.33301 -7.83301 -12 -16.5 -23
s-17.667 -20.667 -27 -29s-21.833 -16 -37.5 -23s-31.834 -10.5 -48.501 -10.5c-26 0 -48.5 5.66699 -67.5 17s-33.833 25 -44.5 41s-19.167 35.5 -25.5 58.5s-10.333 44 -12 63s-2.5 38.833 -2.5 59.5c0 61.333 14.333 108.5 43 141.5s65 49.5 109 49.5
c24 0 47.333 -5.66699 70 -17s39.334 -22.666 50.001 -33.999l15 -17v-266zM1529 1034c30 0 56 2.16602 78 6.49902s39.833 11.666 53.5 21.999s24.5 20.833 32.5 31.5s13.833 26 17.5 46s5.83398 37.5 6.50098 52.5s1 36.5 1 64.5h-189v366h510
c16 -103.333 24 -195.666 24 -276.999c0 -185.333 -43.333 -321.166 -130 -407.499s-221.334 -129.5 -404.001 -129.5v225z" />
    <glyph glyph-name="Dcroat" unicode="&#x110;" horiz-adv-x="1801" 
d="M98 0l801.998 -0.000976562c134.667 0 256.334 22.333 365.001 67s197.334 104.834 266.001 180.501s121.334 162.167 158.001 259.5s55 200.333 55 309c0 264 -68.333 464.5 -205 601.5s-342.334 205.5 -617.001 205.5h-830v-352h169v-912h-163v-359zM807.998 358.999
l-0.000976562 912.001h47c49.333 0 92.333 -9.5 129 -28.5s65.334 -43 86.001 -72s37.167 -64.5 49.5 -106.5s20.5 -82.167 24.5 -120.5s6 -80.5 6 -126.5c0 -44.667 -2.5 -87 -7.5 -127s-14.5 -80.833 -28.5 -122.5s-32 -77.334 -54 -107.001s-51.5 -54 -88.5 -73
s-79.833 -28.5 -128.5 -28.5h-35z" />
    <glyph glyph-name="dcroat" unicode="&#x111;" horiz-adv-x="1442" 
d="M1370 0l-568.997 0.000976562v128c-34 -45.333 -76.667 -81 -128 -107s-107 -39.333 -167 -40c-75.333 0 -143.333 16.833 -204 50.5s-109.334 78 -146.001 133s-64.667 115.5 -84 181.5s-29 134 -29 204c0 66.667 10.5 132 31.5 196s50.5 121.667 88.5 173
s86.167 92.666 144.5 123.999s121.833 47 190.5 47c61.333 0 115.166 -10.167 161.499 -30.5s92.166 -53.5 137.499 -99.5v177h-105v138h105v60h-90v305h585v-365h77v-138h-77l1 -832h77v-305zM801.003 681.001l-15 17.001c-10.667 11.333 -27.334 22.666 -50.001 33.999
s-46 17 -70 17c-44 0 -80.333 -16.5 -109 -49.5s-43 -80.167 -43 -141.5c0 -20.667 0.833008 -40.5 2.5 -59.5s5.66699 -40 12 -63s14.833 -42.5 25.5 -58.5s25.5 -29.667 44.5 -41s41.5 -17 67.5 -17c16.667 0 32.834 3.5 48.501 10.5s28.167 14.667 37.5 23
s18.333 18 27 29s14.167 18.667 16.5 23l5.5 10.5v266z" />
    <glyph glyph-name="Emacron" unicode="&#x112;" horiz-adv-x="1490" 
d="M1099 968l-76 302h-213v-282h205v-352h-205v-277h219l13 61l63 267h273v-687h-1279v359h158v911h-158v353h1268v-654zM1119 1734h-748v335h748v-335z" />
    <glyph glyph-name="emacron" unicode="&#x113;" horiz-adv-x="1224" 
d="M611 -18c106.667 0 202.502 11.001 287.502 33.001s171.5 59.333 259.5 112v224h-307c-1.33301 -39.333 -13 -70.666 -35 -93.999s-57 -35 -105 -35c-54.667 0 -97.834 22.167 -129.501 66.5s-47.5 100.166 -47.5 167.499h602c12.667 -5.33301 20.5 -6.83301 23.5 -4.5
s7.5 13.166 13.5 32.499c3.33301 24.667 5 48.334 5 71.001c0 100 -20.833 190 -62.5 270s-104.834 144.5 -189.501 193.5s-184.334 73.5 -299.001 73.5c-120 0 -224.833 -24.833 -314.5 -74.5s-157.5 -117.334 -203.5 -203.001s-69 -183.5 -69 -293.5
c0 -98 24.333 -188 73 -270s116.834 -147.333 204.501 -196s185.5 -73 293.5 -73zM536.002 656.001c0 40.667 9 77.167 27 109.5s45 48.5 81 48.5c24.667 0 45 -5.83301 61 -17.5s27 -28.334 33 -50.001s9.83301 -41.167 11.5 -58.5s2.16699 -37.666 1.5 -60.999h-215v29z
M986.002 1183h-748v335h748v-335z" />
    <glyph glyph-name="Ebreve" unicode="&#x114;" horiz-adv-x="1490" 
d="M1099 968l-76 302h-213v-282h205v-352h-205v-277h219l13 61l63 267h273v-687h-1279v359h158v911h-158v353h1268v-654zM747 1796c-132.667 0 -233.167 33.333 -301.5 100s-102.5 159 -102.5 277h252c0 -50.667 15 -90.167 45 -118.5s65.667 -42.5 107 -42.5
s77 14.167 107 42.5s45 67.833 45 118.5h252c0 -117.333 -34.5 -209.5 -103.5 -276.5s-169.167 -100.5 -300.5 -100.5z" />
    <glyph glyph-name="ebreve" unicode="&#x115;" horiz-adv-x="1224" 
d="M611 -18c106.667 0 202.502 11.001 287.502 33.001s171.5 59.333 259.5 112v224h-307c-1.33301 -39.333 -13 -70.666 -35 -93.999s-57 -35 -105 -35c-54.667 0 -97.834 22.167 -129.501 66.5s-47.5 100.166 -47.5 167.499h602c12.667 -5.33301 20.5 -6.83301 23.5 -4.5
s7.5 13.166 13.5 32.499c3.33301 24.667 5 48.334 5 71.001c0 100 -20.833 190 -62.5 270s-104.834 144.5 -189.501 193.5s-184.334 73.5 -299.001 73.5c-120 0 -224.833 -24.833 -314.5 -74.5s-157.5 -117.334 -203.5 -203.001s-69 -183.5 -69 -293.5
c0 -98 24.333 -188 73 -270s116.834 -147.333 204.501 -196s185.5 -73 293.5 -73zM536.002 656.001c0 40.667 9 77.167 27 109.5s45 48.5 81 48.5c24.667 0 45 -5.83301 61 -17.5s27 -28.334 33 -50.001s9.83301 -41.167 11.5 -58.5s2.16699 -37.666 1.5 -60.999h-215v29z
M614.002 1245c-132.667 0 -233.167 33.333 -301.5 100s-102.5 159 -102.5 277h252c0 -50.667 15 -90.167 45 -118.5s65.667 -42.5 107 -42.5s77 14.167 107 42.5s45 67.833 45 118.5h252c0 -117.333 -34.5 -209.5 -103.5 -276.5s-169.167 -100.5 -300.5 -100.5z" />
    <glyph glyph-name="Edotaccent" unicode="&#x116;" horiz-adv-x="1490" 
d="M1099 968l-76 302h-213v-282h205v-352h-205v-277h219l13 61l63 267h273v-687h-1279v359h158v911h-158v353h1268v-654zM740 1696c-79.333 0 -145.333 22.5 -198 67.5s-79 105.833 -79 182.5c0 75.333 25.833 135 77.5 179s118.167 66 199.5 66
c84.667 0 153.667 -22 207 -66s80 -103.667 80 -179c0 -76.667 -27.5 -137.5 -82.5 -182.5s-123.167 -67.5 -204.5 -67.5z" />
    <glyph glyph-name="edotaccent" unicode="&#x117;" horiz-adv-x="1224" 
d="M611 -18c106.667 0 202.502 11.001 287.502 33.001s171.5 59.333 259.5 112v224h-307c-1.33301 -39.333 -13 -70.666 -35 -93.999s-57 -35 -105 -35c-54.667 0 -97.834 22.167 -129.501 66.5s-47.5 100.166 -47.5 167.499h602c12.667 -5.33301 20.5 -6.83301 23.5 -4.5
s7.5 13.166 13.5 32.499c3.33301 24.667 5 48.334 5 71.001c0 100 -20.833 190 -62.5 270s-104.834 144.5 -189.501 193.5s-184.334 73.5 -299.001 73.5c-120 0 -224.833 -24.833 -314.5 -74.5s-157.5 -117.334 -203.5 -203.001s-69 -183.5 -69 -293.5
c0 -98 24.333 -188 73 -270s116.834 -147.333 204.501 -196s185.5 -73 293.5 -73zM536.002 656.001c0 40.667 9 77.167 27 109.5s45 48.5 81 48.5c24.667 0 45 -5.83301 61 -17.5s27 -28.334 33 -50.001s9.83301 -41.167 11.5 -58.5s2.16699 -37.666 1.5 -60.999h-215v29z
M607.002 1145c-79.333 0 -145.333 22.5 -198 67.5s-79 105.833 -79 182.5c0 75.333 25.833 135 77.5 179s118.167 66 199.5 66c84.667 0 153.667 -22 207 -66s80 -103.667 80 -179c0 -76.667 -27.5 -137.5 -82.5 -182.5s-123.167 -67.5 -204.5 -67.5z" />
    <glyph glyph-name="Eogonek" unicode="&#x118;" horiz-adv-x="1490" 
d="M1099 968l-76 302h-213v-282h205v-352h-205v-277h219l13 61l63 267h273v-687h-1279v359h158v911h-158v353h1268v-654zM1331 0c-19.333 -40 -41.6689 -80.333 -67.002 -121s-43.833 -71.834 -55.5 -93.501s-17.5 -40.5 -17.5 -56.5c0 -29.333 15 -53.333 45 -72
s77.333 -28.334 142 -29.001v-113h-21c-101.333 0 -188.166 19.667 -260.499 59s-108.5 86.333 -108.5 141c0 10.667 1.66699 21.334 5 32.001s10.333 25.334 21 44.001s20.334 34.667 29.001 48l48.5 72l59.5 89h180z" />
    <glyph glyph-name="eogonek" unicode="&#x119;" horiz-adv-x="1224" 
d="M611 -18c106.667 0 202.502 11.001 287.502 33.001s171.5 59.333 259.5 112v224h-307c-1.33301 -39.333 -13 -70.666 -35 -93.999s-57 -35 -105 -35c-54.667 0 -97.834 22.167 -129.501 66.5s-47.5 100.166 -47.5 167.499h602c12.667 -5.33301 20.5 -6.83301 23.5 -4.5
s7.5 13.166 13.5 32.499c3.33301 24.667 5 48.334 5 71.001c0 100 -20.833 190 -62.5 270s-104.834 144.5 -189.501 193.5s-184.334 73.5 -299.001 73.5c-120 0 -224.833 -24.833 -314.5 -74.5s-157.5 -117.334 -203.5 -203.001s-69 -183.5 -69 -293.5
c0 -98 24.333 -188 73 -270s116.834 -147.333 204.501 -196s185.5 -73 293.5 -73zM536.002 656.001c0 40.667 9 77.167 27 109.5s45 48.5 81 48.5c24.667 0 45 -5.83301 61 -17.5s27 -28.334 33 -50.001s9.83301 -41.167 11.5 -58.5s2.16699 -37.666 1.5 -60.999h-215v29z
M993.002 50.001c-19.333 -40 -41.6689 -80.333 -67.002 -121s-43.833 -71.834 -55.5 -93.501s-17.5 -40.5 -17.5 -56.5c0 -29.333 15 -53.333 45 -72s77.333 -28.334 142 -29.001v-113h-21c-101.333 0 -188.166 19.667 -260.499 59s-108.5 86.333 -108.5 141
c0 10.667 1.66699 21.334 5 32.001s10.333 25.334 21 44.001s20.334 34.667 29.001 48l48.5 72l59.5 89h180z" />
    <glyph glyph-name="Ecaron" unicode="&#x11a;" horiz-adv-x="1490" 
d="M1099 968l-76 302h-213v-282h205v-352h-205v-277h219l13 61l63 267h273v-687h-1279v359h158v911h-158v353h1268v-654zM609 1700l-273 377l154 101l255 -245l255 245l154 -101l-274 -376z" />
    <glyph glyph-name="ecaron" unicode="&#x11b;" horiz-adv-x="1224" 
d="M611 -18c106.667 0 202.502 11.001 287.502 33.001s171.5 59.333 259.5 112v224h-307c-1.33301 -39.333 -13 -70.666 -35 -93.999s-57 -35 -105 -35c-54.667 0 -97.834 22.167 -129.501 66.5s-47.5 100.166 -47.5 167.499h602c12.667 -5.33301 20.5 -6.83301 23.5 -4.5
s7.5 13.166 13.5 32.499c3.33301 24.667 5 48.334 5 71.001c0 100 -20.833 190 -62.5 270s-104.834 144.5 -189.501 193.5s-184.334 73.5 -299.001 73.5c-120 0 -224.833 -24.833 -314.5 -74.5s-157.5 -117.334 -203.5 -203.001s-69 -183.5 -69 -293.5
c0 -98 24.333 -188 73 -270s116.834 -147.333 204.501 -196s185.5 -73 293.5 -73zM536.002 656.001c0 40.667 9 77.167 27 109.5s45 48.5 81 48.5c24.667 0 45 -5.83301 61 -17.5s27 -28.334 33 -50.001s9.83301 -41.167 11.5 -58.5s2.16699 -37.666 1.5 -60.999h-215v29z
M476.002 1149l-273 377l154 101l255 -245l255 245l154 -101l-274 -376z" />
    <glyph glyph-name="Gcircumflex" unicode="&#x11c;" horiz-adv-x="1720" 
d="M1344 0l276.001 0.00195312v862h-625v-304l160 -1c5.33301 -19.333 8 -46.333 8 -81c0 -48.667 -19 -87.167 -57 -115.5s-82.333 -42.5 -133 -42.5c-210 0 -315 147 -315 441c0 42 1.33301 80.5 4 115.5s7.66699 73.667 15 116s18.5 79.666 33.5 111.999
s33.833 62.5 56.5 90.5s52 49.5 88 64.5s77.333 22.5 124 22.5c42 0 78.833 -6.16699 110.5 -18.5s57 -28 76 -47s35.167 -44.167 48.5 -75.5s23.166 -61.333 29.499 -90s11.833 -63.334 16.5 -104.001h288v678h-315l-44 -62c-85.333 60.667 -196.333 91 -333 91
c-127.333 0 -242.5 -22.667 -345.5 -68s-187.5 -107.333 -253.5 -186s-116.5 -169.667 -151.5 -273s-52.5 -214.333 -52.5 -333c0 -102.667 14.167 -198 42.5 -286s68.166 -164.5 119.499 -229.5s112.333 -120.5 183 -166.5s149 -80.667 235 -104s177.333 -35 274 -35
c166.667 0 298.334 43.333 395.001 130zM995.001 2151l274 -376l-154 -101l-255 245l-255 -245l-154 101l273 377z" />
    <glyph glyph-name="gcircumflex" unicode="&#x11d;" horiz-adv-x="1414" 
d="M564 -389c462.667 0 694 174.666 694 523.999v626h87v311h-453l-33 -75c-115.333 62 -223.666 93 -324.999 93c-92.667 0 -176.834 -26.167 -252.501 -78.5s-134 -119.666 -175 -201.999s-61.5 -169.5 -61.5 -261.5c0 -68.667 10.5 -134 31.5 -196
s51.167 -117.167 90.5 -165.5s89.666 -86.833 150.999 -115.5s129.333 -43 204 -43c51.333 0 102.333 7.83301 153 23.5s95.334 37.5 134.001 65.5c0 -42.667 -5.66699 -77.667 -17 -105s-29.5 -48.166 -54.5 -62.499s-52.667 -24 -83 -29s-68.5 -7.5 -114.5 -7.5
c-118.667 0 -240 22.667 -364 68v-309c8.66699 -4.66699 22.167 -10.334 40.5 -17.001s61 -15.667 128 -27s140.167 -17 219.5 -17zM528 531.999c0 40.667 3.83301 77.1689 11.5 109.502s22.167 60.166 43.5 83.499s48.666 35 81.999 35c32 0 59.333 -12.833 82 -38.5
s38.5 -55.667 47.5 -90s13.5 -70.5 13.5 -108.5c0 -24.667 -2.5 -49.334 -7.5 -74.001s-12.5 -48.5 -22.5 -71.5s-24.167 -41.833 -42.5 -56.5s-39.166 -22 -62.499 -22c-35.333 0 -64.333 12.333 -87 37s-38 53.5 -46 86.5s-12 69.5 -12 109.5zM842 1600l274 -376
l-154 -101l-255 245l-255 -245l-154 101l273 377z" />
    <glyph glyph-name="Gbreve" unicode="&#x11e;" horiz-adv-x="1720" 
d="M1344 0l276.001 0.00195312v862h-625v-304l160 -1c5.33301 -19.333 8 -46.333 8 -81c0 -48.667 -19 -87.167 -57 -115.5s-82.333 -42.5 -133 -42.5c-210 0 -315 147 -315 441c0 42 1.33301 80.5 4 115.5s7.66699 73.667 15 116s18.5 79.666 33.5 111.999
s33.833 62.5 56.5 90.5s52 49.5 88 64.5s77.333 22.5 124 22.5c42 0 78.833 -6.16699 110.5 -18.5s57 -28 76 -47s35.167 -44.167 48.5 -75.5s23.166 -61.333 29.499 -90s11.833 -63.334 16.5 -104.001h288v678h-315l-44 -62c-85.333 60.667 -196.333 91 -333 91
c-127.333 0 -242.5 -22.667 -345.5 -68s-187.5 -107.333 -253.5 -186s-116.5 -169.667 -151.5 -273s-52.5 -214.333 -52.5 -333c0 -102.667 14.167 -198 42.5 -286s68.166 -164.5 119.499 -229.5s112.333 -120.5 183 -166.5s149 -80.667 235 -104s177.333 -35 274 -35
c166.667 0 298.334 43.333 395.001 130zM860.001 1796c-132.667 0 -233.167 33.333 -301.5 100s-102.5 159 -102.5 277h252c0 -50.667 15 -90.167 45 -118.5s65.667 -42.5 107 -42.5s77 14.167 107 42.5s45 67.833 45 118.5h252c0 -117.333 -34.5 -209.5 -103.5 -276.5
s-169.167 -100.5 -300.5 -100.5z" />
    <glyph glyph-name="gbreve" unicode="&#x11f;" horiz-adv-x="1414" 
d="M564 -389c462.667 0 694 174.666 694 523.999v626h87v311h-453l-33 -75c-115.333 62 -223.666 93 -324.999 93c-92.667 0 -176.834 -26.167 -252.501 -78.5s-134 -119.666 -175 -201.999s-61.5 -169.5 -61.5 -261.5c0 -68.667 10.5 -134 31.5 -196
s51.167 -117.167 90.5 -165.5s89.666 -86.833 150.999 -115.5s129.333 -43 204 -43c51.333 0 102.333 7.83301 153 23.5s95.334 37.5 134.001 65.5c0 -42.667 -5.66699 -77.667 -17 -105s-29.5 -48.166 -54.5 -62.499s-52.667 -24 -83 -29s-68.5 -7.5 -114.5 -7.5
c-118.667 0 -240 22.667 -364 68v-309c8.66699 -4.66699 22.167 -10.334 40.5 -17.001s61 -15.667 128 -27s140.167 -17 219.5 -17zM528 531.999c0 40.667 3.83301 77.1689 11.5 109.502s22.167 60.166 43.5 83.499s48.666 35 81.999 35c32 0 59.333 -12.833 82 -38.5
s38.5 -55.667 47.5 -90s13.5 -70.5 13.5 -108.5c0 -24.667 -2.5 -49.334 -7.5 -74.001s-12.5 -48.5 -22.5 -71.5s-24.167 -41.833 -42.5 -56.5s-39.166 -22 -62.499 -22c-35.333 0 -64.333 12.333 -87 37s-38 53.5 -46 86.5s-12 69.5 -12 109.5zM709 1245
c-132.667 0 -233.167 33.333 -301.5 100s-102.5 159 -102.5 277h252c0 -50.667 15 -90.167 45 -118.5s65.667 -42.5 107 -42.5s77 14.167 107 42.5s45 67.833 45 118.5h252c0 -117.333 -34.5 -209.5 -103.5 -276.5s-169.167 -100.5 -300.5 -100.5z" />
    <glyph glyph-name="Gdotaccent" unicode="&#x120;" horiz-adv-x="1720" 
d="M1344 0l276.001 0.00195312v862h-625v-304l160 -1c5.33301 -19.333 8 -46.333 8 -81c0 -48.667 -19 -87.167 -57 -115.5s-82.333 -42.5 -133 -42.5c-210 0 -315 147 -315 441c0 42 1.33301 80.5 4 115.5s7.66699 73.667 15 116s18.5 79.666 33.5 111.999
s33.833 62.5 56.5 90.5s52 49.5 88 64.5s77.333 22.5 124 22.5c42 0 78.833 -6.16699 110.5 -18.5s57 -28 76 -47s35.167 -44.167 48.5 -75.5s23.166 -61.333 29.499 -90s11.833 -63.334 16.5 -104.001h288v678h-315l-44 -62c-85.333 60.667 -196.333 91 -333 91
c-127.333 0 -242.5 -22.667 -345.5 -68s-187.5 -107.333 -253.5 -186s-116.5 -169.667 -151.5 -273s-52.5 -214.333 -52.5 -333c0 -102.667 14.167 -198 42.5 -286s68.166 -164.5 119.499 -229.5s112.333 -120.5 183 -166.5s149 -80.667 235 -104s177.333 -35 274 -35
c166.667 0 298.334 43.333 395.001 130zM855.001 1696c-79.333 0 -145.333 22.5 -198 67.5s-79 105.833 -79 182.5c0 75.333 25.833 135 77.5 179s118.167 66 199.5 66c84.667 0 153.667 -22 207 -66s80 -103.667 80 -179c0 -76.667 -27.5 -137.5 -82.5 -182.5
s-123.167 -67.5 -204.5 -67.5z" />
    <glyph glyph-name="gdotaccent" unicode="&#x121;" horiz-adv-x="1414" 
d="M564 -389c462.667 0 694 174.666 694 523.999v626h87v311h-453l-33 -75c-115.333 62 -223.666 93 -324.999 93c-92.667 0 -176.834 -26.167 -252.501 -78.5s-134 -119.666 -175 -201.999s-61.5 -169.5 -61.5 -261.5c0 -68.667 10.5 -134 31.5 -196
s51.167 -117.167 90.5 -165.5s89.666 -86.833 150.999 -115.5s129.333 -43 204 -43c51.333 0 102.333 7.83301 153 23.5s95.334 37.5 134.001 65.5c0 -42.667 -5.66699 -77.667 -17 -105s-29.5 -48.166 -54.5 -62.499s-52.667 -24 -83 -29s-68.5 -7.5 -114.5 -7.5
c-118.667 0 -240 22.667 -364 68v-309c8.66699 -4.66699 22.167 -10.334 40.5 -17.001s61 -15.667 128 -27s140.167 -17 219.5 -17zM528 531.999c0 40.667 3.83301 77.1689 11.5 109.502s22.167 60.166 43.5 83.499s48.666 35 81.999 35c32 0 59.333 -12.833 82 -38.5
s38.5 -55.667 47.5 -90s13.5 -70.5 13.5 -108.5c0 -24.667 -2.5 -49.334 -7.5 -74.001s-12.5 -48.5 -22.5 -71.5s-24.167 -41.833 -42.5 -56.5s-39.166 -22 -62.499 -22c-35.333 0 -64.333 12.333 -87 37s-38 53.5 -46 86.5s-12 69.5 -12 109.5zM702 1145
c-79.333 0 -145.333 22.5 -198 67.5s-79 105.833 -79 182.5c0 75.333 25.833 135 77.5 179s118.167 66 199.5 66c84.667 0 153.667 -22 207 -66s80 -103.667 80 -179c0 -76.667 -27.5 -137.5 -82.5 -182.5s-123.167 -67.5 -204.5 -67.5z" />
    <glyph glyph-name="Gcommaaccent" unicode="&#x122;" horiz-adv-x="1720" 
d="M1344 0l276.001 0.00195312v862h-625v-304l160 -1c5.33301 -19.333 8 -46.333 8 -81c0 -48.667 -19 -87.167 -57 -115.5s-82.333 -42.5 -133 -42.5c-210 0 -315 147 -315 441c0 42 1.33301 80.5 4 115.5s7.66699 73.667 15 116s18.5 79.666 33.5 111.999
s33.833 62.5 56.5 90.5s52 49.5 88 64.5s77.333 22.5 124 22.5c42 0 78.833 -6.16699 110.5 -18.5s57 -28 76 -47s35.167 -44.167 48.5 -75.5s23.166 -61.333 29.499 -90s11.833 -63.334 16.5 -104.001h288v678h-315l-44 -62c-85.333 60.667 -196.333 91 -333 91
c-127.333 0 -242.5 -22.667 -345.5 -68s-187.5 -107.333 -253.5 -186s-116.5 -169.667 -151.5 -273s-52.5 -214.333 -52.5 -333c0 -102.667 14.167 -198 42.5 -286s68.166 -164.5 119.499 -229.5s112.333 -120.5 183 -166.5s149 -80.667 235 -104s177.333 -35 274 -35
c166.667 0 298.334 43.333 395.001 130zM676.001 -697.998c30 0 56 2.16699 78 6.5s39.833 11.666 53.5 21.999s24.5 20.833 32.5 31.5s13.833 26 17.5 46s5.83398 37.5 6.50098 52.5s1 36.5 1 64.5h-189v366h510c16 -102.667 24 -195 24 -277
c0 -185.333 -43.333 -321.166 -130 -407.499s-221.334 -129.5 -404.001 -129.5v225z" />
    <glyph glyph-name="gcommaaccent" unicode="&#x123;" horiz-adv-x="1414" 
d="M564 -389c462.667 0 694 174.666 694 523.999v626h87v311h-453l-33 -75c-115.333 62 -223.666 93 -324.999 93c-92.667 0 -176.834 -26.167 -252.501 -78.5s-134 -119.666 -175 -201.999s-61.5 -169.5 -61.5 -261.5c0 -68.667 10.5 -134 31.5 -196
s51.167 -117.167 90.5 -165.5s89.666 -86.833 150.999 -115.5s129.333 -43 204 -43c51.333 0 102.333 7.83301 153 23.5s95.334 37.5 134.001 65.5c0 -42.667 -5.66699 -77.667 -17 -105s-29.5 -48.166 -54.5 -62.499s-52.667 -24 -83 -29s-68.5 -7.5 -114.5 -7.5
c-118.667 0 -240 22.667 -364 68v-309c8.66699 -4.66699 22.167 -10.334 40.5 -17.001s61 -15.667 128 -27s140.167 -17 219.5 -17zM528 531.999c0 40.667 3.83301 77.1689 11.5 109.502s22.167 60.166 43.5 83.499s48.666 35 81.999 35c32 0 59.333 -12.833 82 -38.5
s38.5 -55.667 47.5 -90s13.5 -70.5 13.5 -108.5c0 -24.667 -2.5 -49.334 -7.5 -74.001s-12.5 -48.5 -22.5 -71.5s-24.167 -41.833 -42.5 -56.5s-39.166 -22 -62.499 -22c-35.333 0 -64.333 12.333 -87 37s-38 53.5 -46 86.5s-12 69.5 -12 109.5zM974 1979
c-30 0 -56 -2.16699 -78 -6.5s-39.833 -11.666 -53.5 -21.999s-24.5 -20.833 -32.5 -31.5s-13.833 -26 -17.5 -46s-5.83398 -37.5 -6.50098 -52.5s-1 -36.5 -1 -64.5h189v-366h-510c-16 102.667 -24 195 -24 277c0 185.333 43.333 321.166 130 407.499
s221.334 129.5 404.001 129.5v-225z" />
    <glyph glyph-name="Hcircumflex" unicode="&#x124;" horiz-adv-x="1908" 
d="M105 359h147v911h-147v353h809v-353h-95v-284h269v284h-88v353h798v-353h-141v-911h147v-359h-800v359h84v276h-269v-276h96l-1 -359h-809v359zM1089 2151l274 -376l-154 -101l-255 245l-255 -245l-154 101l273 377z" />
    <glyph glyph-name="hcircumflex" unicode="&#x125;" horiz-adv-x="1451" 
d="M71 0l652.999 -0.000976562v305h-80v321c0 78.667 33.667 118 101 118c54.667 0 82.334 -41.667 83.001 -125v-619h576v305h-86v397c0 126 -31.333 222.167 -94 288.5s-150.667 99.5 -264 99.5c-23.333 0 -45.833 -2 -67.5 -6s-40 -8.16699 -55 -12.5
s-31.667 -12.166 -50 -23.499s-31.833 -20 -40.5 -26s-21.667 -17.5 -39 -34.5s-28.5 -28.167 -33.5 -33.5l-34.5 -38v724h-573v-308h84v-1027h-79zM798.999 2157l274 -376l-154 -101l-255 245l-255 -245l-154 101l273 377z" />
    <glyph glyph-name="Hbar" unicode="&#x126;" horiz-adv-x="1908" 
d="M105 359h147v713h-147v100h147v98h-147v353h809v-353h-95v-98h269v98h-88v353h798v-353h-141v-98h140v-100h-140v-713h147v-359h-800v359h84v276h-269v-276h96l-1 -359h-809v359zM1088 986v86h-269v-86h269z" />
    <glyph glyph-name="hbar" unicode="&#x127;" horiz-adv-x="1451" 
d="M72 305l79.001 0.000976562v828h-84v139h84v60h-84v308h573v-368h175v-139h-175v-217l34.5 38c5 5.33301 16.167 16.5 33.5 33.5s30.333 28.5 39 34.5s22.167 14.667 40.5 26s35 19.166 50 23.499s33.333 8.5 55 12.5s44.167 6 67.5 6
c113.333 0 201.333 -33.167 264 -99.5s94 -162.5 94 -288.5v-397h86v-305h-576v619c-0.666992 83.333 -28.334 125 -83.001 125c-67.333 0 -101 -39.333 -101 -118v-321h80v-305h-653z" />
    <glyph glyph-name="Itilde" unicode="&#x128;" horiz-adv-x="1076" 
d="M972 1270h-147v-911h141v-359h-862v359h147v911h-143v353h864v-353zM714 2074c29.333 0 56 -6.33301 80 -19s44.667 -30.5 62 -53.5s32.5 -45.833 45.5 -68.5s27.333 -49 43 -79s29.5 -53.667 41.5 -71l-113 -74c-48.667 46.667 -82.167 76.334 -100.5 89.001
s-33.833 19 -46.5 19c-30 0 -65.667 -10 -107 -30l-128.5 -60.5c-44.333 -20.333 -84.833 -30.5 -121.5 -30.5c-30 0 -57 6.16699 -81 18.5s-44.833 30 -62.5 53s-32.834 45.667 -45.501 68l-43 79c-16 30.333 -30 54.166 -42 71.499l114 75
c50.667 -48.667 85.334 -79.5 104.001 -92.5s34 -19.5 46 -19.5c24 0 51.667 6.5 83 19.5s60 27.333 86 43s56 30 90 43s66 19.5 96 19.5z" />
    <glyph glyph-name="itilde" unicode="&#x129;" horiz-adv-x="814" 
d="M661 299h84v-299h-647v299h82v448h-89v325h570v-773zM583 1523c29.333 0 56 -6.33301 80 -19s44.667 -30.5 62 -53.5s32.5 -45.833 45.5 -68.5s27.333 -49 43 -79s29.5 -53.667 41.5 -71l-113 -74c-48.667 46.667 -82.167 76.334 -100.5 89.001s-33.833 19 -46.5 19
c-30 0 -65.667 -10 -107 -30l-128.5 -60.5c-44.333 -20.333 -84.833 -30.5 -121.5 -30.5c-30 0 -57 6.16699 -81 18.5s-44.833 30 -62.5 53s-32.834 45.667 -45.501 68l-43 79c-16 30.333 -30 54.166 -42 71.499l114 75c50.667 -48.667 85.334 -79.5 104.001 -92.5
s34 -19.5 46 -19.5c24 0 51.667 6.5 83 19.5s60 27.333 86 43s56 30 90 43s66 19.5 96 19.5z" />
    <glyph glyph-name="Imacron" unicode="&#x12a;" horiz-adv-x="1076" 
d="M972 1270h-147v-911h141v-359h-862v359h147v911h-143v353h864v-353zM914 1734h-748v335h748v-335z" />
    <glyph glyph-name="imacron" unicode="&#x12b;" horiz-adv-x="814" 
d="M661 299h84v-299h-647v299h82v448h-89v325h570v-773zM783 1183h-748v335h748v-335z" />
    <glyph glyph-name="Ibreve" unicode="&#x12c;" horiz-adv-x="1076" 
d="M972 1270h-147v-911h141v-359h-862v359h147v911h-143v353h864v-353zM540 1796c-132.667 0 -233.167 33.333 -301.5 100s-102.5 159 -102.5 277h252c0 -50.667 15 -90.167 45 -118.5s65.667 -42.5 107 -42.5s77 14.167 107 42.5s45 67.833 45 118.5h252
c0 -117.333 -34.5 -209.5 -103.5 -276.5s-169.167 -100.5 -300.5 -100.5z" />
    <glyph glyph-name="ibreve" unicode="&#x12d;" horiz-adv-x="814" 
d="M661 299h84v-299h-647v299h82v448h-89v325h570v-773zM409 1245c-132.667 0 -233.167 33.333 -301.5 100s-102.5 159 -102.5 277h252c0 -50.667 15 -90.167 45 -118.5s65.667 -42.5 107 -42.5s77 14.167 107 42.5s45 67.833 45 118.5h252
c0 -117.333 -34.5 -209.5 -103.5 -276.5s-169.167 -100.5 -300.5 -100.5z" />
    <glyph glyph-name="Iogonek" unicode="&#x12e;" horiz-adv-x="1076" 
d="M972 1270h-147v-911h141v-359h-862v359h147v911h-143v353h864v-353zM925 0c-19.333 -40 -41.6689 -80.333 -67.002 -121s-43.833 -71.834 -55.5 -93.501s-17.5 -40.5 -17.5 -56.5c0 -29.333 15 -53.333 45 -72s77.333 -28.334 142 -29.001v-113h-21
c-101.333 0 -188.166 19.667 -260.499 59s-108.5 86.333 -108.5 141c0 10.667 1.66699 21.334 5 32.001s10.333 25.334 21 44.001s20.334 34.667 29.001 48l48.5 72l59.5 89h180z" />
    <glyph glyph-name="iogonek" unicode="&#x12f;" horiz-adv-x="814" 
d="M661 1072h-570v-311h89v-456h-82v-305h647v305h-84v767zM380 1135c-79.333 0 -145.333 22.5 -198 67.5s-79 105.833 -79 182.5c0 75.333 25.833 135 77.5 179s118.167 66 199.5 66c84.667 0 153.667 -22 207 -66s80 -103.667 80 -179
c0 -76.667 -27.5 -137.5 -82.5 -182.5s-123.167 -67.5 -204.5 -67.5zM557 0c-19.333 -40 -41.6689 -80.333 -67.002 -121s-43.833 -71.834 -55.5 -93.501s-17.5 -40.5 -17.5 -56.5c0 -29.333 15 -53.333 45 -72s77.333 -28.334 142 -29.001v-113h-21
c-101.333 0 -188.166 19.667 -260.499 59s-108.5 86.333 -108.5 141c0 10.667 1.66699 21.334 5 32.001s10.333 25.334 21 44.001s20.334 34.667 29.001 48l48.5 72l59.5 89h180z" />
    <glyph glyph-name="Idotaccent" unicode="&#x130;" horiz-adv-x="1076" 
d="M972 1270h-147v-911h141v-359h-862v359h147v911h-143v353h864v-353zM535 1696c-79.333 0 -145.333 22.5 -198 67.5s-79 105.833 -79 182.5c0 75.333 25.833 135 77.5 179s118.167 66 199.5 66c84.667 0 153.667 -22 207 -66s80 -103.667 80 -179
c0 -76.667 -27.5 -137.5 -82.5 -182.5s-123.167 -67.5 -204.5 -67.5z" />
    <glyph glyph-name="dotlessi" unicode="&#x131;" horiz-adv-x="814" 
d="M661 299h84v-299h-647v299h82v448h-89v325h570v-773z" />
    <glyph glyph-name="ij" unicode="&#x133;" horiz-adv-x="1572" 
d="M1455 1072l-1364 0.00292969v-311h89v-456h-82v-305h647v305h-84v455h295v-769c0 -24.667 -11.833 -42 -35.5 -52s-47.5 -13.667 -71.5 -11l2 -326c115.333 0 212.166 10.667 290.499 32s140.5 54.666 186.5 99.999s78.667 99.666 98 162.999s29 140.666 29 231.999v943z
M380.001 1135c-79.333 0 -145.333 22.5 -198 67.5s-79 105.833 -79 182.5c0 75.333 25.833 135 77.5 179s118.167 66 199.5 66c84.667 0 153.667 -22 207 -66s80 -103.667 80 -179c0 -76.667 -27.5 -137.5 -82.5 -182.5s-123.167 -67.5 -204.5 -67.5zM1171 1135
c-79.333 0 -145.333 22.5 -198 67.5s-79 105.833 -79 182.5c0 75.333 25.833 135 77.5 179s118.167 66 199.5 66c84.667 0 153.667 -22 207 -66s80 -103.667 80 -179c0 -76.667 -27.5 -137.5 -82.5 -182.5s-123.167 -67.5 -204.5 -67.5z" />
    <glyph glyph-name="Jcircumflex" unicode="&#x134;" horiz-adv-x="1314" 
d="M30 -13h270l37 92c59.333 -72.667 155.333 -109 288 -109c156 0 277.667 45.833 365 137.5s131 214.167 131 367.5v795h147v353h-854v-353h154v-698c0 -73.333 -9 -126.166 -27 -158.499s-46 -48.5 -84 -48.5c-16.667 0 -31.834 3.66699 -45.501 11s-24.667 16 -33 26
s-15.5 23.667 -21.5 41s-10.5 32.666 -13.5 45.999s-5.16699 30.666 -6.5 51.999s-2.16602 37.333 -2.49902 48s-0.5 25.334 -0.5 44.001h-304v-646zM792 2151l274 -376l-154 -101l-255 245l-255 -245l-154 101l273 377z" />
    <glyph glyph-name="jcircumflex" unicode="&#x135;" horiz-adv-x="772" 
d="M49 -72c24 -2.66699 47.832 0.99707 71.499 10.9971s35.5 27.333 35.5 52v769h-90v312h589v-943c0 -91.333 -9.66699 -168.666 -29 -231.999s-52 -117.666 -98 -162.999s-108.167 -78.666 -186.5 -99.999s-175.166 -32 -290.499 -32zM522.999 1600l274 -376l-154 -101
l-255 245l-255 -245l-154 101l273 377z" />
    <glyph glyph-name="Kcommaaccent" unicode="&#x136;" horiz-adv-x="1799" 
d="M105 1622l821 -0.000976562v-352h-127v-383l287 383v352l624 1v-353h-137l-319 -406v-14c52 0 98 -4 138 -12s76.167 -21 108.5 -39s57 -43.5 74 -76.5s25.5 -73.167 25.5 -120.5v-141c0 -23.333 6 -46.166 18 -68.499s28.333 -33.5 49 -33.5h90l6 -359h-348
c-224 -0 -336 102.333 -336 307v185c0 32 -10.667 64.667 -32 98s-47.333 50 -78 50h-170v-281h127l6 -324v-35h-827v359h147v911h-147v352zM676 -698.001c30 0 56 2.16699 78 6.5s39.833 11.666 53.5 21.999s24.5 20.833 32.5 31.5s13.833 26 17.5 46
s5.83398 37.5 6.50098 52.5s1 36.5 1 64.5h-189v366h510c16 -102.667 24 -195 24 -277c0 -185.333 -43.333 -321.166 -130 -407.499s-221.334 -129.5 -404.001 -129.5v225z" />
    <glyph glyph-name="kcommaaccent" unicode="&#x137;" horiz-adv-x="1413" 
d="M646 438v-438h-577v305h83v1025h-84v304h578v-1047l201 174h-95v311h584v-311h-151l-143 -117v-26l227 -313h115v-305h-453zM453 -698c30 0 56 2.16699 78 6.5s39.833 11.666 53.5 21.999s24.5 20.833 32.5 31.5s13.833 26 17.5 46s5.83398 37.5 6.50098 52.5
s1 36.5 1 64.5h-189v366h510c16 -102.667 24 -195 24 -277c0 -185.333 -43.333 -321.166 -130 -407.499s-221.334 -129.5 -404.001 -129.5v225z" />
    <glyph glyph-name="Lacute" unicode="&#x139;" horiz-adv-x="1421" 
d="M818 359h191l87 350h286v-709h-1273l-1 359h143v911h-147v352h868v-352h-154v-911zM1039 1994l-554 -313l-104 141l474 437z" />
    <glyph glyph-name="lacute" unicode="&#x13a;" horiz-adv-x="794" 
d="M644 305h78v-305h-647v305h74v1012h-84v313h579v-1325zM728 1997l-554 -313l-104 141l474 437z" />
    <glyph glyph-name="Lcommaaccent" unicode="&#x13b;" horiz-adv-x="1421" 
d="M818 359h191l87 350h286v-709h-1273l-1 359h143v911h-147v352h868v-352h-154v-911zM461 -698c30 0 56 2.16699 78 6.5s39.833 11.666 53.5 21.999s24.5 20.833 32.5 31.5s13.833 26 17.5 46s5.83398 37.5 6.50098 52.5s1 36.5 1 64.5h-189v366h510
c16 -102.667 24 -195 24 -277c0 -185.333 -43.333 -321.166 -130 -407.499s-221.334 -129.5 -404.001 -129.5v225z" />
    <glyph glyph-name="lcommaaccent" unicode="&#x13c;" horiz-adv-x="794" 
d="M644 305h78v-305h-647v305h74v1012h-84v313h579v-1325zM137 -698c30 0 56 2.16699 78 6.5s39.833 11.666 53.5 21.999s24.5 20.833 32.5 31.5s13.833 26 17.5 46s5.83398 37.5 6.50098 52.5s1 36.5 1 64.5h-189v366h510c16 -102.667 24 -195 24 -277
c0 -185.333 -43.333 -321.166 -130 -407.499s-221.334 -129.5 -404.001 -129.5v225z" />
    <glyph glyph-name="Lcaron" unicode="&#x13d;" horiz-adv-x="1421" 
d="M818 359h191l87 350h286v-709h-1273l-1 359h143v911h-147v352h868v-352h-154v-911zM994 1464c30 0 56 2.16602 78 6.49902s39.833 11.666 53.5 21.999s24.5 20.833 32.5 31.5s13.833 26 17.5 46s5.83398 37.5 6.50098 52.5s1 36.5 1 64.5h-189v366h510
c16 -103.333 24 -195.666 24 -276.999c0 -185.333 -43.333 -321.166 -130 -407.499s-221.334 -129.5 -404.001 -129.5v225z" />
    <glyph glyph-name="lcaron" unicode="&#x13e;" horiz-adv-x="1443" 
d="M644 305h78v-305h-647v305h74v1012h-84v313h579v-1325zM863 1034c30 0 56 2.16602 78 6.49902s39.833 11.666 53.5 21.999s24.5 20.833 32.5 31.5s13.833 26 17.5 46s5.83398 37.5 6.50098 52.5s1 36.5 1 64.5h-189v366h510c16 -103.333 24 -195.666 24 -276.999
c0 -185.333 -43.333 -321.166 -130 -407.499s-221.334 -129.5 -404.001 -129.5v225z" />
    <glyph glyph-name="Ldot" unicode="&#x13f;" horiz-adv-x="1421" 
d="M818 359h191l87 350h286v-709h-1273l-1 359h143v911h-147v352h868v-352h-154v-911zM1136 757c-79.333 0 -145.333 22.5 -198 67.5s-79 105.833 -79 182.5c0 75.333 25.833 135 77.5 179s118.167 66 199.5 66c84.667 0 153.667 -22 207 -66s80 -103.667 80 -179
c0 -76.667 -27.5 -137.5 -82.5 -182.5s-123.167 -67.5 -204.5 -67.5z" />
    <glyph glyph-name="ldot" unicode="&#x140;" horiz-adv-x="1290" 
d="M644 305h78v-305h-647v305h74v1012h-84v313h579v-1325zM945 514c-79.333 0 -145.333 22.5 -198 67.5s-79 105.833 -79 182.5c0 75.333 25.833 135 77.5 179s118.167 66 199.5 66c84.667 0 153.667 -22 207 -66s80 -103.667 80 -179c0 -76.667 -27.5 -137.5 -82.5 -182.5
s-123.167 -67.5 -204.5 -67.5z" />
    <glyph glyph-name="Lslash" unicode="&#x141;" horiz-adv-x="1422" 
d="M819 359h191l87 350h286v-709h-1273l-1 359h143v911h-147v352h868v-352h-154v-911zM943 1160l99 -179l-868 -503l-100 178z" />
    <glyph glyph-name="lslash" unicode="&#x142;" horiz-adv-x="794" 
d="M644 305h78v-305h-647v305h74v1012h-84v313h579v-1325zM725 1153l99 -179l-751 -434l-100 178z" />
    <glyph glyph-name="Nacute" unicode="&#x143;" horiz-adv-x="1874" 
d="M1814 1622l-636.999 0.999023v-353c26 0.666992 48.667 -0.666016 68 -3.99902s34.5 -9.5 45.5 -18.5s19.833 -17.667 26.5 -26s11.167 -20 13.5 -35s3.66602 -26.5 3.99902 -34.5s0.5 -20 0.5 -36v-469l-496 976h-735v-351h157v-722c0 -25.333 -0.666992 -45.333 -2 -60
s-4.83301 -31.5 -10.5 -50.5s-14 -33.5 -25 -43.5s-27 -18.667 -48 -26s-46.833 -11 -77.5 -11v-359h637v359c-56.667 0 -97.167 11 -121.5 33s-36.5 60.333 -36.5 115v401l473 -908h606v1118c0 49.333 12.167 87 36.5 113s64.833 39 121.5 39v352zM1266 1994l-554 -313
l-104 141l474 437z" />
    <glyph glyph-name="nacute" unicode="&#x144;" horiz-adv-x="1483" 
d="M661 1072h-562.998v-311h76v-456h-83v-305h658v305h-88v319c0 31.333 9.5 58 28.5 80s44.167 33 75.5 33c24 0 45 -10.333 63 -31s27 -47 27 -79v-627h574v305h-80v375c0 274.667 -110 412 -330 412c-78.667 0 -148.834 -15.167 -210.501 -45.5
s-110.834 -73.833 -147.501 -130.5v156zM1070 1443l-554 -313l-104 141l474 437z" />
    <glyph glyph-name="Ncommaaccent" unicode="&#x145;" horiz-adv-x="1874" 
d="M1814 1622l-636.999 0.999023v-353c26 0.666992 48.667 -0.666016 68 -3.99902s34.5 -9.5 45.5 -18.5s19.833 -17.667 26.5 -26s11.167 -20 13.5 -35s3.66602 -26.5 3.99902 -34.5s0.5 -20 0.5 -36v-469l-496 976h-735v-351h157v-722c0 -25.333 -0.666992 -45.333 -2 -60
s-4.83301 -31.5 -10.5 -50.5s-14 -33.5 -25 -43.5s-27 -18.667 -48 -26s-46.833 -11 -77.5 -11v-359h637v359c-56.667 0 -97.167 11 -121.5 33s-36.5 60.333 -36.5 115v401l473 -908h606v1118c0 49.333 12.167 87 36.5 113s64.833 39 121.5 39v352zM676.001 -698.001
c30 0 56 2.16699 78 6.5s39.833 11.666 53.5 21.999s24.5 20.833 32.5 31.5s13.833 26 17.5 46s5.83398 37.5 6.50098 52.5s1 36.5 1 64.5h-189v366h510c16 -102.667 24 -195 24 -277c0 -185.333 -43.333 -321.166 -130 -407.499s-221.334 -129.5 -404.001 -129.5v225z" />
    <glyph glyph-name="ncommaaccent" unicode="&#x146;" horiz-adv-x="1483" 
d="M661 1072h-562.998v-311h76v-456h-83v-305h658v305h-88v319c0 31.333 9.5 58 28.5 80s44.167 33 75.5 33c24 0 45 -10.333 63 -31s27 -47 27 -79v-627h574v305h-80v375c0 274.667 -110 412 -330 412c-78.667 0 -148.834 -15.167 -210.501 -45.5
s-110.834 -73.833 -147.501 -130.5v156zM529.002 -698c30 0 56 2.16699 78 6.5s39.833 11.666 53.5 21.999s24.5 20.833 32.5 31.5s13.833 26 17.5 46s5.83398 37.5 6.50098 52.5s1 36.5 1 64.5h-189v366h510c16 -102.667 24 -195 24 -277
c0 -185.333 -43.333 -321.166 -130 -407.499s-221.334 -129.5 -404.001 -129.5v225z" />
    <glyph glyph-name="Ncaron" unicode="&#x147;" horiz-adv-x="1874" 
d="M1814 1622l-636.999 0.999023v-353c26 0.666992 48.667 -0.666016 68 -3.99902s34.5 -9.5 45.5 -18.5s19.833 -17.667 26.5 -26s11.167 -20 13.5 -35s3.66602 -26.5 3.99902 -34.5s0.5 -20 0.5 -36v-469l-496 976h-735v-351h157v-722c0 -25.333 -0.666992 -45.333 -2 -60
s-4.83301 -31.5 -10.5 -50.5s-14 -33.5 -25 -43.5s-27 -18.667 -48 -26s-46.833 -11 -77.5 -11v-359h637v359c-56.667 0 -97.167 11 -121.5 33s-36.5 60.333 -36.5 115v401l473 -908h606v1118c0 49.333 12.167 87 36.5 113s64.833 39 121.5 39v352zM801.001 1700l-273 377
l154 101l255 -245l255 245l154 -101l-274 -376z" />
    <glyph glyph-name="ncaron" unicode="&#x148;" horiz-adv-x="1483" 
d="M661 1072h-562.998v-311h76v-456h-83v-305h658v305h-88v319c0 31.333 9.5 58 28.5 80s44.167 33 75.5 33c24 0 45 -10.333 63 -31s27 -47 27 -79v-627h574v305h-80v375c0 274.667 -110 412 -330 412c-78.667 0 -148.834 -15.167 -210.501 -45.5
s-110.834 -73.833 -147.501 -130.5v156zM605.002 1149l-273 377l154 101l255 -245l255 245l154 -101l-274 -376z" />
    <glyph glyph-name="napostrophe" unicode="&#x149;" horiz-adv-x="1483" 
d="M661 1072h-562.998v-311h76v-456h-83v-305h658v305h-88v319c0 31.333 9.5 58 28.5 80s44.167 33 75.5 33c24 0 45 -10.333 63 -31s27 -47 27 -79v-627h574v305h-80v375c0 274.667 -110 412 -330 412c-78.667 0 -148.834 -15.167 -210.501 -45.5
s-110.834 -73.833 -147.501 -130.5v156zM99.002 1349c30 0 56 2.16699 78 6.5s39.833 11.666 53.5 21.999s24.5 20.833 32.5 31.5s13.833 26 17.5 46s5.83398 37.5 6.50098 52.5s1 36.5 1 64.5h-189v366h510c16 -102.667 24 -195 24 -277
c0 -185.333 -43.333 -321.166 -130 -407.499s-221.334 -129.5 -404.001 -129.5v225z" />
    <glyph glyph-name="Eng" unicode="&#x14a;" horiz-adv-x="1874" 
d="M565 -124h304l3 -32c1.33301 -14 4 -28.167 8 -42.5s10.333 -27.333 19 -39s20.5 -21.5 35.5 -29.5s34.167 -13 57.5 -15c38 0 66 16.167 84 48.5s27 85.166 27 158.499l-53 125l-473 858v-401c0 -54.667 12.167 -93 36.5 -115s64.833 -33 121.5 -33v-359h-637v359
c47.333 2 82.333 9.33301 105 22s37.667 32 45 58c6 19.333 9.66699 36.333 11 51s2 34.667 2 60v722h-157v351h735l496 -976v469v20.5c0 5.66699 -0.166992 11 -0.5 16s-0.833008 10 -1.5 15s-1.66699 11.167 -3 18.5c-2 16 -6.33301 27.667 -13 35
c-9.33301 14 -25 26.333 -47 37s-53 14.667 -93 12v353l637 -1v-352c-56.667 0 -97.167 -12.833 -121.5 -38.5s-36.5 -63.5 -36.5 -113.5v-1290c0 -153.333 -43.667 -275.666 -131 -366.999c-87.333 -92 -209 -138 -365 -138c-133.333 0 -229.333 36.333 -288 109l-37 -92
h-270v536z" />
    <glyph glyph-name="eng" unicode="&#x14b;" horiz-adv-x="1483" 
d="M743 -108c24 -2.66699 47.8301 0.99707 71.4971 10.9971s37.167 27.333 40.5 52v672c0 32 -9 58.333 -27 79s-39 31 -63 31c-31.333 0 -56.5 -11 -75.5 -33s-28.5 -48.667 -28.5 -80v-319h88v-305h-658v305h83v456h-76v311h563v-156
c36.667 56.667 85.834 100.167 147.501 130.5s131.834 45.5 210.501 45.5c220 0 330 -137.333 330 -412v-587c0 -91.333 -9.66699 -168.666 -29 -231.999s-52 -117.666 -98 -162.999s-108.167 -78.666 -186.5 -99.999s-175.166 -32 -290.499 -32z" />
    <glyph glyph-name="Omacron" unicode="&#x14c;" horiz-adv-x="1744" 
d="M1692 808c0 -156.667 -35.833 -299 -107.5 -427s-170.167 -228.333 -295.5 -301s-264.333 -109 -417 -109s-291.667 36.333 -417 109s-223.833 173 -295.5 301s-107.5 270.333 -107.5 427c0 172 35.833 322.5 107.5 451.5s169 226.833 292 293.5s263.833 100 422.5 100
c156 0 295.5 -33.333 418.5 -100s220.333 -164.5 292 -293.5s107.5 -279.5 107.5 -451.5zM872 319c26 0 49.3291 4.33105 69.9961 12.998s38.167 20.667 52.5 36s26.833 33.333 37.5 54s19 43.167 25 67.5s11 49.5 15 75.5s6.5 52.167 7.5 78.5s1.83301 52.166 2.5 77.499
s0.666992 49.333 0 72v30v35c-0.666992 24 -0.666992 49.333 0 76s-0.5 54.167 -3.5 82.5s-6.66699 55.833 -11 82.5s-11.833 52 -22.5 76s-23.167 45 -37.5 63s-33.166 32.167 -56.499 42.5s-49.666 15.5 -78.999 15.5c-26 0 -49.5 -4 -70.5 -12s-38.5 -19.167 -52.5 -33.5
s-26.5 -31 -37.5 -50s-19.333 -39.667 -25 -62s-10.667 -45.666 -15 -69.999s-6.83301 -48.666 -7.5 -72.999s-1.5 -48.166 -2.5 -71.499s-0.833008 -45.333 0.5 -66v-35v-30c0.666992 -20 0.666992 -41 0 -63s-0.166992 -44.833 1.5 -68.5s3.5 -47.167 5.5 -70.5
s5.5 -46.333 10.5 -69s10.833 -44 17.5 -64s15.334 -38.5 26.001 -55.5s22.834 -31.667 36.501 -44s30.167 -22 49.5 -29s40.333 -10.5 63 -10.5zM1246 1734h-748v335h748v-335z" />
    <glyph glyph-name="omacron" unicode="&#x14d;" horiz-adv-x="1290" 
d="M43 547c0 173.333 53.668 307.333 161.001 402s254 142 440 142c187.333 0 334.666 -47.333 441.999 -142s161 -228.667 161 -402c0 -116.667 -25.5 -218 -76.5 -304s-121.667 -151 -212 -195s-194.833 -66 -313.5 -66s-223.167 22 -313.5 66s-161 109 -212 195
s-76.5 187.333 -76.5 304zM508.001 545c0 -167.333 45.665 -251 136.998 -251s137 83.667 137 251c0 34 -1.5 62.833 -4.5 86.5s-8.83301 47.834 -17.5 72.501s-22.667 43.334 -42 56.001s-43.666 19 -72.999 19s-53.666 -6.33301 -72.999 -19s-33.333 -31.334 -42 -56.001
s-14.5 -48.834 -17.5 -72.501s-4.5 -52.5 -4.5 -86.5zM1019 1183h-748v335h748v-335z" />
    <glyph glyph-name="Obreve" unicode="&#x14e;" horiz-adv-x="1744" 
d="M1692 808c0 -156.667 -35.833 -299 -107.5 -427s-170.167 -228.333 -295.5 -301s-264.333 -109 -417 -109s-291.667 36.333 -417 109s-223.833 173 -295.5 301s-107.5 270.333 -107.5 427c0 172 35.833 322.5 107.5 451.5s169 226.833 292 293.5s263.833 100 422.5 100
c156 0 295.5 -33.333 418.5 -100s220.333 -164.5 292 -293.5s107.5 -279.5 107.5 -451.5zM872 319c26 0 49.3291 4.33105 69.9961 12.998s38.167 20.667 52.5 36s26.833 33.333 37.5 54s19 43.167 25 67.5s11 49.5 15 75.5s6.5 52.167 7.5 78.5s1.83301 52.166 2.5 77.499
s0.666992 49.333 0 72v30v35c-0.666992 24 -0.666992 49.333 0 76s-0.5 54.167 -3.5 82.5s-6.66699 55.833 -11 82.5s-11.833 52 -22.5 76s-23.167 45 -37.5 63s-33.166 32.167 -56.499 42.5s-49.666 15.5 -78.999 15.5c-26 0 -49.5 -4 -70.5 -12s-38.5 -19.167 -52.5 -33.5
s-26.5 -31 -37.5 -50s-19.333 -39.667 -25 -62s-10.667 -45.666 -15 -69.999s-6.83301 -48.666 -7.5 -72.999s-1.5 -48.166 -2.5 -71.499s-0.833008 -45.333 0.5 -66v-35v-30c0.666992 -20 0.666992 -41 0 -63s-0.166992 -44.833 1.5 -68.5s3.5 -47.167 5.5 -70.5
s5.5 -46.333 10.5 -69s10.833 -44 17.5 -64s15.334 -38.5 26.001 -55.5s22.834 -31.667 36.501 -44s30.167 -22 49.5 -29s40.333 -10.5 63 -10.5zM871.996 1796c-132.667 0 -233.167 33.333 -301.5 100s-102.5 159 -102.5 277h252c0 -50.667 15 -90.167 45 -118.5
s65.667 -42.5 107 -42.5s77 14.167 107 42.5s45 67.833 45 118.5h252c0 -117.333 -34.5 -209.5 -103.5 -276.5s-169.167 -100.5 -300.5 -100.5z" />
    <glyph glyph-name="obreve" unicode="&#x14f;" horiz-adv-x="1290" 
d="M43 547c0 173.333 53.668 307.333 161.001 402s254 142 440 142c187.333 0 334.666 -47.333 441.999 -142s161 -228.667 161 -402c0 -116.667 -25.5 -218 -76.5 -304s-121.667 -151 -212 -195s-194.833 -66 -313.5 -66s-223.167 22 -313.5 66s-161 109 -212 195
s-76.5 187.333 -76.5 304zM508.001 545c0 -167.333 45.665 -251 136.998 -251s137 83.667 137 251c0 34 -1.5 62.833 -4.5 86.5s-8.83301 47.834 -17.5 72.501s-22.667 43.334 -42 56.001s-43.666 19 -72.999 19s-53.666 -6.33301 -72.999 -19s-33.333 -31.334 -42 -56.001
s-14.5 -48.834 -17.5 -72.501s-4.5 -52.5 -4.5 -86.5zM646.999 1245c-132.667 0 -233.167 33.333 -301.5 100s-102.5 159 -102.5 277h252c0 -50.667 15 -90.167 45 -118.5s65.667 -42.5 107 -42.5s77 14.167 107 42.5s45 67.833 45 118.5h252
c0 -117.333 -34.5 -209.5 -103.5 -276.5s-169.167 -100.5 -300.5 -100.5z" />
    <glyph glyph-name="Ohungarumlaut" unicode="&#x150;" horiz-adv-x="1744" 
d="M1692 808c0 -156.667 -35.833 -299 -107.5 -427s-170.167 -228.333 -295.5 -301s-264.333 -109 -417 -109s-291.667 36.333 -417 109s-223.833 173 -295.5 301s-107.5 270.333 -107.5 427c0 172 35.833 322.5 107.5 451.5s169 226.833 292 293.5s263.833 100 422.5 100
c156 0 295.5 -33.333 418.5 -100s220.333 -164.5 292 -293.5s107.5 -279.5 107.5 -451.5zM872 319c26 0 49.3291 4.33105 69.9961 12.998s38.167 20.667 52.5 36s26.833 33.333 37.5 54s19 43.167 25 67.5s11 49.5 15 75.5s6.5 52.167 7.5 78.5s1.83301 52.166 2.5 77.499
s0.666992 49.333 0 72v30v35c-0.666992 24 -0.666992 49.333 0 76s-0.5 54.167 -3.5 82.5s-6.66699 55.833 -11 82.5s-11.833 52 -22.5 76s-23.167 45 -37.5 63s-33.166 32.167 -56.499 42.5s-49.666 15.5 -78.999 15.5c-26 0 -49.5 -4 -70.5 -12s-38.5 -19.167 -52.5 -33.5
s-26.5 -31 -37.5 -50s-19.333 -39.667 -25 -62s-10.667 -45.666 -15 -69.999s-6.83301 -48.666 -7.5 -72.999s-1.5 -48.166 -2.5 -71.499s-0.833008 -45.333 0.5 -66v-35v-30c0.666992 -20 0.666992 -41 0 -63s-0.166992 -44.833 1.5 -68.5s3.5 -47.167 5.5 -70.5
s5.5 -46.333 10.5 -69s10.833 -44 17.5 -64s15.334 -38.5 26.001 -55.5s22.834 -31.667 36.501 -44s30.167 -22 49.5 -29s40.333 -10.5 63 -10.5zM923.996 2246l-288 -567l-165 60l153 626zM1378 2155l-423 -475l-144 99l307 567z" />
    <glyph glyph-name="ohungarumlaut" unicode="&#x151;" horiz-adv-x="1290" 
d="M43 547c0 173.333 53.668 307.333 161.001 402s254 142 440 142c187.333 0 334.666 -47.333 441.999 -142s161 -228.667 161 -402c0 -116.667 -25.5 -218 -76.5 -304s-121.667 -151 -212 -195s-194.833 -66 -313.5 -66s-223.167 22 -313.5 66s-161 109 -212 195
s-76.5 187.333 -76.5 304zM508.001 545c0 -167.333 45.665 -251 136.998 -251s137 83.667 137 251c0 34 -1.5 62.833 -4.5 86.5s-8.83301 47.834 -17.5 72.501s-22.667 43.334 -42 56.001s-43.666 19 -72.999 19s-53.666 -6.33301 -72.999 -19s-33.333 -31.334 -42 -56.001
s-14.5 -48.834 -17.5 -72.501s-4.5 -52.5 -4.5 -86.5zM793.999 1695l-288 -567l-165 60l153 626zM1248 1604l-423 -475l-144 99l307 567z" />
    <glyph glyph-name="OE" unicode="&#x152;" horiz-adv-x="2329" 
d="M896 0c-254.667 0 -458.167 72.167 -610.5 216.5s-228.833 336.5 -229.5 576.5c0 158.667 34.5 300 103.5 424s167 220.5 294 289.5s272.5 103.5 436.5 103.5h1315v-653l-268 -1l-76 302h-213v-270h205v-352h-205v-286h219l13 70l63 267h273v-687h-1320zM673 755
c0 -34.667 0.500977 -64.165 1.50098 -88.498s3.16699 -51.666 6.5 -81.999s8 -55.833 14 -76.5s14.5 -41.834 25.5 -63.501s24.167 -38.834 39.5 -51.501s34.5 -23 57.5 -31s49.167 -12 78.5 -12h199v907h-210c-34.667 0 -65 -6 -91 -18s-46.333 -28.333 -61 -49
s-26.834 -45 -36.501 -73s-15.667 -58.333 -18 -91s-4.33301 -66.834 -6 -102.501s-1.5 -71.167 0.5 -106.5v-62z" />
    <glyph glyph-name="oe" unicode="&#x153;" horiz-adv-x="1927" 
d="M646 -26c-118.667 0 -223.166 21.998 -313.499 65.998s-161 109 -212 195s-76.5 187.333 -76.5 304c0 173.333 53.667 307.333 161 402s254.333 142 441 142c44 0 86.333 -4.33301 127 -13s74.167 -19 100.5 -31s49.666 -24 69.999 -36s35.166 -22.333 44.499 -31l14 -13
c2.66699 3.33301 6.66699 7.83301 12 13.5s17.666 15.667 36.999 30s40.5 26.833 63.5 37.5s53.833 20.5 92.5 29.5s79.667 13.5 123 13.5c114.667 0 214.334 -24.5 299.001 -73.5s147.834 -113.5 189.501 -193.5s62.5 -170 62.5 -270c0 -22.667 -1.66699 -49 -5 -79
c-6.66699 -15.333 -12 -24 -16 -26c-3.33301 -1.33301 -10.333 -2 -21 -2h-602c0 -62 15.833 -115.167 47.5 -159.5s74.834 -66.5 129.501 -66.5c48 0 83 11.667 105 35s33.667 59.333 35 108h307v-238c-88.667 -53.333 -175.334 -91 -260.001 -113
s-180.334 -32.667 -287.001 -32c-39.333 0 -77.166 4.83301 -113.499 14.5s-66.333 21.334 -90 35.001s-44.5 27.334 -62.5 41.001s-31.333 25.167 -40 34.5l-12 15c-3.33301 -4 -8 -9 -14 -15s-19.833 -17 -41.5 -33s-45 -30.167 -70 -42.5s-57.667 -23.5 -98 -33.5
s-82.5 -15 -126.5 -15zM509.001 536.998c0 -140.667 45.665 -211 136.998 -211s137 70.333 137 211c0 28 -1.5 51.833 -4.5 71.5s-8.83301 39.667 -17.5 60s-22.667 35.833 -42 46.5s-43.666 16 -72.999 16s-53.666 -5.33301 -72.999 -16s-33.333 -26.167 -42 -46.5
s-14.5 -40.333 -17.5 -60s-4.5 -43.5 -4.5 -71.5zM1239 646.998v-29h215c0.666992 23.333 0.166992 43.666 -1.5 60.999s-5.5 36.833 -11.5 58.5s-17 38.334 -33 50.001s-36.333 17.5 -61 17.5c-36 0 -63 -16.167 -81 -48.5s-27 -68.833 -27 -109.5z" />
    <glyph glyph-name="Racute" unicode="&#x154;" horiz-adv-x="1765" 
d="M912 359h-120.998v335h98c40 0 72.667 -5.66699 98 -17s44.166 -28.833 56.499 -52.5s20.666 -48.667 24.999 -75s6.5 -59.166 6.5 -98.499v-195c0 -27.333 2.66699 -52.5 8 -75.5s12 -42.833 20 -59.5s19.167 -31.5 33.5 -44.5s28 -23.667 41 -32s30 -15.5 51 -21.5
s39.167 -10.5 54.5 -13.5s35.5 -5.16699 60.5 -6.5s45 -2.16602 60 -2.49902s35.5 -0.5 61.5 -0.5h262v359c-37.333 0 -67.166 2.16699 -89.499 6.5s-38.833 11.666 -49.5 21.999s-17.5 21.166 -20.5 32.499s-4.5 26.666 -4.5 45.999v93c0 61.333 -21.333 112.333 -64 153
s-113.667 72.334 -213 95.001c114.667 21.333 203.167 63 265.5 125s93.5 141.333 93.5 238c0 82 -12.333 152.5 -37 211.5s-60.834 106 -108.501 141s-103 60.5 -166 76.5s-135.5 24 -217.5 24h-1015v-353h155v-911h-154v-360c364 0.666992 634 1 810 1v359zM785.002 920
l0.000976562 350.001h121c59.333 0 105.833 -15.833 139.5 -47.5s50.5 -73.834 50.5 -126.501c0 -33.333 -7 -62 -21 -86s-33.333 -42.333 -58 -55s-50.834 -21.667 -78.501 -27s-58.5 -8 -92.5 -8h-61zM1211 1994l-554 -313l-104 141l474 437z" />
    <glyph glyph-name="racute" unicode="&#x155;" horiz-adv-x="1000" 
d="M94 1072h543v-163l4 -4c32.667 56 79.667 99.667 141 131s125 47 191 47v-416l-106 7c-73.333 0 -131 -21.167 -173 -63.5s-63 -103.833 -63 -184.5v-121h137v-305h-674v305h79v456h-79v311zM831 1443l-554 -313l-104 141l474 437z" />
    <glyph glyph-name="Rcommaaccent" unicode="&#x156;" horiz-adv-x="1765" 
d="M912 359h-120.998v335h98c40 0 72.667 -5.66699 98 -17s44.166 -28.833 56.499 -52.5s20.666 -48.667 24.999 -75s6.5 -59.166 6.5 -98.499v-195c0 -27.333 2.66699 -52.5 8 -75.5s12 -42.833 20 -59.5s19.167 -31.5 33.5 -44.5s28 -23.667 41 -32s30 -15.5 51 -21.5
s39.167 -10.5 54.5 -13.5s35.5 -5.16699 60.5 -6.5s45 -2.16602 60 -2.49902s35.5 -0.5 61.5 -0.5h262v359c-37.333 0 -67.166 2.16699 -89.499 6.5s-38.833 11.666 -49.5 21.999s-17.5 21.166 -20.5 32.499s-4.5 26.666 -4.5 45.999v93c0 61.333 -21.333 112.333 -64 153
s-113.667 72.334 -213 95.001c114.667 21.333 203.167 63 265.5 125s93.5 141.333 93.5 238c0 82 -12.333 152.5 -37 211.5s-60.834 106 -108.501 141s-103 60.5 -166 76.5s-135.5 24 -217.5 24h-1015v-353h155v-911h-154v-360c364 0.666992 634 1 810 1v359zM785.002 920
l0.000976562 350.001h121c59.333 0 105.833 -15.833 139.5 -47.5s50.5 -73.834 50.5 -126.501c0 -33.333 -7 -62 -21 -86s-33.333 -42.333 -58 -55s-50.834 -21.667 -78.501 -27s-58.5 -8 -92.5 -8h-61zM676.003 -697.999c30 0 56 2.16699 78 6.5s39.833 11.666 53.5 21.999
s24.5 20.833 32.5 31.5s13.833 26 17.5 46s5.83398 37.5 6.50098 52.5s1 36.5 1 64.5h-189v366h510c16 -102.667 24 -195 24 -277c0 -185.333 -43.333 -321.166 -130 -407.499s-221.334 -129.5 -404.001 -129.5v225z" />
    <glyph glyph-name="rcommaaccent" unicode="&#x157;" horiz-adv-x="1000" 
d="M94 1072h543v-163l4 -4c32.667 56 79.667 99.667 141 131s125 47 191 47v-416l-106 7c-73.333 0 -131 -21.167 -173 -63.5s-63 -103.833 -63 -184.5v-121h137v-305h-674v305h79v456h-79v311zM172 -698c30 0 56 2.16699 78 6.5s39.833 11.666 53.5 21.999
s24.5 20.833 32.5 31.5s13.833 26 17.5 46s5.83398 37.5 6.50098 52.5s1 36.5 1 64.5h-189v366h510c16 -102.667 24 -195 24 -277c0 -185.333 -43.333 -321.166 -130 -407.499s-221.334 -129.5 -404.001 -129.5v225z" />
    <glyph glyph-name="Rcaron" unicode="&#x158;" horiz-adv-x="1765" 
d="M912 359h-120.998v335h98c40 0 72.667 -5.66699 98 -17s44.166 -28.833 56.499 -52.5s20.666 -48.667 24.999 -75s6.5 -59.166 6.5 -98.499v-195c0 -27.333 2.66699 -52.5 8 -75.5s12 -42.833 20 -59.5s19.167 -31.5 33.5 -44.5s28 -23.667 41 -32s30 -15.5 51 -21.5
s39.167 -10.5 54.5 -13.5s35.5 -5.16699 60.5 -6.5s45 -2.16602 60 -2.49902s35.5 -0.5 61.5 -0.5h262v359c-37.333 0 -67.166 2.16699 -89.499 6.5s-38.833 11.666 -49.5 21.999s-17.5 21.166 -20.5 32.499s-4.5 26.666 -4.5 45.999v93c0 61.333 -21.333 112.333 -64 153
s-113.667 72.334 -213 95.001c114.667 21.333 203.167 63 265.5 125s93.5 141.333 93.5 238c0 82 -12.333 152.5 -37 211.5s-60.834 106 -108.501 141s-103 60.5 -166 76.5s-135.5 24 -217.5 24h-1015v-353h155v-911h-154v-360c364 0.666992 634 1 810 1v359zM785.002 920
l0.000976562 350.001h121c59.333 0 105.833 -15.833 139.5 -47.5s50.5 -73.834 50.5 -126.501c0 -33.333 -7 -62 -21 -86s-33.333 -42.333 -58 -55s-50.834 -21.667 -78.501 -27s-58.5 -8 -92.5 -8h-61zM746.003 1700l-273 377l154 101l255 -245l255 245l154 -101l-274 -376
z" />
    <glyph glyph-name="rcaron" unicode="&#x159;" horiz-adv-x="1000" 
d="M94 1072h543v-163l4 -4c32.667 56 79.667 99.667 141 131s125 47 191 47v-416l-106 7c-73.333 0 -131 -21.167 -173 -63.5s-63 -103.833 -63 -184.5v-121h137v-305h-674v305h79v456h-79v311zM366 1149l-273 377l154 101l255 -245l255 245l154 -101l-274 -376z" />
    <glyph glyph-name="Sacute" unicode="&#x15a;" horiz-adv-x="1329" 
d="M874 1623c-18.667 -32 -29.333 -51.999 -32 -59.999c-79.333 60 -183.333 90 -312 90c-148.667 0 -261.834 -47 -339.501 -141s-116.5 -220.333 -116.5 -379c0 -44 3.16699 -85 9.5 -123s14.833 -72.333 25.5 -103s24.667 -59.5 42 -86.5s35.666 -50.833 54.999 -71.5
s42.333 -40.334 69 -59.001s52.834 -34.834 78.501 -48.501s55.5 -27.167 89.5 -40.5s66 -24.833 96 -34.5s64.667 -20.167 104 -31.5c24.667 -6.66699 45.334 -13.667 62.001 -21s32.334 -19.166 47.001 -35.499s22 -35.833 22 -58.5c0 -27.333 -10.833 -48.5 -32.5 -63.5
s-47.167 -22.5 -76.5 -22.5c-48.667 0 -95.334 18.5 -140.001 55.5s-75.667 79.833 -93 128.5h-322v-518h323l36 92c52 -44 101.833 -75.167 149.5 -93.5s107.5 -27.5 179.5 -27.5c70 0 135.5 15.167 196.5 45.5s112 70.5 153 120.5s73 107.333 96 172s33.833 131 32.5 199
c-1.33301 69.333 -10.833 132.166 -28.5 188.499s-40.834 103.333 -69.501 141s-61.334 71 -98.001 100s-75.167 52.333 -115.5 70s-80.666 33.5 -120.999 47.5s-78.666 26.167 -114.999 36.5s-68.5 20.833 -96.5 31.5s-50.167 23.334 -66.5 38.001s-24.5 32 -24.5 52
c0 30.667 8.33301 53.667 25 69s39.667 23 69 23c50 0 95.667 -20 137 -60s68 -86 80 -138h307v516h-285zM993.001 1994l-554 -313l-104 141l474 437z" />
    <glyph glyph-name="sacute" unicode="&#x15b;" horiz-adv-x="1055" 
d="M976 761l-0.00292969 320h-168l-27 -48c-6.66699 4.66699 -16.667 10.167 -30 16.5s-45.333 15 -96 26s-106.667 16.5 -168 16.5c-80.667 0 -151.167 -11.667 -211.5 -35s-108.833 -61.5 -145.5 -114.5s-55 -118.5 -55 -196.5c0 -51.333 9.16699 -96.333 27.5 -135
s42 -69.334 71 -92.001s61 -42.167 96 -58.5s70.167 -30.166 105.5 -41.499s67.5 -22.333 96.5 -33s52.667 -24.167 71 -40.5s27.5 -35.833 27.5 -58.5c0 -25.333 -11.167 -44.666 -33.5 -57.999s-47.166 -20 -74.499 -20c-44 0 -81.333 18.167 -112 54.5
s-50 77.5 -58 123.5h-221l-7 -378h177l36 67c66.667 -62.667 169.334 -94 308.001 -94c135.333 0 237.666 35 306.999 105s104 172.667 104 308c0 150.667 -80.333 258.667 -241 324c-9.33301 3.33301 -29.666 9 -60.999 17s-58.666 15.667 -81.999 23
s-45 18.666 -65 33.999s-30 33 -30 53c0 23.333 9.16699 41.5 27.5 54.5s39.833 19.5 64.5 19.5c22.667 0 45.667 -6 69 -18s41.333 -27.333 54 -46c2.66699 -3.33301 7.66699 -13 15 -29l20 -45l8 -21h201zM855.997 1443l-554 -313l-104 141l474 437z" />
    <glyph glyph-name="Scircumflex" unicode="&#x15c;" horiz-adv-x="1329" 
d="M874 1623c-18.667 -32 -29.333 -51.999 -32 -59.999c-79.333 60 -183.333 90 -312 90c-148.667 0 -261.834 -47 -339.501 -141s-116.5 -220.333 -116.5 -379c0 -44 3.16699 -85 9.5 -123s14.833 -72.333 25.5 -103s24.667 -59.5 42 -86.5s35.666 -50.833 54.999 -71.5
s42.333 -40.334 69 -59.001s52.834 -34.834 78.501 -48.501s55.5 -27.167 89.5 -40.5s66 -24.833 96 -34.5s64.667 -20.167 104 -31.5c24.667 -6.66699 45.334 -13.667 62.001 -21s32.334 -19.166 47.001 -35.499s22 -35.833 22 -58.5c0 -27.333 -10.833 -48.5 -32.5 -63.5
s-47.167 -22.5 -76.5 -22.5c-48.667 0 -95.334 18.5 -140.001 55.5s-75.667 79.833 -93 128.5h-322v-518h323l36 92c52 -44 101.833 -75.167 149.5 -93.5s107.5 -27.5 179.5 -27.5c70 0 135.5 15.167 196.5 45.5s112 70.5 153 120.5s73 107.333 96 172s33.833 131 32.5 199
c-1.33301 69.333 -10.833 132.166 -28.5 188.499s-40.834 103.333 -69.501 141s-61.334 71 -98.001 100s-75.167 52.333 -115.5 70s-80.666 33.5 -120.999 47.5s-78.666 26.167 -114.999 36.5s-68.5 20.833 -96.5 31.5s-50.167 23.334 -66.5 38.001s-24.5 32 -24.5 52
c0 30.667 8.33301 53.667 25 69s39.667 23 69 23c50 0 95.667 -20 137 -60s68 -86 80 -138h307v516h-285zM799.001 2151l274 -376l-154 -101l-255 245l-255 -245l-154 101l273 377z" />
    <glyph glyph-name="scircumflex" unicode="&#x15d;" horiz-adv-x="1055" 
d="M976 761l-0.00292969 320h-168l-27 -48c-6.66699 4.66699 -16.667 10.167 -30 16.5s-45.333 15 -96 26s-106.667 16.5 -168 16.5c-80.667 0 -151.167 -11.667 -211.5 -35s-108.833 -61.5 -145.5 -114.5s-55 -118.5 -55 -196.5c0 -51.333 9.16699 -96.333 27.5 -135
s42 -69.334 71 -92.001s61 -42.167 96 -58.5s70.167 -30.166 105.5 -41.499s67.5 -22.333 96.5 -33s52.667 -24.167 71 -40.5s27.5 -35.833 27.5 -58.5c0 -25.333 -11.167 -44.666 -33.5 -57.999s-47.166 -20 -74.499 -20c-44 0 -81.333 18.167 -112 54.5
s-50 77.5 -58 123.5h-221l-7 -378h177l36 67c66.667 -62.667 169.334 -94 308.001 -94c135.333 0 237.666 35 306.999 105s104 172.667 104 308c0 150.667 -80.333 258.667 -241 324c-9.33301 3.33301 -29.666 9 -60.999 17s-58.666 15.667 -81.999 23
s-45 18.666 -65 33.999s-30 33 -30 53c0 23.333 9.16699 41.5 27.5 54.5s39.833 19.5 64.5 19.5c22.667 0 45.667 -6 69 -18s41.333 -27.333 54 -46c2.66699 -3.33301 7.66699 -13 15 -29l20 -45l8 -21h201zM661.997 1600l274 -376l-154 -101l-255 245l-255 -245l-154 101
l273 377z" />
    <glyph glyph-name="Scedilla" unicode="&#x15e;" horiz-adv-x="1329" 
d="M874 1623c-18.667 -32 -29.333 -51.999 -32 -59.999c-79.333 60 -183.333 90 -312 90c-148.667 0 -261.834 -47 -339.501 -141s-116.5 -220.333 -116.5 -379c0 -44 3.16699 -85 9.5 -123s14.833 -72.333 25.5 -103s24.667 -59.5 42 -86.5s35.666 -50.833 54.999 -71.5
s42.333 -40.334 69 -59.001s52.834 -34.834 78.501 -48.501s55.5 -27.167 89.5 -40.5s66 -24.833 96 -34.5s64.667 -20.167 104 -31.5c24.667 -6.66699 45.334 -13.667 62.001 -21s32.334 -19.166 47.001 -35.499s22 -35.833 22 -58.5c0 -27.333 -10.833 -48.5 -32.5 -63.5
s-47.167 -22.5 -76.5 -22.5c-48.667 0 -95.334 18.5 -140.001 55.5s-75.667 79.833 -93 128.5h-322v-518h323l36 92c52 -44 101.833 -75.167 149.5 -93.5s107.5 -27.5 179.5 -27.5c70 0 135.5 15.167 196.5 45.5s112 70.5 153 120.5s73 107.333 96 172s33.833 131 32.5 199
c-1.33301 69.333 -10.833 132.166 -28.5 188.499s-40.834 103.333 -69.501 141s-61.334 71 -98.001 100s-75.167 52.333 -115.5 70s-80.666 33.5 -120.999 47.5s-78.666 26.167 -114.999 36.5s-68.5 20.833 -96.5 31.5s-50.167 23.334 -66.5 38.001s-24.5 32 -24.5 52
c0 30.667 8.33301 53.667 25 69s39.667 23 69 23c50 0 95.667 -20 137 -60s68 -86 80 -138h307v516h-285zM546.001 0.000976562l179.999 -0.00292969v-119c88.667 -51.333 133 -106.666 133 -165.999c0 -54.667 -36.167 -101.667 -108.5 -141s-159.166 -59 -260.499 -59h-21
v113c64.667 0.666992 112 10.334 142 29.001s45 42.667 45 72c0 26.667 -10.667 54.334 -32 83.001s-47.333 51.667 -78 69v119z" />
    <glyph glyph-name="scedilla" unicode="&#x15f;" horiz-adv-x="1055" 
d="M976 761l-0.00292969 320h-168l-27 -48c-6.66699 4.66699 -16.667 10.167 -30 16.5s-45.333 15 -96 26s-106.667 16.5 -168 16.5c-80.667 0 -151.167 -11.667 -211.5 -35s-108.833 -61.5 -145.5 -114.5s-55 -118.5 -55 -196.5c0 -51.333 9.16699 -96.333 27.5 -135
s42 -69.334 71 -92.001s61 -42.167 96 -58.5s70.167 -30.166 105.5 -41.499s67.5 -22.333 96.5 -33s52.667 -24.167 71 -40.5s27.5 -35.833 27.5 -58.5c0 -25.333 -11.167 -44.666 -33.5 -57.999s-47.166 -20 -74.499 -20c-44 0 -81.333 18.167 -112 54.5
s-50 77.5 -58 123.5h-221l-7 -378h177l36 67c66.667 -62.667 169.334 -94 308.001 -94c135.333 0 237.666 35 306.999 105s104 172.667 104 308c0 150.667 -80.333 258.667 -241 324c-9.33301 3.33301 -29.666 9 -60.999 17s-58.666 15.667 -81.999 23
s-45 18.666 -65 33.999s-30 33 -30 53c0 23.333 9.16699 41.5 27.5 54.5s39.833 19.5 64.5 19.5c22.667 0 45.667 -6 69 -18s41.333 -27.333 54 -46c2.66699 -3.33301 7.66699 -13 15 -29l20 -45l8 -21h201zM408.997 0l179.999 -0.00292969v-119
c88.667 -51.333 133 -106.666 133 -165.999c0 -54.667 -36.167 -101.667 -108.5 -141s-159.166 -59 -260.499 -59h-21v113c64.667 0.666992 112 10.334 142 29.001s45 42.667 45 72c0 26.667 -10.667 54.334 -32 83.001s-47.333 51.667 -78 69v119z" />
    <glyph glyph-name="Scaron" unicode="&#x160;" horiz-adv-x="1329" 
d="M874 1623c-18.667 -32 -29.333 -51.999 -32 -59.999c-79.333 60 -183.333 90 -312 90c-148.667 0 -261.834 -47 -339.501 -141s-116.5 -220.333 -116.5 -379c0 -44 3.16699 -85 9.5 -123s14.833 -72.333 25.5 -103s24.667 -59.5 42 -86.5s35.666 -50.833 54.999 -71.5
s42.333 -40.334 69 -59.001s52.834 -34.834 78.501 -48.501s55.5 -27.167 89.5 -40.5s66 -24.833 96 -34.5s64.667 -20.167 104 -31.5c24.667 -6.66699 45.334 -13.667 62.001 -21s32.334 -19.166 47.001 -35.499s22 -35.833 22 -58.5c0 -27.333 -10.833 -48.5 -32.5 -63.5
s-47.167 -22.5 -76.5 -22.5c-48.667 0 -95.334 18.5 -140.001 55.5s-75.667 79.833 -93 128.5h-322v-518h323l36 92c52 -44 101.833 -75.167 149.5 -93.5s107.5 -27.5 179.5 -27.5c70 0 135.5 15.167 196.5 45.5s112 70.5 153 120.5s73 107.333 96 172s33.833 131 32.5 199
c-1.33301 69.333 -10.833 132.166 -28.5 188.499s-40.834 103.333 -69.501 141s-61.334 71 -98.001 100s-75.167 52.333 -115.5 70s-80.666 33.5 -120.999 47.5s-78.666 26.167 -114.999 36.5s-68.5 20.833 -96.5 31.5s-50.167 23.334 -66.5 38.001s-24.5 32 -24.5 52
c0 30.667 8.33301 53.667 25 69s39.667 23 69 23c50 0 95.667 -20 137 -60s68 -86 80 -138h307v516h-285zM535.001 1711l-273 377l154 101l255 -245l255 245l154 -101l-274 -376z" />
    <glyph glyph-name="scaron" unicode="&#x161;" horiz-adv-x="1055" 
d="M976 761l-0.00292969 320h-168l-27 -48c-6.66699 4.66699 -16.667 10.167 -30 16.5s-45.333 15 -96 26s-106.667 16.5 -168 16.5c-80.667 0 -151.167 -11.667 -211.5 -35s-108.833 -61.5 -145.5 -114.5s-55 -118.5 -55 -196.5c0 -51.333 9.16699 -96.333 27.5 -135
s42 -69.334 71 -92.001s61 -42.167 96 -58.5s70.167 -30.166 105.5 -41.499s67.5 -22.333 96.5 -33s52.667 -24.167 71 -40.5s27.5 -35.833 27.5 -58.5c0 -25.333 -11.167 -44.666 -33.5 -57.999s-47.166 -20 -74.499 -20c-44 0 -81.333 18.167 -112 54.5
s-50 77.5 -58 123.5h-221l-7 -378h177l36 67c66.667 -62.667 169.334 -94 308.001 -94c135.333 0 237.666 35 306.999 105s104 172.667 104 308c0 150.667 -80.333 258.667 -241 324c-9.33301 3.33301 -29.666 9 -60.999 17s-58.666 15.667 -81.999 23
s-45 18.666 -65 33.999s-30 33 -30 53c0 23.333 9.16699 41.5 27.5 54.5s39.833 19.5 64.5 19.5c22.667 0 45.667 -6 69 -18s41.333 -27.333 54 -46c2.66699 -3.33301 7.66699 -13 15 -29l20 -45l8 -21h201zM393.997 1149l-273 377l154 101l255 -245l255 245l154 -101
l-274 -376z" />
    <glyph glyph-name="Tcommaaccent" unicode="&#x162;" horiz-adv-x="1531" 
d="M1213 965l-62 305h-106v-910h164v-360h-891v360h164v910h-100l-64 -305h-281v657h1457v-657h-281zM372 -674c30 0 56 2.16699 78 6.5s39.833 11.666 53.5 21.999s24.5 20.833 32.5 31.5s13.833 26 17.5 46s5.83398 37.5 6.50098 52.5s1 36.5 1 64.5h-189v366h510
c16 -102.667 24 -195 24 -277c0 -185.333 -43.333 -321.166 -130 -407.499s-221.334 -129.5 -404.001 -129.5v225z" />
    <glyph glyph-name="tcommaaccent" unicode="&#x163;" horiz-adv-x="875" 
d="M839 49l-37 -17c-24.667 -11.333 -62.667 -22.5 -114 -33.5s-103.666 -16.5 -156.999 -16.5c-254.667 0 -381.334 134.333 -380.001 403l1 376h-108v311h103v229l487 105v-334h152v-311h-152l-1 -323c0 -26 7 -49.833 21 -71.5s39.667 -32.5 77 -32.5
c30 0 66 4.66699 108 14v-299zM240 -674c30 0 56 2.16699 78 6.5s39.833 11.666 53.5 21.999s24.5 20.833 32.5 31.5s13.833 26 17.5 46s5.83398 37.5 6.50098 52.5s1 36.5 1 64.5h-189v366h510c16 -102.667 24 -195 24 -277c0 -185.333 -43.333 -321.166 -130 -407.499
s-221.334 -129.5 -404.001 -129.5v225z" />
    <glyph glyph-name="Tcaron" unicode="&#x164;" horiz-adv-x="1535" 
d="M1215 965l-62 305h-106v-910h164v-360h-891v360h164v910h-100l-64 -305h-281v657h1457v-657h-281zM631 1700l-273 377l154 101l255 -245l255 245l154 -101l-274 -376z" />
    <glyph glyph-name="tcaron" unicode="&#x165;" horiz-adv-x="1540" 
d="M837 348c-42 -9.33301 -78 -14 -108 -14c-37.333 0 -63 10.833 -77 32.5s-21 45.5 -21 71.5l1 323h152v311h-152v334l-487 -105v-229h-103v-311h108l-1 -376c-1.33301 -268.667 125.334 -403 380.001 -403c53.333 0 105.666 5.5 156.999 16.5s89.333 22.167 114 33.5
l37 17v299zM960 1034c30 0 56 2.16602 78 6.49902s39.833 11.666 53.5 21.999s24.5 20.833 32.5 31.5s13.833 26 17.5 46s5.83398 37.5 6.50098 52.5s1 36.5 1 64.5h-189v366h510c16 -103.333 24 -195.666 24 -276.999c0 -185.333 -43.333 -321.166 -130 -407.499
s-221.334 -129.5 -404.001 -129.5v225z" />
    <glyph glyph-name="Tbar" unicode="&#x166;" horiz-adv-x="1535" 
d="M1215 965l-62 305h-106v-415h94v-215h-94v-280h164v-360h-891v360h164v280h-91v215h91v415h-100l-64 -305h-281v657h1457v-657h-281z" />
    <glyph glyph-name="tbar" unicode="&#x167;" horiz-adv-x="873" 
d="M837 49l-37 -17c-24.667 -11.333 -62.667 -22.5 -114 -33.5s-103.666 -16.5 -156.999 -16.5c-254.667 0 -381.334 134.333 -380.001 403v81h-108v211h108l1 84h-108v311h103v229l487 105v-334h152v-311h-152l-1 -84h149v-211h-149v-28c0 -26 7 -49.833 21 -71.5
s39.667 -32.5 77 -32.5c30 0 66 4.66699 108 14v-299z" />
    <glyph glyph-name="Utilde" unicode="&#x168;" 
d="M1485 1270h154.001v352h-654v-352h164v-734c0 -58.667 -17.333 -105 -52 -139s-82.667 -51 -144 -51c-34.667 0 -64.834 7.33301 -90.501 22s-45.334 34.5 -59.001 59.5s-23.667 51.833 -30 80.5s-9.5 59.334 -9.5 92.001v670h148v352h-869v-352h161v-566
c0 -58.667 2.5 -113 7.5 -163s14 -100.333 27 -151s29.833 -96.334 50.5 -137.001s47.334 -79 80.001 -115s70.5 -66 113.5 -90s94.167 -42.833 153.5 -56.5s125.333 -20.5 198 -20.5c114 0 220.333 22.667 319 68s178.667 110.5 240 195.5s92 180.167 92 285.5v750z
M1015 2074c29.333 0 56 -6.33301 80 -19s44.667 -30.5 62 -53.5s32.5 -45.833 45.5 -68.5s27.333 -49 43 -79s29.5 -53.667 41.5 -71l-113 -74c-48.667 46.667 -82.167 76.334 -100.5 89.001s-33.833 19 -46.5 19c-30 0 -65.667 -10 -107 -30l-128.5 -60.5
c-44.333 -20.333 -84.833 -30.5 -121.5 -30.5c-30 0 -57 6.16699 -81 18.5s-44.833 30 -62.5 53s-32.834 45.667 -45.501 68l-43 79c-16 30.333 -30 54.166 -42 71.499l114 75c50.667 -48.667 85.334 -79.5 104.001 -92.5s34 -19.5 46 -19.5c24 0 51.667 6.5 83 19.5
s60 27.333 86 43s56 30 90 43s66 19.5 96 19.5z" />
    <glyph glyph-name="utilde" unicode="&#x169;" horiz-adv-x="1465" 
d="M821 156c-36.667 -56.667 -85.832 -99.834 -147.499 -129.501s-131.834 -44.5 -210.501 -44.5c-220 0 -330 134.333 -330 403v376h-80v311h574v-634c0 -35.333 9 -64.166 27 -86.499s39 -33.5 63 -33.5c31.333 0 56.5 11.5 75.5 34.5s28.5 51.5 28.5 85.5v323h-81v311
h575v-767h76v-305h-570v156zM906.002 1523c29.333 0 56 -6.33301 80 -19s44.667 -30.5 62 -53.5s32.5 -45.833 45.5 -68.5s27.333 -49 43 -79s29.5 -53.667 41.5 -71l-113 -74c-48.667 46.667 -82.167 76.334 -100.5 89.001s-33.833 19 -46.5 19c-30 0 -65.667 -10 -107 -30
l-128.5 -60.5c-44.333 -20.333 -84.833 -30.5 -121.5 -30.5c-30 0 -57 6.16699 -81 18.5s-44.833 30 -62.5 53s-32.834 45.667 -45.501 68l-43 79c-16 30.333 -30 54.166 -42 71.499l114 75c50.667 -48.667 85.334 -79.5 104.001 -92.5s34 -19.5 46 -19.5
c24 0 51.667 6.5 83 19.5s60 27.333 86 43s56 30 90 43s66 19.5 96 19.5z" />
    <glyph glyph-name="Umacron" unicode="&#x16a;" 
d="M1485 1270h154.001v352h-654v-352h164v-734c0 -58.667 -17.333 -105 -52 -139s-82.667 -51 -144 -51c-34.667 0 -64.834 7.33301 -90.501 22s-45.334 34.5 -59.001 59.5s-23.667 51.833 -30 80.5s-9.5 59.334 -9.5 92.001v670h148v352h-869v-352h161v-566
c0 -58.667 2.5 -113 7.5 -163s14 -100.333 27 -151s29.833 -96.334 50.5 -137.001s47.334 -79 80.001 -115s70.5 -66 113.5 -90s94.167 -42.833 153.5 -56.5s125.333 -20.5 198 -20.5c114 0 220.333 22.667 319 68s178.667 110.5 240 195.5s92 180.167 92 285.5v750z
M1215 1734h-748v335h748v-335z" />
    <glyph glyph-name="umacron" unicode="&#x16b;" horiz-adv-x="1465" 
d="M821 156c-36.667 -56.667 -85.832 -99.834 -147.499 -129.501s-131.834 -44.5 -210.501 -44.5c-220 0 -330 134.333 -330 403v376h-80v311h574v-634c0 -35.333 9 -64.166 27 -86.499s39 -33.5 63 -33.5c31.333 0 56.5 11.5 75.5 34.5s28.5 51.5 28.5 85.5v323h-81v311
h575v-767h76v-305h-570v156zM1106 1183h-748v335h748v-335z" />
    <glyph glyph-name="Ubreve" unicode="&#x16c;" 
d="M1485 1270h154.001v352h-654v-352h164v-734c0 -58.667 -17.333 -105 -52 -139s-82.667 -51 -144 -51c-34.667 0 -64.834 7.33301 -90.501 22s-45.334 34.5 -59.001 59.5s-23.667 51.833 -30 80.5s-9.5 59.334 -9.5 92.001v670h148v352h-869v-352h161v-566
c0 -58.667 2.5 -113 7.5 -163s14 -100.333 27 -151s29.833 -96.334 50.5 -137.001s47.334 -79 80.001 -115s70.5 -66 113.5 -90s94.167 -42.833 153.5 -56.5s125.333 -20.5 198 -20.5c114 0 220.333 22.667 319 68s178.667 110.5 240 195.5s92 180.167 92 285.5v750z
M841.001 1796c-132.667 0 -233.167 33.333 -301.5 100s-102.5 159 -102.5 277h252c0 -50.667 15 -90.167 45 -118.5s65.667 -42.5 107 -42.5s77 14.167 107 42.5s45 67.833 45 118.5h252c0 -117.333 -34.5 -209.5 -103.5 -276.5s-169.167 -100.5 -300.5 -100.5z" />
    <glyph glyph-name="ubreve" unicode="&#x16d;" horiz-adv-x="1465" 
d="M821 156c-36.667 -56.667 -85.832 -99.834 -147.499 -129.501s-131.834 -44.5 -210.501 -44.5c-220 0 -330 134.333 -330 403v376h-80v311h574v-634c0 -35.333 9 -64.166 27 -86.499s39 -33.5 63 -33.5c31.333 0 56.5 11.5 75.5 34.5s28.5 51.5 28.5 85.5v323h-81v311
h575v-767h76v-305h-570v156zM735.002 1245c-132.667 0 -233.167 33.333 -301.5 100s-102.5 159 -102.5 277h252c0 -50.667 15 -90.167 45 -118.5s65.667 -42.5 107 -42.5s77 14.167 107 42.5s45 67.833 45 118.5h252c0 -117.333 -34.5 -209.5 -103.5 -276.5
s-169.167 -100.5 -300.5 -100.5z" />
    </font>
</defs>
</svg>
